<?xml version="1.0" encoding="UTF-8"?><svg xmlns="http://www.w3.org/2000/svg" width="353.76" height="237.71" xmlns:xlink="http://www.w3.org/1999/xlink" viewBox="0 0 353.76 237.71"><defs><style>.uuid-7bec684f-7c1e-4266-8cb7-0372bb8f0bf8{fill:#ddd;}.uuid-27af99df-8eb5-457d-8e2f-18ded89860e4,.uuid-524cf0e3-9085-44c6-85d3-dd3485502209{fill:#c9f3f3;}.uuid-1a6671e5-7999-43cf-b138-7e891b73fab8,.uuid-35b5832a-5382-4a3c-a88f-cd2784a42a8b{fill:#fff;}.uuid-cf01f5e3-aef3-4c6e-a96d-8f59e70c04fa{fill:#bf692e;}.uuid-78660a28-8fac-4ffe-b216-c48665fe637b{fill:#604222;}.uuid-6acd8537-2b7c-43d6-9d3e-e48d39f323e8{isolation:isolate;}.uuid-49990cd5-2f2e-4ab9-a7a8-af2b46cce865{fill:#9e5726;}.uuid-d82e2d93-3838-487e-924d-411598564b76{fill:#b0ce34;}.uuid-d6f7ac67-fe9b-48d9-97a8-a84abb4dfbeb{fill:#81a317;}.uuid-6b25ee59-1ffd-4d84-a113-d5dc64213010{fill:#a6c933;}.uuid-efd50f26-e485-44a7-b081-e46a4a245b5c{fill:#8ead28;}.uuid-76d8a976-d232-434b-8490-a723c6041d6c{clip-path:url(#uuid-45e6f0dc-dddb-40eb-82c3-6bc0c9e9ad85);}.uuid-35b5832a-5382-4a3c-a88f-cd2784a42a8b{opacity:.2;}.uuid-114cbbe8-2410-4cb8-bec7-1f87ef138851{fill:none;}.uuid-fd30a5c2-0629-4cea-b1d1-34d98387a242{fill:#427880;}.uuid-92c037bd-0750-4059-837b-5bde005fe762{fill:#bcbcbc;}.uuid-8690082f-494e-4126-a67f-20c31b1fc389{fill:#70532f;}.uuid-4bce89fa-4fab-4709-bb41-d8fbe789cc7f{fill:#799b34;}.uuid-62906064-ac9c-4e56-a2ab-c5988ffb40d2{fill:#3e7b7a;}.uuid-524cf0e3-9085-44c6-85d3-dd3485502209{mix-blend-mode:soft-light;}.uuid-cb65553b-49ce-4747-866c-af350168d334{opacity:.67;}.uuid-817fc6fd-8786-4fca-8ed6-64bf2612148c{fill:#f0d628;}.uuid-c94e79cf-302e-4e4c-9ccf-6ec5ab6b7531{fill:#cecece;}.uuid-0894d577-0554-40a2-b1df-fa687cebd4c6{fill:#309aee;}.uuid-2adca50c-c2f4-4e5a-a85e-ef036434f7b7{fill:#569692;}.uuid-7c9a5767-240a-48ff-b6ef-824f94802ba8{fill:#587324;}.uuid-260e5f7a-d4ad-4e2a-9335-1e37a308c34e{fill:#ededed;}</style><clipPath id="uuid-45e6f0dc-dddb-40eb-82c3-6bc0c9e9ad85"><path class="uuid-114cbbe8-2410-4cb8-bec7-1f87ef138851" d="M.01,222.61c-.01,.15-.01,.3-.01,.45,0,5.7,4.62,10.33,10.33,10.33H318.9c2.85,0,5.44-1.16,7.31-3.03,1.87-1.87,3.03-4.45,3.03-7.3,0-.16,0-.3-.01-.45H.01Z"/></clipPath></defs><g class="uuid-6acd8537-2b7c-43d6-9d3e-e48d39f323e8"><g id="uuid-7b5df36a-ee92-4a5f-a61a-2057bd8ebd9b"><g id="uuid-f5d17567-cf93-459f-922d-096bdaf5db53"><g><g><path class="uuid-efd50f26-e485-44a7-b081-e46a4a245b5c" d="M32.92,133.9h0c-8.64,0-15.64,6.66-15.64,14.89v26.13c0,8.22,7,14.89,15.64,14.89h0c8.64,0,15.64-6.66,15.64-14.89v-26.13c0-8.22-7-14.89-15.64-14.89Z"/><path class="uuid-cf01f5e3-aef3-4c6e-a96d-8f59e70c04fa" d="M43.56,170.53c0-.86-.7-1.56-1.56-1.56s-1.56,.7-1.56,1.56c0,5.97-2.72,9.21-5.73,10.13v-16.5c0-.99-.81-1.8-1.8-1.8h0c-.99,0-1.8,.81-1.8,1.8v16.5c-3.01-.91-5.73-4.16-5.73-10.13,0-.86-.7-1.56-1.56-1.56s-1.56,.7-1.56,1.56c0,4.07,1.11,7.52,3.21,9.98,1.53,1.79,3.49,2.94,5.63,3.35v30.03h3.6v-30.04c4.64-.93,8.85-5.47,8.85-13.33Z"/></g><g><path class="uuid-35b5832a-5382-4a3c-a88f-cd2784a42a8b" d="M156.49,49c.99,0,1.93,.28,2.79,.78,3.35-6.42,7.63-10.3,12.32-10.3,4.23,0,8.13,3.15,11.31,8.47,2.08-1.17,4.38-1.84,6.81-1.84,4.1,0,7.85,1.88,10.76,4.96,1.24-1.29,2.75-2.07,4.39-2.07,2.03,0,3.87,1.17,5.22,3.06h-58.82c1.35-1.89,3.19-3.06,5.22-3.06Z"/><path class="uuid-35b5832a-5382-4a3c-a88f-cd2784a42a8b" d="M282.97,141.64c.86,0,1.68,.24,2.44,.68,2.92-5.61,6.67-9,10.77-9,3.69,0,7.1,2.75,9.88,7.4,1.82-1.02,3.83-1.61,5.95-1.61,3.59,0,6.86,1.64,9.41,4.33,1.08-1.13,2.4-1.81,3.84-1.81,1.77,0,3.38,1.02,4.56,2.67h-51.4c1.18-1.65,2.79-2.67,4.56-2.67Z"/><path class="uuid-35b5832a-5382-4a3c-a88f-cd2784a42a8b" d="M246.93,30.36c-.86,0-1.68,.24-2.44,.68-2.92-5.61-6.67-9-10.77-9-3.69,0-7.1,2.75-9.88,7.4-1.82-1.02-3.83-1.61-5.95-1.61-3.59,0-6.86,1.64-9.41,4.33-1.08-1.13-2.4-1.81-3.84-1.81-1.77,0-3.38,1.02-4.56,2.67h51.4c-1.18-1.65-2.79-2.67-4.56-2.67Z"/><path class="uuid-35b5832a-5382-4a3c-a88f-cd2784a42a8b" d="M18.22,110.08c1.29,0,2.51,.37,3.64,1.02,4.37-8.38,9.97-13.45,16.09-13.45,5.51,0,10.61,4.11,14.76,11.05,2.72-1.53,5.73-2.39,8.9-2.39,5.36,0,10.26,2.44,14.07,6.47,1.61-1.68,3.58-2.69,5.73-2.69,2.65,0,5.05,1.53,6.82,4H11.4c1.77-2.47,4.17-4,6.82-4Z"/><path class="uuid-35b5832a-5382-4a3c-a88f-cd2784a42a8b" d="M100.54,79.26c0-1.21,.98-2.18,2.18-2.18s2.18,.98,2.18,2.18-.98,2.18-2.18,2.18-2.18-.98-2.18-2.18Z"/><circle class="uuid-35b5832a-5382-4a3c-a88f-cd2784a42a8b" cx="62.32" cy="34.88" r="2.67"/></g><g><path class="uuid-35b5832a-5382-4a3c-a88f-cd2784a42a8b" d="M329.02,19.09c-1.17,0-2.29,.33-3.32,.93-3.98-7.64-9.09-12.27-14.67-12.27-5.03,0-9.68,3.75-13.46,10.09-2.48-1.4-5.22-2.19-8.11-2.19-4.89,0-9.34,2.23-12.82,5.9-1.47-1.54-3.27-2.46-5.23-2.46-2.42,0-4.61,1.39-6.22,3.64h70.04c-1.61-2.25-3.8-3.64-6.22-3.64Z"/><path class="uuid-35b5832a-5382-4a3c-a88f-cd2784a42a8b" d="M290.97,102.87c-1.53,0-2.99,.44-4.33,1.21-5.2-9.98-11.87-16.02-19.16-16.02-6.57,0-12.63,4.89-17.57,13.16-3.24-1.82-6.82-2.85-10.6-2.85-6.38,0-12.21,2.91-16.75,7.7-1.92-2.01-4.27-3.21-6.82-3.21-3.16,0-6.02,1.82-8.12,4.76h91.48c-2.1-2.94-4.96-4.76-8.12-4.76Z"/><circle class="uuid-35b5832a-5382-4a3c-a88f-cd2784a42a8b" cx="327.25" cy="60.71" r="8.58" transform="translate(-5.38 49.17) rotate(-8.52)"/><path class="uuid-35b5832a-5382-4a3c-a88f-cd2784a42a8b" d="M242.08,55.31c0-1.76-1.42-3.18-3.18-3.18s-3.18,1.42-3.18,3.18,1.42,3.18,3.18,3.18,3.18-1.42,3.18-3.18Z"/></g><path class="uuid-4bce89fa-4fab-4709-bb41-d8fbe789cc7f" d="M275.65,214.02h-100.36l45.25-66.34c1.19-1.74,3.05-2.61,4.93-2.61s3.76,.88,4.94,2.61l45.24,66.34Z"/><path class="uuid-7c9a5767-240a-48ff-b6ef-824f94802ba8" d="M204.67,214.02H44.86L116.68,105.4c1.92-2.9,5-4.34,8.08-4.34s6.16,1.44,8.08,4.34l71.75,108.5,.08,.13Z"/><g><path class="uuid-d82e2d93-3838-487e-924d-411598564b76" d="M319.09,177.85s0,0,0,0c0,0,0-.01,0-.02,0-.65-.04-1.3-.1-1.94-.02-.24-.06-.48-.09-.72-.05-.39-.1-.77-.18-1.15-.06-.3-.12-.6-.19-.9-.07-.29-.14-.58-.22-.86-.1-.35-.2-.7-.31-1.04-.06-.17-.12-.33-.18-.5-.72-1.98-1.72-3.82-2.97-5.47,2.45-.58,3.56-2.68,3.56-2.68-1.94-.86-3.55-.63-4.79-.07,1.52-2.32,.62-4.79,.62-4.79-1.98,.88-2.89,2.27-3.29,3.59-1.7-1.31-3.6-2.36-5.65-3.11-.13-.05-.25-.1-.38-.14-.4-.13-.8-.25-1.2-.37-.22-.06-.44-.12-.66-.17-.37-.09-.73-.17-1.11-.24-.28-.05-.56-.09-.85-.13-.34-.05-.68-.1-1.03-.13-.37-.03-.74-.04-1.11-.06-.26,0-.52-.04-.78-.04-11.55,0-20.92,9.37-20.92,20.92s9.37,20.92,20.92,20.92c0,0,0,0,0,0h0c.07,0,.13,0,.2-.01,.65,0,1.3-.03,1.93-.1,.26-.03,.52-.08,.78-.12,8.49-1.19,15.34-7.47,17.36-15.66,.4-1.61,.63-3.29,.63-5.03,0,0,0,0,0,0Z"/><path class="uuid-49990cd5-2f2e-4ab9-a7a8-af2b46cce865" d="M290.56,189.25c.45-.51,1.24-.57,1.75-.11l4.62,4.04v-5.61c0-.68,.56-1.24,1.24-1.24s1.24,.56,1.24,1.24v1.87l1.58-1.39c.51-.45,1.29-.4,1.75,.12,.2,.24,.3,.52,.3,.81,0,.35-.14,.7-.42,.95l-3.21,2.81v19.93h-2.49v-16.16l-6.26-5.5c-.27-.25-.42-.58-.42-.93,0-.29,.11-.59,.31-.82Z"/></g><g><path class="uuid-d82e2d93-3838-487e-924d-411598564b76" d="M230.04,212.53h-93.08l19.5-33.79,10.53-18.25,3.18-5.51c5.92-10.25,20.72-10.25,26.64,0l3.18,5.51,30.04,52.04Z"/><path class="uuid-d82e2d93-3838-487e-924d-411598564b76" d="M183.51,147.29v65.24h-46.55l33.23-57.55c2.96-5.13,8.15-7.69,13.32-7.69Z"/><path class="uuid-1a6671e5-7999-43cf-b138-7e891b73fab8" d="M200,160.49c-1.69,1.18-3.76,1.87-5.98,1.87-1.91,0-3.71-.52-5.25-1.42-1.55,.9-3.34,1.42-5.25,1.42s-3.71-.52-5.25-1.42c-1.55,.9-3.34,1.42-5.26,1.42-2.22,0-4.29-.69-5.98-1.87l3.18-5.51c5.92-10.25,20.71-10.25,26.63,0l3.18,5.51Z"/><path class="uuid-1a6671e5-7999-43cf-b138-7e891b73fab8" d="M183.51,147.29v15.07c-1.91,0-3.71-.52-5.25-1.42-1.55,.9-3.34,1.42-5.26,1.42-2.22,0-4.29-.69-5.98-1.87l3.18-5.51c2.96-5.13,8.15-7.69,13.32-7.69Z"/></g><g><rect class="uuid-1a6671e5-7999-43cf-b138-7e891b73fab8" x="195.61" y="100.41" width="2.71" height="7.63"/><rect class="uuid-c94e79cf-302e-4e4c-9ccf-6ec5ab6b7531" x="196.97" y="100.41" width="1.35" height="7.63"/><g><rect class="uuid-1a6671e5-7999-43cf-b138-7e891b73fab8" x="195.22" y="85.6" width="3.5" height="9.1"/><rect class="uuid-c94e79cf-302e-4e4c-9ccf-6ec5ab6b7531" x="196.96" y="85.6" width="1.75" height="9.1"/><path class="uuid-260e5f7a-d4ad-4e2a-9335-1e37a308c34e" d="M199.47,48.28c-.07-1.41-1.21-2.51-2.57-2.5-1.36,0-2.5,1.1-2.56,2.51l-1.57,35.84c-.11,2.55,1.39,4.72,3.33,4.72h1.75c1.94,0,3.44-2.17,3.32-4.73l-1.7-35.85Z"/><path class="uuid-1a6671e5-7999-43cf-b138-7e891b73fab8" d="M196.96,45.77v43.07h-.87c-1.94,0-3.45-2.16-3.33-4.72l1.56-35.84c.06-1.42,1.2-2.52,2.56-2.52h.07Z"/></g><g><rect class="uuid-1a6671e5-7999-43cf-b138-7e891b73fab8" x="201.84" y="95.81" width="3.5" height="9.1" transform="translate(372.96 -50.76) rotate(112.02)"/><rect class="uuid-c94e79cf-302e-4e4c-9ccf-6ec5ab6b7531" x="202.39" y="96.62" width="1.75" height="9.1" transform="translate(373.26 -49.34) rotate(112.01)"/><path class="uuid-260e5f7a-d4ad-4e2a-9335-1e37a308c34e" d="M241.47,118.38c1.33,.47,2.78-.18,3.29-1.45,.51-1.27-.08-2.73-1.37-3.32l-32.64-14.89c-2.33-1.06-4.9-.48-5.63,1.32l-.65,1.62c-.73,1.8,.72,4,3.14,4.85l33.87,11.86Z"/><path class="uuid-1a6671e5-7999-43cf-b138-7e891b73fab8" d="M244.74,117l-39.93-16.15,.33-.81c.73-1.8,3.29-2.39,5.62-1.32l32.64,14.88c1.29,.59,1.89,2.06,1.37,3.32l-.03,.07Z"/></g><g><rect class="uuid-1a6671e5-7999-43cf-b138-7e891b73fab8" x="188.59" y="95.81" width="3.5" height="9.1" transform="translate(212.03 -113.72) rotate(67.98)"/><rect class="uuid-c94e79cf-302e-4e4c-9ccf-6ec5ab6b7531" x="189.79" y="96.62" width="1.75" height="9.1" transform="translate(212.98 -113.52) rotate(67.98)"/><path class="uuid-260e5f7a-d4ad-4e2a-9335-1e37a308c34e" d="M152.46,118.38c-1.33,.47-2.78-.18-3.29-1.45-.51-1.27,.08-2.73,1.37-3.32l32.64-14.89c2.33-1.06,4.9-.48,5.63,1.32l.65,1.62c.73,1.8-.72,4-3.14,4.85l-33.87,11.86Z"/><path class="uuid-1a6671e5-7999-43cf-b138-7e891b73fab8" d="M149.2,117l39.93-16.15-.33-.81c-.73-1.8-3.29-2.39-5.62-1.32l-32.64,14.88c-1.29,.59-1.89,2.06-1.37,3.32l.03,.07Z"/></g><path class="uuid-1a6671e5-7999-43cf-b138-7e891b73fab8" d="M202.29,213.9h-10.66l2.61-105.68c.03-1.48,1.25-2.66,2.72-2.66s2.69,1.19,2.72,2.66l2.61,105.68Z"/><path class="uuid-260e5f7a-d4ad-4e2a-9335-1e37a308c34e" d="M202.29,213.9h-5.33V105.55c1.48,0,2.69,1.19,2.72,2.66l2.61,105.68Z"/><path class="uuid-62906064-ac9c-4e56-a2ab-c5988ffb40d2" d="M201.72,97.19c0,2.63-2.13,4.76-4.76,4.76s-4.75-2.13-4.75-4.76,2.13-4.76,4.75-4.76,4.76,2.13,4.76,4.76Z"/><path class="uuid-2adca50c-c2f4-4e5a-a85e-ef036434f7b7" d="M199.8,97.19c0,1.57-1.27,2.84-2.84,2.84s-2.84-1.27-2.84-2.84,1.27-2.84,2.84-2.84,2.84,1.27,2.84,2.84Z"/></g><g><rect class="uuid-1a6671e5-7999-43cf-b138-7e891b73fab8" x="135.11" y="127.87" width="2.05" height="5.79"/><rect class="uuid-c94e79cf-302e-4e4c-9ccf-6ec5ab6b7531" x="136.13" y="127.87" width="1.03" height="5.79"/><g><rect class="uuid-1a6671e5-7999-43cf-b138-7e891b73fab8" x="134.81" y="116.64" width="2.65" height="6.9"/><rect class="uuid-c94e79cf-302e-4e4c-9ccf-6ec5ab6b7531" x="136.13" y="116.64" width="1.33" height="6.9"/><path class="uuid-260e5f7a-d4ad-4e2a-9335-1e37a308c34e" d="M138.03,88.35c-.05-1.07-.92-1.9-1.95-1.9-1.03,0-1.9,.84-1.94,1.9l-1.19,27.17c-.08,1.94,1.06,3.58,2.53,3.58h1.33c1.47,0,2.61-1.65,2.52-3.58l-1.29-27.17Z"/><path class="uuid-1a6671e5-7999-43cf-b138-7e891b73fab8" d="M136.13,86.45v32.65h-.66c-1.47,0-2.61-1.64-2.52-3.58l1.19-27.17c.04-1.08,.91-1.91,1.94-1.91h.05Z"/></g><g><rect class="uuid-1a6671e5-7999-43cf-b138-7e891b73fab8" x="139.83" y="124.38" width="2.65" height="6.9" transform="translate(312.58 44.89) rotate(112.02)"/><rect class="uuid-c94e79cf-302e-4e4c-9ccf-6ec5ab6b7531" x="140.24" y="125" width="1.33" height="6.9" transform="translate(312.82 45.98) rotate(112.02)"/><path class="uuid-260e5f7a-d4ad-4e2a-9335-1e37a308c34e" d="M169.87,141.49c1.01,.35,2.1-.14,2.49-1.1,.39-.96-.06-2.07-1.04-2.51l-24.75-11.29c-1.76-.8-3.71-.36-4.26,1l-.5,1.23c-.55,1.37,.55,3.03,2.38,3.67l25.68,8.99Z"/><path class="uuid-1a6671e5-7999-43cf-b138-7e891b73fab8" d="M172.35,140.45l-30.27-12.24,.25-.61c.55-1.36,2.5-1.81,4.26-1l24.74,11.28c.98,.44,1.43,1.56,1.04,2.52l-.02,.05Z"/></g><g><rect class="uuid-1a6671e5-7999-43cf-b138-7e891b73fab8" x="129.78" y="124.38" width="2.65" height="6.9" transform="translate(200.48 -41.63) rotate(67.98)"/><rect class="uuid-c94e79cf-302e-4e4c-9ccf-6ec5ab6b7531" x="130.69" y="125" width="1.33" height="6.9" transform="translate(201.18 -41.49) rotate(67.98)"/><path class="uuid-260e5f7a-d4ad-4e2a-9335-1e37a308c34e" d="M102.39,141.49c-1.01,.35-2.1-.14-2.49-1.1-.39-.96,.06-2.07,1.04-2.51l24.75-11.29c1.76-.8,3.71-.36,4.26,1l.5,1.23c.55,1.37-.55,3.03-2.38,3.67l-25.68,8.99Z"/><path class="uuid-1a6671e5-7999-43cf-b138-7e891b73fab8" d="M99.92,140.45l30.27-12.24-.25-.61c-.55-1.36-2.5-1.81-4.26-1l-24.74,11.28c-.98,.44-1.43,1.56-1.04,2.52l.02,.05Z"/></g><path class="uuid-1a6671e5-7999-43cf-b138-7e891b73fab8" d="M140.17,213.91h-8.08l1.98-80.12c.02-1.12,.94-2.02,2.06-2.02s2.04,.9,2.06,2.02l1.98,80.12Z"/><path class="uuid-260e5f7a-d4ad-4e2a-9335-1e37a308c34e" d="M140.17,213.91h-4.04v-82.14c1.12,0,2.04,.9,2.06,2.02l1.98,80.12Z"/><path class="uuid-62906064-ac9c-4e56-a2ab-c5988ffb40d2" d="M139.74,125.43c0,1.99-1.61,3.6-3.6,3.6s-3.6-1.61-3.6-3.6,1.61-3.6,3.6-3.6,3.6,1.61,3.6,3.6Z"/><path class="uuid-2adca50c-c2f4-4e5a-a85e-ef036434f7b7" d="M138.28,125.43c0,1.19-.96,2.15-2.15,2.15s-2.15-.96-2.15-2.15,.96-2.15,2.15-2.15,2.15,.96,2.15,2.15Z"/></g><g><rect class="uuid-1a6671e5-7999-43cf-b138-7e891b73fab8" x="252.15" y="146.1" width="1.62" height="4.56"/><rect class="uuid-c94e79cf-302e-4e4c-9ccf-6ec5ab6b7531" x="252.96" y="146.1" width=".81" height="4.56"/><g><rect class="uuid-1a6671e5-7999-43cf-b138-7e891b73fab8" x="251.91" y="137.25" width="2.09" height="5.44"/><rect class="uuid-c94e79cf-302e-4e4c-9ccf-6ec5ab6b7531" x="252.96" y="137.25" width="1.05" height="5.44"/><path class="uuid-260e5f7a-d4ad-4e2a-9335-1e37a308c34e" d="M254.45,114.95c-.04-.84-.72-1.5-1.54-1.5-.82,0-1.49,.66-1.53,1.5l-.94,21.42c-.07,1.53,.83,2.82,1.99,2.82h1.04c1.16,0,2.05-1.3,1.98-2.82l-1.02-21.42Z"/><path class="uuid-1a6671e5-7999-43cf-b138-7e891b73fab8" d="M252.96,113.46v25.74h-.52c-1.16,0-2.06-1.29-1.99-2.82l.93-21.41c.03-.85,.72-1.51,1.53-1.51h.04Z"/></g><g><rect class="uuid-1a6671e5-7999-43cf-b138-7e891b73fab8" x="255.87" y="143.36" width="2.09" height="5.44" transform="translate(488.66 -37.34) rotate(112.02)"/><rect class="uuid-c94e79cf-302e-4e4c-9ccf-6ec5ab6b7531" x="256.2" y="143.84" width="1.05" height="5.44" transform="translate(488.83 -36.51) rotate(112.02)"/><path class="uuid-260e5f7a-d4ad-4e2a-9335-1e37a308c34e" d="M279.55,156.84c.79,.28,1.66-.11,1.96-.86,.3-.76-.05-1.63-.82-1.98l-19.5-8.9c-1.39-.63-2.93-.29-3.36,.79l-.39,.97c-.43,1.08,.43,2.39,1.87,2.9l20.24,7.09Z"/><path class="uuid-1a6671e5-7999-43cf-b138-7e891b73fab8" d="M281.5,156.01l-23.86-9.65,.19-.48c.43-1.07,1.97-1.43,3.36-.79l19.5,8.89c.77,.35,1.13,1.23,.82,1.98l-.02,.04Z"/></g><g><rect class="uuid-1a6671e5-7999-43cf-b138-7e891b73fab8" x="247.96" y="143.36" width="2.09" height="5.44" transform="translate(291.08 -139.53) rotate(67.98)"/><rect class="uuid-c94e79cf-302e-4e4c-9ccf-6ec5ab6b7531" x="248.67" y="143.84" width="1.05" height="5.44" transform="translate(291.66 -139.41) rotate(67.98)"/><path class="uuid-260e5f7a-d4ad-4e2a-9335-1e37a308c34e" d="M226.37,156.84c-.79,.28-1.66-.11-1.96-.86-.3-.76,.05-1.63,.82-1.98l19.5-8.9c1.39-.63,2.93-.29,3.36,.79l.39,.97c.43,1.08-.43,2.39-1.87,2.9l-20.24,7.09Z"/><path class="uuid-1a6671e5-7999-43cf-b138-7e891b73fab8" d="M224.42,156.01l23.86-9.65-.19-.48c-.43-1.07-1.97-1.43-3.36-.79l-19.5,8.89c-.77,.35-1.13,1.23-.82,1.98l.02,.04Z"/></g><path class="uuid-1a6671e5-7999-43cf-b138-7e891b73fab8" d="M256.14,213.91h-6.37l1.56-63.14c.02-.88,.74-1.59,1.63-1.59s1.61,.71,1.63,1.59l1.56,63.14Z"/><path class="uuid-260e5f7a-d4ad-4e2a-9335-1e37a308c34e" d="M256.14,213.91h-3.18v-64.73c.88,0,1.61,.71,1.63,1.59l1.56,63.14Z"/><path class="uuid-62906064-ac9c-4e56-a2ab-c5988ffb40d2" d="M255.8,144.18c0,1.57-1.27,2.84-2.84,2.84s-2.84-1.27-2.84-2.84,1.27-2.84,2.84-2.84,2.84,1.27,2.84,2.84Z"/><path class="uuid-2adca50c-c2f4-4e5a-a85e-ef036434f7b7" d="M254.65,144.18c0,.94-.76,1.69-1.69,1.69s-1.69-.76-1.69-1.69,.76-1.69,1.69-1.69,1.69,.76,1.69,1.69Z"/></g><g><path class="uuid-1a6671e5-7999-43cf-b138-7e891b73fab8" d="M327.14,85.01c0,6.27-3.76,11.65-9.15,14.03-.14,.06-.29,.14-.42,.22-.36,.22-.67,.52-.91,.85-.31,.43-.52,.95-.59,1.5l-.23,1.8c-.73,.24-1.48,.41-2.23,.51-.34,.05-.69,.08-1.03,.1-.25,.02-.5,.02-.75,.02h-.02c-.24,0-.49,0-.73-.02-.19,0-.37-.01-.56-.04-.31-.04-.6-.07-.89-.13h0c-.61-.1-1.22-.25-1.82-.44l-.24-1.8s0-.05,0-.06c-.08-.53-.28-1.02-.58-1.43-.1-.13-.21-.26-.32-.38,0,0,0,0,0,0,0,0,0,0,0,0,0,0,0,0,0-.01-.18-.18-.37-.33-.58-.46-.13-.08-.27-.15-.41-.22-.1-.04-.19-.09-.29-.13-.09-.04-.19-.09-.28-.14-.75-.37-1.46-.79-2.13-1.27-.82-.58-1.58-1.24-2.27-1.97h0c-2.54-2.69-4.12-6.31-4.18-10.29-.02-1.44,.16-2.84,.52-4.17,.61-2.27,1.73-4.35,3.24-6.08,.33-.38,.68-.74,1.04-1.09,.52-.49,1.07-.94,1.65-1.36,0,0,0,0,0,0,.83-.59,1.73-1.11,2.67-1.53,.47-.21,.95-.4,1.45-.56,.18-.06,.35-.11,.53-.16h0c.76-.22,1.55-.38,2.35-.48,.11-.01,.22-.03,.33-.04h0c.37-.04,.75-.06,1.14-.07,.03,0,.06,0,.1,0,.1,0,.2,0,.29,0,.05,0,.09,0,.14,0,.47,0,.94,.03,1.4,.08,.11,.01,.23,.02,.34,.04,.79,.1,1.57,.25,2.32,.47h0c2.39,.68,4.54,1.92,6.31,3.58,2.05,1.92,3.56,4.4,4.31,7.2h0c.34,1.27,.52,2.6,.52,3.97Z"/><path class="uuid-817fc6fd-8786-4fca-8ed6-64bf2612148c" d="M311.07,104.02c-.09,0-.19,0-.28,0-.09,0-.19-.02-.28-.03-.31-.04-.6-.07-.89-.13h0c-.61-.1-1.22-.25-1.82-.44l-.24-1.8s0-.05,0-.06c-.08-.53-.28-1.02-.58-1.43-.1-.13-.21-.26-.32-.38,0,0,0,0,0,0,0,0,0,0,0,0,0,0,0,0,0-.01-.18-.18-.37-.33-.58-.46-.13-.08-.27-.15-.41-.22-.04-.02-.08-.04-.12-.05-.07-.07-.13-.13-.19-.2-2.61-7.48-5.74-20.73,1.72-28.32,.01,0,.01-.01,.01-.01,.18-.06,.35-.11,.53-.16h0c.76-.22,1.55-.38,2.35-.48,.11-.01,.22-.03,.33-.04h0s0,0,0,0c-.12,.22-6.15,11.38,.79,34.25Z"/><path class="uuid-817fc6fd-8786-4fca-8ed6-64bf2612148c" d="M302.95,97.51s0,0,0,0c-3.84-2.74-6.37-7.2-6.45-12.26-.02-1.44,.16-2.84,.52-4.17,.74-2.77,2.25-5.24,4.28-7.17,.51-.49,1.07-.94,1.64-1.36,0,0,0,0,0,0-.33,.38-8.32,9.85,.02,24.95Z"/><path class="uuid-817fc6fd-8786-4fca-8ed6-64bf2612148c" d="M312.58,104.02h0c.19,0,.37-.01,.56-.04,.31-.04,.6-.07,.89-.13h0c.61-.1,1.22-.25,1.82-.44l.24-1.8s0-.05,0-.07c.08-.53,.28-1.02,.58-1.43,.1-.13,.2-.26,.32-.38,0,0,0,0,0,0,0,0,0,0,0,0,0,0,0,0,.01-.01,.18-.18,.37-.33,.58-.46,.17-.11,.34-.19,.53-.27,.07-.07,.13-.13,.19-.2,2.61-7.48,5.74-20.75-1.74-28.34-.18-.06-.36-.11-.53-.16h0c-.76-.22-1.54-.38-2.35-.48-.11-.01-.22-.03-.33-.04h0s6.23,11.15-.78,34.25Z"/><path class="uuid-817fc6fd-8786-4fca-8ed6-64bf2612148c" d="M320.72,97.51c3.85-2.74,6.37-7.2,6.45-12.27,.02-1.44-.16-2.84-.52-4.17-.74-2.77-2.25-5.24-4.28-7.17-.52-.49-1.07-.94-1.65-1.36,.17,.2,8.42,9.7,0,24.96Z"/><path class="uuid-1a6671e5-7999-43cf-b138-7e891b73fab8" d="M315.6,104.16h-7.59c-.26,0-.47-.21-.47-.47h0c0-.26,.21-.47,.47-.47h7.59c.26,0,.47,.21,.47,.47h0c0,.26-.21,.47-.47,.47Z"/><path class="uuid-62906064-ac9c-4e56-a2ab-c5988ffb40d2" d="M326.34,90.68c-.21-.09-5.37-2.13-14.52-2.13-9,0-14.46,2.11-14.51,2.13-.17,.07-.25,.26-.19,.43,.05,.13,.18,.21,.31,.21,.04,0,.08,0,.12-.02,0,0,.06-.02,.15-.05l11.47,20.78h-.37c-.06,0-.11,.05-.11,.11v.03c0,.06,.05,.11,.11,.11h.16v1.87c0,1.27,1.03,2.3,2.3,2.3h1.14c.37,0,.72-.09,1.03-.25,.75-.38,1.26-1.15,1.26-2.05v-1.87h.16c.06,0,.11-.05,.11-.11v-.03c0-.06-.05-.11-.11-.11h-.41l11.47-20.79c.11,.04,.18,.07,.18,.07,.17,.07,.36-.01,.43-.18,.07-.17-.01-.36-.18-.43Zm-14.65,21.34h-.91l-6.24-22.32c2.01-.28,4.41-.48,7.15-.49v22.81Zm.27,0v-22.81c2.74,0,5.12,.2,7.11,.47l-6.24,22.34h-.87Zm-14-20.86c.84-.28,3.03-.94,6.31-1.41l6.23,22.28h-1.03s-11.51-20.86-11.51-20.86Zm16.18,20.86h-1.03s6.23-22.3,6.23-22.3c3.29,.47,5.45,1.12,6.32,1.41l-11.52,20.88Z"/></g><g><path class="uuid-6b25ee59-1ffd-4d84-a113-d5dc64213010" d="M110.5,51.16c0,9.12-5.47,16.95-13.31,20.41-.21,.09-.41,.2-.61,.32-.52,.33-.97,.75-1.33,1.24-.46,.63-.76,1.38-.86,2.18l-.34,2.62c-1.07,.34-2.15,.59-3.25,.74-.5,.07-1,.12-1.5,.15-.36,.02-.73,.03-1.09,.03h-.03c-.35,0-.71-.01-1.06-.03-.27,0-.54-.02-.81-.05-.45-.06-.87-.11-1.3-.18h0c-.89-.15-1.78-.37-2.64-.65l-.34-2.62s0-.07-.01-.09c-.11-.76-.41-1.48-.85-2.09-.14-.19-.3-.38-.47-.55,0,0,0,0,0,0,0,0,0,0,0,0,0,0,0,0-.01-.02-.26-.26-.54-.48-.85-.67-.19-.12-.39-.22-.6-.32-.14-.06-.28-.13-.42-.19-.14-.07-.27-.13-.41-.2-1.09-.53-2.12-1.15-3.1-1.85-1.19-.85-2.3-1.81-3.3-2.87h0c-3.7-3.92-6-9.18-6.08-14.97-.03-2.09,.23-4.13,.75-6.06,.89-3.31,2.52-6.33,4.71-8.85,.48-.55,.98-1.08,1.51-1.58,.75-.71,1.55-1.37,2.4-1.98,0,0,0,0,0,0,1.21-.86,2.51-1.62,3.89-2.23,.68-.31,1.39-.58,2.1-.81,.26-.08,.52-.16,.78-.24h0c1.11-.32,2.25-.56,3.42-.7,.16-.02,.32-.04,.48-.05h0c.54-.06,1.1-.09,1.65-.1,.05,0,.09,0,.14,0,.14,0,.29,0,.43,0,.07,0,.13,0,.2,0,.68,0,1.37,.04,2.04,.11,.17,.02,.33,.03,.49,.05,1.15,.14,2.28,.37,3.37,.68h0c3.48,.98,6.61,2.79,9.18,5.2,2.98,2.8,5.18,6.41,6.27,10.47h0c.49,1.84,.76,3.78,.76,5.77Z"/><path class="uuid-efd50f26-e485-44a7-b081-e46a4a245b5c" d="M87.12,78.81c-.14,0-.27,0-.41-.01-.13,0-.27-.02-.4-.04-.45-.06-.87-.11-1.3-.18h0c-.89-.15-1.78-.37-2.64-.65l-.34-2.62s0-.07-.01-.09c-.11-.76-.41-1.48-.85-2.09-.14-.19-.3-.38-.47-.55,0,0,0,0,0,0,0,0,0,0,0,0,0,0,0,0-.01-.02-.26-.26-.54-.48-.85-.67-.19-.12-.39-.22-.6-.32-.06-.03-.12-.05-.17-.07-.1-.1-.18-.18-.28-.29-3.8-10.88-8.35-30.16,2.5-41.21,.02-.01,.02-.02,.02-.02,.26-.08,.52-.16,.78-.24h0c1.11-.32,2.25-.56,3.42-.7,.16-.02,.32-.04,.48-.05h0s0,0,0,0c-.18,.32-8.95,16.56,1.15,49.83Z"/><path class="uuid-efd50f26-e485-44a7-b081-e46a4a245b5c" d="M75.31,69.33s0,0,0,0c-5.59-3.98-9.27-10.48-9.38-17.84-.03-2.09,.23-4.13,.75-6.06,1.08-4.03,3.27-7.63,6.22-10.43,.75-.71,1.55-1.37,2.39-1.98,0,0,0,0,0,0-.48,.56-12.11,14.34,.02,36.3Z"/><path class="uuid-efd50f26-e485-44a7-b081-e46a4a245b5c" d="M89.31,78.81h0c.27,0,.54-.02,.81-.05,.45-.06,.87-.11,1.29-.18h0c.89-.15,1.78-.37,2.64-.65l.34-2.62s0-.07,.01-.09c.11-.76,.41-1.48,.85-2.09,.14-.2,.3-.38,.47-.55,0,0,0,0,0,0,0,0,0,0,0,0,0,0,0,0,.02-.02,.26-.26,.54-.48,.85-.67,.24-.15,.5-.28,.77-.39,.1-.1,.18-.19,.28-.29,3.8-10.89,8.34-30.19-2.53-41.23-.26-.09-.52-.16-.78-.24h0c-1.11-.32-2.25-.56-3.42-.7-.16-.02-.32-.04-.48-.05h0s9.06,16.23-1.13,49.83Z"/><path class="uuid-efd50f26-e485-44a7-b081-e46a4a245b5c" d="M101.16,69.33c5.6-3.98,9.27-10.48,9.38-17.85,.03-2.09-.23-4.13-.75-6.06-1.08-4.03-3.27-7.63-6.23-10.43-.75-.71-1.55-1.37-2.4-1.98,.25,.29,12.25,14.12,0,36.31Z"/><path class="uuid-1a6671e5-7999-43cf-b138-7e891b73fab8" d="M93.71,79.02h-11.05c-.37,0-.68-.3-.68-.68h0c0-.37,.3-.68,.68-.68h11.05c.37,0,.68,.3,.68,.68h0c0,.37-.3,.68-.68,.68Z"/><path class="uuid-62906064-ac9c-4e56-a2ab-c5988ffb40d2" d="M109.33,59.4c-.31-.13-7.81-3.1-21.12-3.1-13.1,0-21.04,3.07-21.12,3.1-.25,.1-.37,.38-.27,.63,.08,.19,.26,.31,.45,.31,.06,0,.12-.01,.18-.03,0,0,.09-.03,.22-.08l16.68,30.23h-.53c-.09,0-.17,.07-.17,.17v.04c0,.09,.07,.17,.17,.17h.23v2.72c0,1.85,1.5,3.34,3.34,3.34h1.65c.54,0,1.05-.13,1.5-.36,1.09-.55,1.84-1.68,1.84-2.99v-2.72h.23c.09,0,.17-.07,.17-.17v-.04c0-.09-.07-.17-.17-.17h-.59s16.69-30.25,16.69-30.25c.15,.06,.26,.09,.26,.1,.25,.1,.53-.02,.63-.27,.1-.25-.02-.53-.27-.63Zm-21.31,31.05h-1.33s-9.08-32.47-9.08-32.47c2.92-.4,6.42-.7,10.41-.71v33.18Zm.39,0V57.27c3.98,0,7.45,.29,10.35,.69l-9.08,32.5h-1.27Zm-20.37-30.36c1.23-.41,4.41-1.37,9.19-2.06l9.07,32.42h-1.5s-16.75-30.36-16.75-30.36Zm23.54,30.36h-1.5s9.07-32.44,9.07-32.44c4.79,.68,7.93,1.63,9.19,2.06l-16.76,30.38Z"/></g><g><g><rect class="uuid-1a6671e5-7999-43cf-b138-7e891b73fab8" x="65.95" y="204.73" width="3.68" height="7.18"/><rect class="uuid-7bec684f-7c1e-4266-8cb7-0372bb8f0bf8" x="67.79" y="204.73" width="1.84" height="7.18"/><rect class="uuid-27af99df-8eb5-457d-8e2f-18ded89860e4" x="49.72" y="183.5" width="36.29" height="24.68"/><rect class="uuid-0894d577-0554-40a2-b1df-fa687cebd4c6" x="51.02" y="184.71" width="10.33" height="10.33"/><rect class="uuid-0894d577-0554-40a2-b1df-fa687cebd4c6" x="62.62" y="184.71" width="10.33" height="10.33"/><rect class="uuid-0894d577-0554-40a2-b1df-fa687cebd4c6" x="74.23" y="184.71" width="10.33" height="10.33"/><rect class="uuid-0894d577-0554-40a2-b1df-fa687cebd4c6" x="51.02" y="196.45" width="10.33" height="10.33"/><rect class="uuid-0894d577-0554-40a2-b1df-fa687cebd4c6" x="62.62" y="196.45" width="10.33" height="10.33"/><rect class="uuid-0894d577-0554-40a2-b1df-fa687cebd4c6" x="74.23" y="196.45" width="10.33" height="10.33"/><polygon class="uuid-524cf0e3-9085-44c6-85d3-dd3485502209" points="69.92 208.19 49.72 208.19 49.72 183.5 65.31 183.5 69.92 208.19"/><rect class="uuid-7bec684f-7c1e-4266-8cb7-0372bb8f0bf8" x="65.2" y="211.91" width="5.19" height=".61"/><rect class="uuid-92c037bd-0750-4059-837b-5bde005fe762" x="67.79" y="211.91" width="2.59" height=".61"/></g><g><rect class="uuid-1a6671e5-7999-43cf-b138-7e891b73fab8" x="110.14" y="204.73" width="3.68" height="7.18"/><rect class="uuid-7bec684f-7c1e-4266-8cb7-0372bb8f0bf8" x="111.98" y="204.73" width="1.84" height="7.18"/><rect class="uuid-27af99df-8eb5-457d-8e2f-18ded89860e4" x="93.9" y="183.5" width="36.29" height="24.68"/><rect class="uuid-0894d577-0554-40a2-b1df-fa687cebd4c6" x="95.2" y="184.71" width="10.33" height="10.33"/><rect class="uuid-0894d577-0554-40a2-b1df-fa687cebd4c6" x="106.81" y="184.71" width="10.33" height="10.33"/><rect class="uuid-0894d577-0554-40a2-b1df-fa687cebd4c6" x="118.41" y="184.71" width="10.33" height="10.33"/><rect class="uuid-0894d577-0554-40a2-b1df-fa687cebd4c6" x="95.2" y="196.45" width="10.33" height="10.33"/><rect class="uuid-fd30a5c2-0629-4cea-b1d1-34d98387a242" x="106.81" y="196.45" width="10.33" height="10.33"/><rect class="uuid-0894d577-0554-40a2-b1df-fa687cebd4c6" x="118.41" y="196.45" width="10.33" height="10.33"/><polygon class="uuid-524cf0e3-9085-44c6-85d3-dd3485502209" points="114.11 208.19 93.9 208.19 93.9 183.5 109.49 183.5 114.11 208.19"/><rect class="uuid-7bec684f-7c1e-4266-8cb7-0372bb8f0bf8" x="109.38" y="211.91" width="5.19" height=".61"/><rect class="uuid-92c037bd-0750-4059-837b-5bde005fe762" x="111.98" y="211.91" width="2.59" height=".61"/></g></g><g><g><path class="uuid-7c9a5767-240a-48ff-b6ef-824f94802ba8" d="M298.06,210.79c0,.6-.09,1.19-.23,1.75h-35.92c-.15-.56-.23-1.14-.23-1.75,0-1.28,.34-2.48,.94-3.52,1.22-2.11,3.49-3.53,6.1-3.53,1.08,0,2.1,.25,3.01,.68,1.02-4.01,4.64-6.98,8.97-6.98,2.55,0,4.85,1.03,6.52,2.69,1.05,1.04,1.85,2.32,2.31,3.77,.48-.1,.98-.16,1.48-.16,3.89,0,7.04,3.15,7.04,7.04Z"/><path class="uuid-d82e2d93-3838-487e-924d-411598564b76" d="M274.31,211.32c0,.42-.06,.83-.16,1.22h-24.99c-.1-.39-.16-.8-.16-1.22,0-.89,.24-1.73,.66-2.45,.85-1.47,2.43-2.45,4.24-2.45,.75,0,1.46,.17,2.1,.47,.71-2.79,3.23-4.86,6.24-4.86,1.77,0,3.38,.71,4.54,1.87,.73,.72,1.29,1.62,1.61,2.62,.33-.07,.68-.11,1.03-.11,2.71,0,4.9,2.19,4.9,4.9Z"/></g><g><path class="uuid-d6f7ac67-fe9b-48d9-97a8-a84abb4dfbeb" d="M227.05,210.95c0,.42-.05,.84-.13,1.24h-45.18c-.81-1.4-1.27-3.04-1.27-4.78,0-5.3,4.3-9.6,9.6-9.6,2.32,0,4.44,.82,6.1,2.18,2.08-3.78,6.1-6.34,10.72-6.34,6.63,0,12.02,5.29,12.21,11.87,.66-.25,1.37-.4,2.12-.4,3.22,0,5.82,2.61,5.82,5.83Z"/><path class="uuid-d82e2d93-3838-487e-924d-411598564b76" d="M235.05,205.12c-.75,0-1.46,.15-2.12,.4-.19-6.58-5.58-11.87-12.21-11.87-4.62,0-8.64,2.56-10.72,6.34-1.66-1.36-3.78-2.18-6.1-2.18-.49,0-.96,.05-1.43,.12,.37-1.7,.21-3.92-1.92-6.04,0,0-1.82,2.12-1.58,4.83-1.02-.96-2.5-1.71-4.67-1.68,0,0,.32,3.59,3.32,5.13-2.03,1.76-3.32,4.35-3.32,7.25,0,1.74,.46,3.37,1.27,4.78h45.18c.09-.4,.13-.81,.13-1.24,0-3.22-2.61-5.83-5.82-5.83Z"/><path class="uuid-7c9a5767-240a-48ff-b6ef-824f94802ba8" d="M220.29,211.45c0,.25-.03,.5-.08,.74h-26.86c-.48-.84-.76-1.81-.76-2.84,0-3.15,2.56-5.71,5.71-5.71,1.38,0,2.64,.49,3.63,1.3,1.24-2.25,3.63-3.77,6.37-3.77,3.94,0,7.14,3.14,7.26,7.06,.39-.15,.81-.24,1.26-.24,1.91,0,3.46,1.55,3.46,3.47Z"/><path class="uuid-7c9a5767-240a-48ff-b6ef-824f94802ba8" d="M184.2,205.61s.14,.88,.81,1.61c-.51,.05-1.06,.22-1.63,.62,0,0,1.84,2.15,4.35,.34h0s0,0,0,0c0,0-.76-2.73-3.54-2.56Z"/><path class="uuid-7c9a5767-240a-48ff-b6ef-824f94802ba8" d="M191.87,199.65s-.38,.49-.45,1.17c-.26-.24-.61-.44-1.08-.55,0,0-.24,1.96,1.87,2.4h0s0,0,0,0c0,0,1.05-1.67-.35-3.03Z"/><path class="uuid-d82e2d93-3838-487e-924d-411598564b76" d="M210.58,196.12s-.86,.2-1.55,.92c-.08-.51-.29-1.04-.72-1.58,0,0-2.02,1.99-.05,4.37h0s0,0,0,0c0,0,2.67-.94,2.32-3.7Z"/><path class="uuid-d6f7ac67-fe9b-48d9-97a8-a84abb4dfbeb" d="M218.98,201.23s-.64,.61-.87,1.57c-.32-.4-.78-.75-1.42-1,0,0-.74,2.73,2.17,3.79h0s0,0,0,0c0,0,1.83-2.16,.13-4.37Z"/><path class="uuid-d6f7ac67-fe9b-48d9-97a8-a84abb4dfbeb" d="M225.29,198.42s-.62,.21-1.06,.79c-.1-.36-.3-.74-.65-1.1,0,0-1.33,1.61,.3,3.21h0s0,0,0,0c0,0,1.88-.89,1.41-2.9Z"/><path class="uuid-d6f7ac67-fe9b-48d9-97a8-a84abb4dfbeb" d="M234.82,204.2s-.65-.05-1.29,.3c.06-.37,.03-.8-.16-1.27,0,0-1.86,.95-1,3.06h0s0,0,0,0c0,0,2.08-.07,2.45-2.09Z"/></g><g><path class="uuid-d82e2d93-3838-487e-924d-411598564b76" d="M129.51,201.53c-.67,0-1.32,.07-1.95,.21-.6-1.89-1.65-3.58-3.03-4.94-2.19-2.18-5.21-3.53-8.55-3.53-1.9,0-3.69,.45-5.3,1.23,.02-1.21-.38-2.56-1.74-3.79,0,0-1.96,2.31-.85,5.18-1.16-.85-2.82-1.44-4.97-.56,0,0,.93,2.07,3.18,2.78-.41,.54-.76,1.12-1.07,1.72-.24-.09-.49-.14-.76-.14-1.17,0-2.12,.92-2.19,2.07-.65-.15-1.32-.23-2.01-.23-3.42,0-6.4,1.86-8,4.62-.79,1.36-1.24,2.93-1.24,4.61,0,.79,.11,1.56,.3,2.29h47.1c.18-.73,.3-1.5,.3-2.29,0-5.1-4.14-9.23-9.23-9.23Z"/><path class="uuid-7c9a5767-240a-48ff-b6ef-824f94802ba8" d="M145.78,211.21c0,.63-.09,1.25-.24,1.84h-37.79c-.15-.59-.24-1.2-.24-1.84,0-1.35,.36-2.61,.99-3.7,1.28-2.22,3.67-3.71,6.42-3.71,1.14,0,2.21,.26,3.17,.72,1.07-4.22,4.88-7.34,9.43-7.34,2.68,0,5.1,1.08,6.86,2.83,1.1,1.09,1.95,2.44,2.43,3.96,.5-.11,1.03-.17,1.56-.17,4.09,0,7.41,3.32,7.41,7.41Z"/><path class="uuid-efd50f26-e485-44a7-b081-e46a4a245b5c" d="M123.94,211.89c0,.4-.06,.79-.15,1.16h-23.82c-.1-.37-.15-.76-.15-1.16,0-.85,.23-1.65,.63-2.33,.81-1.4,2.31-2.34,4.04-2.34,.72,0,1.39,.17,2,.45,.67-2.66,3.08-4.63,5.94-4.63,1.69,0,3.22,.68,4.32,1.78,.69,.69,1.23,1.54,1.53,2.5,.32-.07,.65-.11,.98-.11,2.58,0,4.67,2.09,4.67,4.67Z"/><path class="uuid-efd50f26-e485-44a7-b081-e46a4a245b5c" d="M99.45,203.44s-1.38,1.26-1.19,3.21c-.59-.76-1.52-1.44-3.03-1.54,0,0,0,3.48,4,3.92h0s2.51-2.71,.23-5.59Z"/><path class="uuid-efd50f26-e485-44a7-b081-e46a4a245b5c" d="M118.86,191.42s-1.2,.39-1.62,1.64c-.15-.63-.53-1.3-1.43-1.78,0,0-.96,2.13,1.36,3.51h0s0,0,0,0c0,0,2.29-.96,1.69-3.36Z"/><path class="uuid-efd50f26-e485-44a7-b081-e46a4a245b5c" d="M135.62,198.29s-1.2-.38-2.27,.39c.25-.6,.32-1.37-.13-2.28,0,0-2.03,1.17-.93,3.64h0s2.42,.55,3.33-1.75Z"/><path class="uuid-efd50f26-e485-44a7-b081-e46a4a245b5c" d="M127.01,201.17s-.93,.85-.8,2.16c-.4-.51-1.02-.97-2.04-1.03,0,0,0,2.34,2.69,2.64h0s0,0,0,0c0,0,1.69-1.82,.15-3.76Z"/><path class="uuid-efd50f26-e485-44a7-b081-e46a4a245b5c" d="M123.39,205.71s-1.26,.06-2,1.15c.02-.65-.17-1.4-.91-2.1,0,0-1.5,1.8,.38,3.74h0s0,0,0,0c0,0,2.46-.32,2.52-2.79Z"/><path class="uuid-efd50f26-e485-44a7-b081-e46a4a245b5c" d="M139.47,202.93s-.72,.12-1.08,.79c-.03-.37-.19-.8-.66-1.15,0,0-.74,1.14,.47,2.13h0s1.4-.35,1.27-1.78Z"/><path class="uuid-efd50f26-e485-44a7-b081-e46a4a245b5c" d="M108.86,199.33s-.66,1.07-.17,2.3c-.52-.38-1.25-.65-2.24-.43,0,0,.65,2.25,3.31,1.79h0s0,0,0,0c0,0,1.12-2.22-.9-3.65Z"/></g></g><g class="uuid-cb65553b-49ce-4747-866c-af350168d334"><path class="uuid-1a6671e5-7999-43cf-b138-7e891b73fab8" d="M84.55,113.09c-.66,0-1.27,.18-1.8,.5-.51-1.59-1.7-2.86-3.23-3.49,.56-.88,.89-1.93,.89-3.06,0-3.16-2.56-5.71-5.71-5.71-2.13,0-3.99,1.17-4.97,2.9-1.03-1.74-2.93-2.9-5.1-2.9-3.2,0-5.81,2.54-5.92,5.72-.09,0-.18-.01-.27-.01-3.85,0-6.97,3.12-6.97,6.96,0,.57,.07,1.13,.2,1.66h36.24c-.4-1.48-1.76-2.57-3.37-2.57Z"/><path class="uuid-1a6671e5-7999-43cf-b138-7e891b73fab8" d="M292.42,72.18h-61.14c-.22-.9-.34-1.83-.34-2.8,0-6.49,5.26-11.75,11.75-11.75,2.36,0,4.56,.7,6.4,1.9,2.37-2.62,5.78-4.28,9.6-4.28,3.05,0,5.85,1.07,8.06,2.83,.62-2.59,2.94-4.51,5.72-4.51,3.25,0,5.89,2.63,5.89,5.89,0,1.12-.32,2.16-.86,3.04,2.94,.93,5.27,3.24,6.21,6.18,.89-.53,1.92-.84,3.03-.84,2.71,0,5,1.83,5.68,4.34Z"/><path class="uuid-1a6671e5-7999-43cf-b138-7e891b73fab8" d="M353.76,43.45h-38.79c-.14-.57-.22-1.16-.22-1.78,0-4.12,3.34-7.45,7.46-7.45,1.5,0,2.89,.44,4.06,1.21,1.5-1.66,3.67-2.72,6.09-2.72,1.93,0,3.71,.68,5.12,1.8,.39-1.64,1.86-2.86,3.63-2.86,2.06,0,3.74,1.67,3.74,3.74,0,.71-.2,1.37-.54,1.93,1.87,.59,3.34,2.06,3.94,3.92,.56-.34,1.22-.53,1.92-.53,1.72,0,3.17,1.16,3.6,2.75Z"/><path class="uuid-1a6671e5-7999-43cf-b138-7e891b73fab8" d="M175.56,81.11c-.58,0-1.12,.16-1.58,.44-.45-1.39-1.5-2.51-2.84-3.06,.49-.78,.78-1.69,.78-2.68,0-2.77-2.25-5.02-5.02-5.02-1.87,0-3.5,1.03-4.36,2.55-.91-1.52-2.57-2.55-4.48-2.55-2.81,0-5.1,2.23-5.2,5.02-.08,0-.16,0-.24,0-3.38,0-6.12,2.74-6.12,6.11,0,.5,.06,.99,.18,1.46h31.82c-.35-1.3-1.55-2.26-2.96-2.26Z"/><path class="uuid-1a6671e5-7999-43cf-b138-7e891b73fab8" d="M212.57,10.33c-.58,0-1.12,.16-1.58,.44-.45-1.39-1.5-2.51-2.84-3.06,.49-.78,.78-1.69,.78-2.68,0-2.77-2.25-5.02-5.02-5.02-1.87,0-3.5,1.03-4.36,2.55-.91-1.52-2.57-2.55-4.48-2.55-2.81,0-5.1,2.23-5.2,5.02-.08,0-.16,0-.24,0-3.38,0-6.12,2.74-6.12,6.11,0,.5,.06,.99,.18,1.46h31.82c-.35-1.3-1.55-2.26-2.96-2.26Z"/></g><g><path class="uuid-8690082f-494e-4126-a67f-20c31b1fc389" d="M329.24,223.06c0,2.85-1.16,5.43-3.03,7.3-1.87,1.87-4.45,3.03-7.31,3.03H10.33c-5.71,0-10.33-4.63-10.33-10.33,0-.16,0-.3,.01-.45,.11-2.68,1.24-5.09,3.01-6.86,1.87-1.87,4.45-3.03,7.31-3.03H318.9c5.55,0,10.09,4.38,10.33,9.89,.01,.15,.01,.3,.01,.45Z"/><path class="uuid-8690082f-494e-4126-a67f-20c31b1fc389" d="M329.24,223.06c0,2.85-1.16,5.43-3.03,7.3-1.87,1.87-4.45,3.03-7.31,3.03H10.33c-5.71,0-10.33-4.63-10.33-10.33,0-.16,0-.3,.01-.45,.11-2.68,1.24-5.09,3.01-6.86,1.87-1.87,4.45-3.03,7.31-3.03H318.9c5.55,0,10.09,4.38,10.33,9.89,.01,.15,.01,.3,.01,.45Z"/><circle class="uuid-78660a28-8fac-4ffe-b216-c48665fe637b" cx="147.48" cy="222.53" r="5.09"/><circle class="uuid-78660a28-8fac-4ffe-b216-c48665fe637b" cx="52.06" cy="226.03" r="3.5"/><path class="uuid-78660a28-8fac-4ffe-b216-c48665fe637b" d="M109.13,220.1c0,1.93-1.57,3.5-3.5,3.5s-3.5-1.57-3.5-3.5,1.57-3.5,3.5-3.5,3.5,1.57,3.5,3.5Z"/><circle class="uuid-78660a28-8fac-4ffe-b216-c48665fe637b" cx="25.67" cy="218.39" r="3.5"/><path class="uuid-78660a28-8fac-4ffe-b216-c48665fe637b" d="M66.46,220.72c0,1-.81,1.81-1.81,1.81s-1.81-.81-1.81-1.81,.81-1.81,1.81-1.81,1.81,.81,1.81,1.81Z"/><path class="uuid-78660a28-8fac-4ffe-b216-c48665fe637b" d="M93.41,230.48c0,1.23-1,2.23-2.23,2.23s-2.23-1-2.23-2.23,1-2.23,2.23-2.23,2.23,1,2.23,2.23Z"/><path class="uuid-78660a28-8fac-4ffe-b216-c48665fe637b" d="M12.44,224.44c0,1.23-1,2.23-2.23,2.23s-2.23-1-2.23-2.23,1-2.23,2.23-2.23,2.23,1,2.23,2.23Z"/><path class="uuid-78660a28-8fac-4ffe-b216-c48665fe637b" d="M79.42,220.3c0,1.23-1,2.23-2.23,2.23s-2.23-1-2.23-2.23,1-2.23,2.23-2.23,2.23,1,2.23,2.23Z"/><path class="uuid-78660a28-8fac-4ffe-b216-c48665fe637b" d="M280.42,224.44c0,2.81-2.28,5.09-5.09,5.09s-5.09-2.28-5.09-5.09,2.28-5.09,5.09-5.09,5.09,2.28,5.09,5.09Z"/><circle class="uuid-78660a28-8fac-4ffe-b216-c48665fe637b" cx="299.5" cy="222.53" r="5.09"/><path class="uuid-78660a28-8fac-4ffe-b216-c48665fe637b" d="M207.59,226.03c0,1.93-1.57,3.5-3.5,3.5s-3.5-1.57-3.5-3.5,1.57-3.5,3.5-3.5,3.5,1.57,3.5,3.5Z"/><path class="uuid-78660a28-8fac-4ffe-b216-c48665fe637b" d="M181.19,218.39c0,1.93-1.57,3.5-3.5,3.5s-3.5-1.57-3.5-3.5,1.57-3.5,3.5-3.5,3.5,1.57,3.5,3.5Z"/><path class="uuid-78660a28-8fac-4ffe-b216-c48665fe637b" d="M137.94,228.29c0,1.93-1.57,3.5-3.5,3.5s-3.5-1.57-3.5-3.5,1.57-3.5,3.5-3.5,3.5,1.57,3.5,3.5Z"/><path class="uuid-78660a28-8fac-4ffe-b216-c48665fe637b" d="M227.15,223.6c0,1.23-1,2.23-2.23,2.23s-2.23-1-2.23-2.23,1-2.23,2.23-2.23,2.23,1,2.23,2.23Z"/><path class="uuid-78660a28-8fac-4ffe-b216-c48665fe637b" d="M248.98,227.62c0,1.23-1,2.23-2.23,2.23s-2.23-1-2.23-2.23,1-2.23,2.23-2.23,2.23,1,2.23,2.23Z"/><path class="uuid-78660a28-8fac-4ffe-b216-c48665fe637b" d="M320.49,220.3c0,1.23-1,2.23-2.23,2.23s-2.23-1-2.23-2.23,1-2.23,2.23-2.23,2.23,1,2.23,2.23Z"/><path class="uuid-78660a28-8fac-4ffe-b216-c48665fe637b" d="M167.43,228.29c0,1.23-1,2.23-2.23,2.23s-2.23-1-2.23-2.23,1-2.23,2.23-2.23,2.23,1,2.23,2.23Z"/><circle class="uuid-78660a28-8fac-4ffe-b216-c48665fe637b" cx="229.22" cy="220.3" r="2.23"/><path class="uuid-78660a28-8fac-4ffe-b216-c48665fe637b" d="M291.02,228.89c0,1.23-1,2.23-2.23,2.23s-2.23-1-2.23-2.23,1-2.23,2.23-2.23,2.23,1,2.23,2.23Z"/><path class="uuid-efd50f26-e485-44a7-b081-e46a4a245b5c" d="M329.42,222.08H.21c.11-2.68,1.24-5.09,3.01-6.86,1.87-1.87,4.45-3.03,7.31-3.03H319.1c5.55,0,10.09,4.38,10.33,9.89Z"/><g class="uuid-76d8a976-d232-434b-8490-a723c6041d6c"><path class="uuid-78660a28-8fac-4ffe-b216-c48665fe637b" d="M38.71,230.8c0,2.81-2.28,5.09-5.09,5.09s-5.09-2.28-5.09-5.09,2.28-5.09,5.09-5.09,5.09,2.28,5.09,5.09Z"/><path class="uuid-78660a28-8fac-4ffe-b216-c48665fe637b" d="M115.81,230.8c0,2.81-2.28,5.09-5.09,5.09s-5.09-2.28-5.09-5.09,2.28-5.09,5.09-5.09,5.09,2.28,5.09,5.09Z"/><path class="uuid-78660a28-8fac-4ffe-b216-c48665fe637b" d="M77.43,233.3c0,2.44-1.98,4.41-4.41,4.41s-4.41-1.98-4.41-4.41,1.98-4.41,4.41-4.41,4.41,1.98,4.41,4.41Z"/><path class="uuid-78660a28-8fac-4ffe-b216-c48665fe637b" d="M190.73,230.8c0,2.81-2.28,5.09-5.09,5.09s-5.09-2.28-5.09-5.09,2.28-5.09,5.09-5.09,5.09,2.28,5.09,5.09Z"/><path class="uuid-78660a28-8fac-4ffe-b216-c48665fe637b" d="M229.22,233.18c0,2.37-1.92,4.29-4.29,4.29s-4.29-1.92-4.29-4.29,1.92-4.29,4.29-4.29,4.29,1.92,4.29,4.29Z"/><path class="uuid-78660a28-8fac-4ffe-b216-c48665fe637b" d="M323.36,232.12c0,2.81-2.28,5.09-5.09,5.09s-5.09-2.28-5.09-5.09,2.28-5.09,5.09-5.09,5.09,2.28,5.09,5.09Z"/><path class="uuid-78660a28-8fac-4ffe-b216-c48665fe637b" d="M265.94,232.12c0,1.93-1.57,3.5-3.5,3.5s-3.5-1.57-3.5-3.5,1.57-3.5,3.5-3.5,3.5,1.57,3.5,3.5Z"/></g></g></g></g></g></g></svg>