<?xml version="1.0" encoding="UTF-8"?><svg id="uuid-77505c23-3e34-4178-b3c7-b6149fb11e18" xmlns="http://www.w3.org/2000/svg" width="499.74" height="444.35" viewBox="0 0 499.74 444.35"><defs><style>.uuid-7b24155a-f56b-4f48-8835-5a935d4f151d{fill:#d9e8ff;}</style></defs><g id="uuid-594bc234-3187-40c3-a991-d87db8d0512d"><path class="uuid-7b24155a-f56b-4f48-8835-5a935d4f151d" d="M327.41,24.77c-68.96,15.87-90.3,73.97-97.07,102.03-5.24,21.74-17.65,42.07-36.55,55.55-22.08,15.75-50.88,19.2-76.16,27.37-22.48,7.27-47.33,19.94-55.58,43.71-5.76,16.59-6.74,51.1-33.13,66.79-8.88,5.28-24.75,10.27-27.93,21.73-3.35,12.06,1.59,22.79,17.86,27.85,15.21,4.73,38.09-2.18,68.38,0,25.54,1.84,27.93,26.65,46.23,39.56,22.39,15.81,53.64,4.19,78.88,11.41,18.29,5.23,34.53,15.89,53.12,19.92,26.95,5.85,55.1,3.97,82.05-.84,32.29-5.77,89.75-29.64,117.03-83.52,19.01-20.05,68.68-262.39,0-327.31-19.84-18.75-88.03-34.9-114.16-26.97"/></g></svg>