<?xml version="1.0" encoding="UTF-8"?><svg id="uuid-1e76d413-dee4-4615-9e9c-97ed784af26e" xmlns="http://www.w3.org/2000/svg" width="41.66" height="41.66" viewBox="0 0 41.66 41.66"><defs><style>.uuid-01c28ba3-479a-4555-9af8-dc08d1c3ba45{fill:#456b5b;}.uuid-334f1239-8e48-4c9f-8dea-52ac456991c3{fill:#fff;}</style></defs><g id="uuid-df1f416c-15f1-4564-8880-a6428076dc27"><g id="uuid-b2390a07-8394-48d4-84cb-04e25ae7ec69"><g><circle class="uuid-01c28ba3-479a-4555-9af8-dc08d1c3ba45" cx="20.83" cy="20.83" r="20.83" transform="translate(-7.26 11.97) rotate(-27.5)"/><path class="uuid-334f1239-8e48-4c9f-8dea-52ac456991c3" d="M22.27,14.5c.19-.24,.58-.41,1.14-.41,.52,0,1.13,.07,1.72,.24l.49-2.73c-1.01-.36-2.04-.47-3.11-.47s-1.92,.17-2.6,.57c-.68,.4-1.14,.84-1.39,1.48-.26,.56-.39,1.54-.39,2.74v1.07h-2.08v3.12h2.08v9.79c.87,.2,1.78,.3,2.72,.3,.35,0,.71,0,1.07-.07v-10.02h2.76v-3.12h-2.76v-1.01c0-.77,.1-1.24,.36-1.51Z"/></g></g></g></svg>