<?xml version="1.0" encoding="UTF-8"?><svg id="uuid-1870d4bb-3c99-4fc2-b0c8-2aebed67bcb2" xmlns="http://www.w3.org/2000/svg" width="1499.84" height="499.95" viewBox="0 0 1499.84 499.95"><defs><style>.uuid-f3b8befc-0fb0-4215-9632-0cd3e5377013{fill:#456b5b;}.uuid-168895d5-891d-4c91-b5bf-0fcf642a14bd{fill:#fff;}.uuid-1d820ed3-e385-454c-bdf6-a423d88d951b,.uuid-4020caca-b634-49f1-b977-fe6af9b64b2f,.uuid-dead285d-7af1-435d-897a-49a537eb07e1,.uuid-6aba6ed9-8d78-4c38-83e1-b1a095b7950c,.uuid-225d8662-cb15-4d14-b22d-e75f511729b6,.uuid-0978974d-19df-4dd3-955b-f5b5ccbfc506,.uuid-e16e24af-cb8f-44ee-bd33-61a8110dab0a,.uuid-2c76b3f4-2670-495c-ace9-a48695a4d4b3{fill:none;}.uuid-1d820ed3-e385-454c-bdf6-a423d88d951b,.uuid-4020caca-b634-49f1-b977-fe6af9b64b2f,.uuid-0978974d-19df-4dd3-955b-f5b5ccbfc506{stroke-width:2.07px;}.uuid-1d820ed3-e385-454c-bdf6-a423d88d951b,.uuid-dead285d-7af1-435d-897a-49a537eb07e1,.uuid-6aba6ed9-8d78-4c38-83e1-b1a095b7950c,.uuid-225d8662-cb15-4d14-b22d-e75f511729b6,.uuid-0978974d-19df-4dd3-955b-f5b5ccbfc506,.uuid-e16e24af-cb8f-44ee-bd33-61a8110dab0a,.uuid-2c76b3f4-2670-495c-ace9-a48695a4d4b3{stroke-linecap:round;stroke-linejoin:round;}.uuid-1d820ed3-e385-454c-bdf6-a423d88d951b,.uuid-6aba6ed9-8d78-4c38-83e1-b1a095b7950c,.uuid-e16e24af-cb8f-44ee-bd33-61a8110dab0a{stroke:#ebac30;}.uuid-4020caca-b634-49f1-b977-fe6af9b64b2f{stroke:#fff;stroke-miterlimit:10;}.uuid-cc77da88-9589-4f52-8294-a5c61d9c0feb{fill:#83bd8e;}.uuid-52c6dafa-66a1-4163-9eb9-b6b5ce5bd7e8{fill:#bfde9a;}.uuid-dead285d-7af1-435d-897a-49a537eb07e1{stroke-width:.82px;}.uuid-dead285d-7af1-435d-897a-49a537eb07e1,.uuid-225d8662-cb15-4d14-b22d-e75f511729b6{stroke:#392724;}.uuid-0e250652-5314-45ba-9894-48dfae7e356c{fill:#fcf5e1;}.uuid-c6adda2a-5e55-49bb-86ad-d7d12a77bb20{fill:#7ab9c1;}.uuid-8340fc7e-8cdc-440a-ab29-52a152dc4e9f{fill:#1a2d36;}.uuid-6aba6ed9-8d78-4c38-83e1-b1a095b7950c{stroke-width:2.81px;}.uuid-225d8662-cb15-4d14-b22d-e75f511729b6{stroke-width:.72px;}.uuid-df475573-0959-4915-9827-c784083afe58{fill:#659aa6;}.uuid-0978974d-19df-4dd3-955b-f5b5ccbfc506,.uuid-2c76b3f4-2670-495c-ace9-a48695a4d4b3{stroke:#1a2d36;}.uuid-1417cde0-c66f-43a3-9e25-76c3d353eaad{fill:#ebac30;}.uuid-252e50c5-9b6a-4f4a-be16-7ae8d0560547{fill:#7f7f7f;}.uuid-e16e24af-cb8f-44ee-bd33-61a8110dab0a{stroke-width:10.55px;}.uuid-2c76b3f4-2670-495c-ace9-a48695a4d4b3{stroke-width:.64px;}</style></defs><g id="uuid-61a0b213-42ef-43de-8560-86262e8080db"><g id="uuid-722b0a2c-c551-43c1-a98e-50f908b7f918"><rect class="uuid-52c6dafa-66a1-4163-9eb9-b6b5ce5bd7e8" width="1499.84" height="499.95"/></g><g id="uuid-f2dc4297-c3d2-42f5-9eaf-b5b9fb3aed9e"><g><path class="uuid-df475573-0959-4915-9827-c784083afe58" d="M831.81,192.52c-.99-1.09-1.73-2.41-2.14-3.83-.12-.43-.22-.89-.06-1.31,.34-.88,1.52-1.01,2.46-.89,3.68,.47,6.95,2.51,9.97,4.66,6.5,4.65,12.41,10.12,17.55,16.23-6.14-.98-12-1.96-18.11-3.11-4.87-.92-9.84-1.92-14.11-4.44-1.34-.79-2.73-1.95-2.78-3.5-.04-1.35,1-2.54,2.23-3.1,1.23-.56,3.64-.66,4.99-.71Z"/><path class="uuid-225d8662-cb15-4d14-b22d-e75f511729b6" d="M932.16,272.11c-25.01-31.6-57.08-57.59-93.18-75.51"/><path class="uuid-df475573-0959-4915-9827-c784083afe58" d="M864.57,188.83c-.21-1.46-.08-2.97,.38-4.37,.14-.42,.33-.86,.69-1.11,.77-.54,1.83,.02,2.53,.65,2.77,2.46,4.33,5.98,5.61,9.46,2.75,7.5,4.56,15.34,5.37,23.29-4.52-4.27-8.82-8.37-13.22-12.76-3.51-3.5-7.05-7.13-9.16-11.61-.67-1.41-1.16-3.14-.32-4.46,.73-1.14,2.26-1.54,3.59-1.31,1.33,.23,3.38,1.5,4.53,2.22Z"/><path class="uuid-225d8662-cb15-4d14-b22d-e75f511729b6" d="M884.4,224.86c-5.71-8.9-11.42-17.81-17.13-26.71"/><path class="uuid-df475573-0959-4915-9827-c784083afe58" d="M842.47,222.19c-1.29-.72-2.41-1.74-3.25-2.95-.25-.37-.49-.78-.47-1.23,.04-.94,1.13-1.44,2.05-1.62,3.64-.71,7.39,.18,10.93,1.27,7.63,2.35,14.97,5.67,21.79,9.84-6.13,1.02-12,1.94-18.16,2.79-4.91,.67-9.94,1.29-14.79,.26-1.52-.32-3.2-.98-3.74-2.44-.47-1.27,.14-2.73,1.13-3.65,.99-.92,3.24-1.78,4.51-2.26Z"/><path class="uuid-225d8662-cb15-4d14-b22d-e75f511729b6" d="M896.47,234.98c-13.41-4.75-27.33-8.04-41.45-9.79"/><path class="uuid-df475573-0959-4915-9827-c784083afe58" d="M892.81,204.31c0-1.48,.36-2.08,1.01-3.41,.2-.4,.44-.81,.84-1.01,.84-.43,1.81,.27,2.42,.99,2.41,2.82,3.48,6.52,4.27,10.14,1.7,7.8,2.43,15.82,2.14,23.81-3.9-4.84-7.59-9.5-11.36-14.45-3-3.94-6.01-8.02-7.49-12.75-.47-1.49-.72-3.27,.29-4.46,.87-1.03,2.45-1.22,3.74-.81,1.29,.41,3.12,1.08,4.15,1.95Z"/><path class="uuid-225d8662-cb15-4d14-b22d-e75f511729b6" d="M908.78,246.22c-5.47-10.47-10.14-21.36-13.95-32.55"/><path class="uuid-df475573-0959-4915-9827-c784083afe58" d="M862.28,252.89c-1.42-.42-2.73-1.16-3.82-2.16-.33-.3-.65-.65-.73-1.09-.17-.93,.78-1.66,1.64-2.04,3.39-1.5,7.24-1.47,10.94-1.19,7.97,.6,15.86,2.21,23.42,4.76-5.76,2.35-11.27,4.56-17.09,6.75-4.64,1.75-9.41,3.46-14.36,3.53-1.56,.02-3.34-.25-4.19-1.55-.74-1.13-.47-2.69,.29-3.81,.76-1.12,2.77-2.46,3.9-3.2Z"/><path class="uuid-225d8662-cb15-4d14-b22d-e75f511729b6" d="M914.05,252.23c-14.92-.75-29.86-.94-44.79-.54"/></g><g><g><path class="uuid-6aba6ed9-8d78-4c38-83e1-b1a095b7950c" d="M1002.35,216.37s-57.69,146.34,23.92,198.41c81.61,52.06,134.38,10.55,144.23,4.92,32.4-18.51,60.22-103.32,44.32-178.71"/><path class="uuid-6aba6ed9-8d78-4c38-83e1-b1a095b7950c" d="M1066.79,183.96s20.89,26.56,47.88,27.37c26.99,.81,51.7-13.69,51.7-13.69"/><path class="uuid-6aba6ed9-8d78-4c38-83e1-b1a095b7950c" d="M1052.62,195.05s12.27,44.48,82.71,50.17c43.62,3.52,63.32-12.66,63.32-12.66"/><path class="uuid-6aba6ed9-8d78-4c38-83e1-b1a095b7950c" d="M1025.93,211.33s14.42,54.28,93.92,73.98c79.5,19.7,99.33-5.64,99.33-5.64"/><path class="uuid-6aba6ed9-8d78-4c38-83e1-b1a095b7950c" d="M1000.12,221.39s25.73,94.3,108.26,112.53c82.53,18.23,105.84-1.65,105.84-1.65"/><path class="uuid-6aba6ed9-8d78-4c38-83e1-b1a095b7950c" d="M989.13,262.76s11.11,85.18,94.83,119.65c83.72,34.48,109.85,10.1,109.85,10.1"/><path class="uuid-6aba6ed9-8d78-4c38-83e1-b1a095b7950c" d="M1164.04,199.44s-20.89,26.56-47.88,27.37c-26.99,.81-80.04-21-80.04-21"/><path class="uuid-6aba6ed9-8d78-4c38-83e1-b1a095b7950c" d="M1171.87,205.6s-12.27,44.48-82.71,50.17c-43.62,3.52-88.93-34.47-88.93-34.47"/><path class="uuid-6aba6ed9-8d78-4c38-83e1-b1a095b7950c" d="M1182.38,220.48s-14.42,54.29-93.92,73.98c-79.5,19.7-102.29-12.66-102.29-12.66"/><path class="uuid-6aba6ed9-8d78-4c38-83e1-b1a095b7950c" d="M1199.05,232.65s-25.73,94.3-108.26,112.53c-82.53,18.23-105.84-1.65-105.84-1.65"/><path class="uuid-6aba6ed9-8d78-4c38-83e1-b1a095b7950c" d="M1219.05,267.02s-15.9,87.95-99.63,122.42c-83.72,34.47-109.85,10.1-109.85,10.1"/></g><path class="uuid-e16e24af-cb8f-44ee-bd33-61a8110dab0a" d="M1002.22,216.24c9.98,1.54,62.05-20.98,74.01-44.19,5.17-10.03,20.4-106.24,56.99-109.76,36.59-3.52,18.29,78.8,25.28,119.25,1.68,9.74,26.92,49.52,56.05,59.76"/><path class="uuid-6aba6ed9-8d78-4c38-83e1-b1a095b7950c" d="M1084.28,201.64s-95.81,82.57-100.92,134.33"/><path class="uuid-6aba6ed9-8d78-4c38-83e1-b1a095b7950c" d="M1093.48,205.6s-87.31,128.46-87.11,191.68"/><path class="uuid-6aba6ed9-8d78-4c38-83e1-b1a095b7950c" d="M1108.38,210.68s-61.54,104.78-58.46,217.06"/><path class="uuid-6aba6ed9-8d78-4c38-83e1-b1a095b7950c" d="M1116.58,212.27s-12.95,184.97-30.52,226.8"/><path class="uuid-6aba6ed9-8d78-4c38-83e1-b1a095b7950c" d="M1132.63,210.68s29.83,165.05,16.61,220.8"/><path class="uuid-6aba6ed9-8d78-4c38-83e1-b1a095b7950c" d="M1145.21,205.6s59.16,110.59,53.84,178.17"/></g><g><path class="uuid-f3b8befc-0fb0-4215-9632-0cd3e5377013" d="M1141.84,323s29.9-7.06,65.67-7.85c46.05-1.02,65.43,11.28,65.43,11.28l-26.28,138.39h-74.83s-29.98-141.82-29.98-141.82Z"/><polygon class="uuid-cc77da88-9589-4f52-8294-a5c61d9c0feb" points="1150.89 376.72 1264.85 376.72 1256.25 434.47 1161.46 434.27 1150.89 376.72"/><polygon class="uuid-cc77da88-9589-4f52-8294-a5c61d9c0feb" points="1137.28 332.45 1278.48 331.34 1278.48 312.92 1133.83 311.07 1137.28 332.45"/><polygon class="uuid-cc77da88-9589-4f52-8294-a5c61d9c0feb" points="1155.36 312.93 1158.88 300.52 1207.39 312.01 1155.36 312.93"/></g><g><path class="uuid-252e50c5-9b6a-4f4a-be16-7ae8d0560547" d="M1283.72,449.68l20.58-139.49s.96-7.98,8.93-14.78c7.97-6.8,33.3-27.31,33.3-27.31,0,0,4.6-2.12,7.14,5.55l-34.83,29s-4.67,4.38-5.76,10.96c-1.09,6.58-21.14,137.99-21.14,137.99,0,0-4.4,1.25-8.21-1.92Z"/><path class="uuid-4020caca-b634-49f1-b977-fe6af9b64b2f" d="M1286.93,447.15s17.83-131.94,21.97-140.22c4.14-8.28,37.24-35.17,37.24-35.17"/></g><g><path class="uuid-0e250652-5314-45ba-9894-48dfae7e356c" d="M1191.74,139.13l120.93-49.77s62.75,119.42,40.92,142.32c-21.83,22.9-75.84,41.3-90.98,34.61-36.15-15.99-70.87-127.16-70.87-127.16Z"/><path class="uuid-0978974d-19df-4dd3-955b-f5b5ccbfc506" d="M1202.98,159.05c7.6-3.27,112.97-46.32,112.97-46.32"/><path class="uuid-0978974d-19df-4dd3-955b-f5b5ccbfc506" d="M1197.14,150.13s-22.61,55.15-1.28,65.58c21.33,10.43,1.28-65.58,1.28-65.58Z"/><path class="uuid-0978974d-19df-4dd3-955b-f5b5ccbfc506" d="M1317.44,101.07c-2.32,1.88,14.6,62.18,37.41,52.37,22.81-9.81-37.41-52.37-37.41-52.37Z"/><line class="uuid-1d820ed3-e385-454c-bdf6-a423d88d951b" x1="1241.01" y1="150.58" x2="1219.84" y2="203.68"/><line class="uuid-1d820ed3-e385-454c-bdf6-a423d88d951b" x1="1272.09" y1="143.22" x2="1237.79" y2="229.24"/><line class="uuid-1d820ed3-e385-454c-bdf6-a423d88d951b" x1="1305.92" y1="133.93" x2="1259.33" y2="250.81"/><line class="uuid-1d820ed3-e385-454c-bdf6-a423d88d951b" x1="1327.4" y1="147.22" x2="1287.59" y2="247.09"/><line class="uuid-1d820ed3-e385-454c-bdf6-a423d88d951b" x1="1343.18" y1="183.93" x2="1319.51" y2="243.31"/><line class="uuid-1d820ed3-e385-454c-bdf6-a423d88d951b" x1="1278.01" y1="134.67" x2="1331.11" y2="155.84"/><line class="uuid-1d820ed3-e385-454c-bdf6-a423d88d951b" x1="1251.29" y1="152.16" x2="1337.31" y2="186.46"/><line class="uuid-1d820ed3-e385-454c-bdf6-a423d88d951b" x1="1221.27" y1="170.33" x2="1338.15" y2="216.93"/><line class="uuid-1d820ed3-e385-454c-bdf6-a423d88d951b" x1="1216.13" y1="195.06" x2="1316" y2="234.87"/><line class="uuid-1d820ed3-e385-454c-bdf6-a423d88d951b" x1="1231.92" y1="231.77" x2="1291.29" y2="255.44"/></g><g><g><path class="uuid-168895d5-891d-4c91-b5bf-0fcf642a14bd" d="M1055.03,229.46s.63-7.32-13.04-16.5c-13.66-9.18-8.02-16.04-8.02-16.04l-37.46,1.07-27.83,.8-21.31,.61s6.03,6.53-7.09,16.47c-13.12,9.95-12.07,17.22-12.07,17.22l5.68,198.4c.32,11.34,9.78,20.28,21.13,19.95l50.83-1.46,34.91-1c11.34-.32,20.28-9.78,19.95-21.13l-5.68-198.4h-.01Z"/><path class="uuid-c6adda2a-5e55-49bb-86ad-d7d12a77bb20" d="M955.03,451.44l50.83-1.46,34.91-1c11.34-.32,20.28-9.78,19.95-21.13l-3.7-129.35c-11.85,5.95-25.29,8.76-38.56,7.46-14.98-1.46-28.77-8.14-43.53-10.7-13.02-2.26-26.56-.69-38.8,4.25-2.02,.81-3.99,1.75-5.93,2.74l3.7,129.22c.32,11.34,9.78,20.28,21.13,19.95Z"/><path class="uuid-168895d5-891d-4c91-b5bf-0fcf642a14bd" d="M1028.7,201.21c.02,.39,.05,.8,.12,1.22,.72,4.9,4.38,9.6,10.88,13.97,10.12,6.8,11.11,12.01,11.2,12.81l-.87,4.51,1.01-.02,5.56,194.28c.13,4.38-1.46,8.55-4.47,11.74-3.01,3.19-7.08,5.01-11.46,5.14l-34.91,1-50.83,1.46c-.16,0-.32,0-.48,0-8.94,0-16.14-7-16.39-15.94l-5.68-198.4,.07-.03-.08-.34c.05-.8,.73-6.06,10.45-13.43,6.24-4.73,9.63-9.63,10.06-14.57,.04-.42,.05-.83,.05-1.22l15.91-.46,27.83-.8,32.06-.92m5.28-4.29l-37.46,1.07-27.83,.8-21.31,.61s6.03,6.53-7.09,16.47c-13.12,9.95-12.07,17.22-12.07,17.22l5.68,198.4c.32,11.14,9.45,19.96,20.53,19.96,.2,0,.4,0,.6,0l50.83-1.46,34.91-1c11.34-.32,20.28-9.78,19.95-21.13l-5.68-198.4h-.01s.63-7.32-13.04-16.5c-13.66-9.18-8.02-16.04-8.02-16.04h0Z"/><rect class="uuid-cc77da88-9589-4f52-8294-a5c61d9c0feb" x="952.25" y="153.11" width="73.65" height="44.71" rx="7.2" ry="7.2" transform="translate(-4.62 28.38) rotate(-1.64)"/><path class="uuid-1417cde0-c66f-43a3-9e25-76c3d353eaad" d="M1035.39,203.58l-89.26,2.56c-3.68,.11-6.78-2.82-6.89-6.5h0c-.11-3.68,2.82-6.78,6.5-6.89l89.26-2.56c3.68-.11,6.78,2.82,6.89,6.5h0c.11,3.68-2.82,6.78-6.5,6.89Z"/><path class="uuid-1417cde0-c66f-43a3-9e25-76c3d353eaad" d="M948.06,177.14h81.88c2.12,0,3.85,1.72,3.85,3.85v11.31c0,2.12-1.72,3.85-3.85,3.85h-81.88c-2.12,0-3.85-1.72-3.85-3.85v-11.31c0-2.12,1.72-3.85,3.85-3.85Z" transform="translate(-4.94 28.38) rotate(-1.64)"/></g><line class="uuid-0978974d-19df-4dd3-955b-f5b5ccbfc506" x1="945.74" y1="192.75" x2="1035" y2="190.19"/><path class="uuid-0978974d-19df-4dd3-955b-f5b5ccbfc506" d="M946.33,192.08s-81.9,133.23-48.02,153.53c33.87,20.3,48.02-153.53,48.02-153.53Z"/></g><g><g><path class="uuid-cc77da88-9589-4f52-8294-a5c61d9c0feb" d="M866.2,409.63c.2,.04,.4,.07,.6,.11,1.8,.31,3.62,.49,5.43,.58,1.12,.06,2.24,.07,3.36,.06,.23,0,.47-.01,.7-.02,2.16-.06,4.31-.29,6.43-.73,4.36-.91,8.47-2.74,12.5-4.64,.61-.29,1.22-.59,1.83-.88,.32-.15,.64-.31,.96-.46h0c6.12-2.94,12.2-5.98,18.55-8.35,.2-.08,.41-.16,.61-.23,.13-.05,.26-.09,.39-.14,7.09-2.55,14.28-3.95,21.78-3.49t.02,0c.34,.02,.68,.04,1.02,.07-1.13-.41-2.28-.82-3.42-1.22,0,0,0,0-.01,0-7.39-2.59-14.9-4.83-22.5-6.7-8.1-1.99-16.5-3.56-24.78-3.14h0c-.29,0-.6,.02-.89,.05h0c-2.32,.15-4.62,.48-6.91,.99-1.21,.28-2.41,.6-3.59,.99h0c-.2,.06-.4,.12-.61,.2-3.94,1.32-7.67,3.21-11.16,5.5-.2,.12-.39,.25-.57,.38-4.51,3.03-8.61,6.74-12.26,10.8-.22,.25-.41,.52-.56,.8-.12,.24-.22,.48-.28,.73-.4,1.43,.07,3,1.32,3.97,.05,.05,.12,.09,.18,.13,.09,.06,.18,.13,.28,.18,3.44,2.28,7.45,3.71,11.59,4.48Z"/><path class="uuid-8340fc7e-8cdc-440a-ab29-52a152dc4e9f" d="M852.83,400.87c2.62-1.14,5.24-2.2,7.85-3.19h0c.45-.17,.9-.34,1.35-.5,6.77-2.49,13.52-4.48,20.22-5.97,.39-.09,.78-.17,1.17-.25h0c3.02-.65,6.03-1.19,9.03-1.62,.26-.04,.54-.08,.81-.11,1.91-.27,3.81-.5,5.71-.68,3.86-.37,7.72-.57,11.55-.58,.3,0,.58,0,.87,0,3.74,.01,7.45,.2,11.11,.56,.24,.02,.48,.04,.72,.07,5.51,.57,10.92,1.53,16.13,2.87t.02,0c3.27,.84,6.46,1.82,9.57,2.95,.15,.05,.31-.03,.36-.17h0c.05-.15-.03-.31-.17-.36-3.92-1.43-7.98-2.63-12.16-3.58,0,0,0,0-.01,0-10.76-2.47-22.23-3.38-33.88-2.64-.36,.02-.72,.05-1.09,.08-1.02,.07-2.05,.15-3.07,.26-3.59,.34-7.21,.84-10.85,1.49-.24,.04-.48,.09-.72,.13-3.7,.68-7.43,1.52-11.17,2.51-.29,.08-.57,.16-.85,.24-7.36,2-14.78,4.6-22.21,7.8-.12,.24-.22,.48-.28,.73Z"/></g><g><path class="uuid-cc77da88-9589-4f52-8294-a5c61d9c0feb" d="M900.15,325.82c.17,.11,.34,.22,.51,.34,1.51,1.03,2.94,2.16,4.3,3.36,.84,.74,1.66,1.51,2.45,2.3,.16,.17,.33,.33,.49,.5,1.51,1.55,2.9,3.21,4.11,5,2.5,3.69,4.18,7.86,5.75,12.03,.23,.64,.47,1.27,.7,1.91,.13,.33,.25,.66,.36,1h0c2.35,6.38,4.6,12.79,7.52,18.91,.09,.2,.18,.39,.28,.59,.06,.12,.12,.25,.18,.37,3.32,6.77,7.51,12.77,13.22,17.66t.01,.01c.26,.22,.52,.45,.78,.66-1.1-.49-2.21-.99-3.31-1.5,0,0,0,0-.01,0-7.11-3.28-14.06-6.9-20.82-10.84-7.21-4.21-14.33-8.92-19.99-14.98h0c-.2-.21-.41-.44-.61-.66h0c-1.56-1.73-2.98-3.56-4.27-5.52-.68-1.04-1.31-2.11-1.89-3.2h0c-.1-.18-.2-.37-.3-.57-1.91-3.69-3.28-7.64-4.19-11.72-.06-.23-.1-.45-.15-.67-1.13-5.31-1.5-10.83-1.29-16.29,.01-.34,.07-.66,.16-.97,.08-.25,.18-.49,.3-.72,.71-1.3,2.14-2.11,3.71-1.93,.07,0,.15,.01,.22,.03,.11,.02,.22,.04,.32,.06,4.06,.75,7.93,2.52,11.45,4.85Z"/><path class="uuid-8340fc7e-8cdc-440a-ab29-52a152dc4e9f" d="M884.45,322.81c1.09,2.64,2.23,5.22,3.43,7.75h0c.21,.44,.41,.87,.62,1.3,3.14,6.5,6.59,12.63,10.37,18.36,.22,.34,.44,.67,.67,1h0c1.72,2.57,3.51,5.05,5.36,7.45,.16,.21,.33,.43,.5,.64,1.18,1.52,2.39,3.01,3.63,4.46,2.52,2.96,5.15,5.78,7.89,8.45,.21,.2,.42,.41,.63,.61,2.69,2.59,5.49,5.04,8.37,7.33,.19,.15,.37,.3,.56,.45,4.36,3.43,8.9,6.5,13.58,9.16t.01,.01c2.93,1.67,5.91,3.19,8.93,4.54,.14,.07,.2,.23,.14,.37h0c-.07,.14-.23,.21-.37,.14-3.81-1.7-7.56-3.66-11.23-5.88,0,0,0,0-.01,0-9.45-5.71-18.32-13.04-26.18-21.67-.24-.27-.49-.54-.73-.81-.68-.76-1.36-1.54-2.03-2.32-2.34-2.74-4.59-5.62-6.75-8.62-.14-.2-.29-.4-.43-.6-2.18-3.07-4.28-6.26-6.28-9.58-.15-.26-.3-.51-.45-.77-3.9-6.56-7.42-13.59-10.53-21.05,.08-.25,.18-.49,.3-.72Z"/></g><g><path class="uuid-cc77da88-9589-4f52-8294-a5c61d9c0feb" d="M832.22,392.42c.16,.02,.32,.02,.48,.03,1.45,.08,2.91,.05,4.36-.05,.89-.06,1.78-.15,2.67-.27,.19-.03,.37-.05,.56-.08,1.7-.25,3.39-.63,5.03-1.18,3.37-1.13,6.45-2.97,9.47-4.85,.46-.29,.91-.58,1.37-.87,.24-.15,.48-.3,.72-.46h0c4.58-2.91,9.11-5.89,13.92-8.36,.15-.08,.31-.16,.46-.24,.1-.05,.2-.1,.3-.15,5.38-2.69,10.95-4.47,16.93-4.81t.01,0c.27-.02,.54-.03,.82-.04-.94-.22-1.88-.44-2.82-.65,0,0,0,0-.01,0-6.1-1.36-12.26-2.43-18.46-3.2-6.61-.82-13.41-1.28-19.94-.16h0c-.23,.03-.47,.08-.7,.12h0c-1.82,.34-3.62,.82-5.38,1.43-.94,.33-1.85,.7-2.75,1.12h0c-.15,.06-.31,.14-.46,.21-3,1.42-5.78,3.26-8.33,5.41-.15,.12-.28,.24-.42,.36-3.29,2.82-6.19,6.15-8.7,9.71-.15,.22-.28,.45-.37,.69-.07,.2-.13,.4-.15,.6-.18,1.17,.34,2.37,1.42,3.02,.05,.03,.1,.06,.16,.09,.08,.04,.16,.08,.24,.12,2.94,1.49,6.25,2.24,9.61,2.46Z"/><path class="uuid-8340fc7e-8cdc-440a-ab29-52a152dc4e9f" d="M820.8,386.73c1.97-1.15,3.94-2.24,5.93-3.26h0c.34-.18,.68-.36,1.02-.53,5.14-2.61,10.29-4.82,15.47-6.63,.3-.11,.6-.21,.91-.31h0c2.34-.8,4.67-1.51,7-2.14,.21-.06,.42-.11,.63-.17,1.49-.4,2.97-.75,4.46-1.08,3.03-.66,6.07-1.17,9.1-1.54,.23-.03,.46-.05,.69-.08,2.97-.34,5.92-.54,8.86-.6,.19,0,.39-.01,.58-.01,4.42-.07,8.8,.18,13.05,.76t.01,0c2.67,.36,5.29,.84,7.86,1.44,.12,.03,.24-.05,.27-.16h0c.02-.12-.05-.25-.17-.27-3.24-.76-6.57-1.33-9.97-1.7,0,0,0,0-.01,0-8.76-.95-17.94-.59-27.1,1.09-.28,.05-.57,.11-.86,.16-.8,.15-1.61,.31-2.41,.49-2.81,.61-5.64,1.35-8.46,2.2-.19,.06-.37,.11-.56,.17-2.87,.89-5.75,1.9-8.62,3.04-.22,.09-.44,.18-.65,.27-5.65,2.27-11.28,5.03-16.87,8.27-.07,.2-.13,.4-.15,.6Z"/></g><g><path class="uuid-cc77da88-9589-4f52-8294-a5c61d9c0feb" d="M850.94,323.03c.15,.07,.29,.14,.44,.21,1.3,.66,2.55,1.4,3.76,2.21,.74,.5,1.47,1.02,2.18,1.56,.15,.12,.3,.23,.44,.35,1.35,1.07,2.63,2.24,3.78,3.52,2.36,2.66,4.13,5.78,5.81,8.91,.25,.48,.5,.96,.76,1.43,.14,.25,.26,.5,.39,.75h0c2.53,4.8,4.98,9.64,7.93,14.17,.09,.15,.19,.29,.28,.44,.06,.09,.12,.18,.18,.27,3.34,5.01,7.28,9.32,12.31,12.59t0,0c.23,.15,.46,.3,.69,.44-.92-.27-1.85-.55-2.77-.84,0,0,0,0-.01,0-5.97-1.85-11.85-3.98-17.61-6.4-6.15-2.57-12.28-5.56-17.38-9.76h0c-.18-.15-.37-.3-.55-.46h0c-1.41-1.2-2.73-2.51-3.96-3.92-.65-.75-1.26-1.53-1.83-2.34h0c-.1-.13-.2-.27-.29-.42-1.9-2.72-3.39-5.7-4.54-8.83-.07-.17-.13-.34-.19-.52-1.45-4.08-2.32-8.42-2.73-12.75-.03-.27-.01-.53,.02-.78,.04-.21,.09-.41,.16-.6,.42-1.1,1.47-1.89,2.73-1.92,.06,0,.12,0,.18,0,.09,0,.18,0,.26,.02,3.29,.17,6.54,1.16,9.56,2.64Z"/><path class="uuid-8340fc7e-8cdc-440a-ab29-52a152dc4e9f" d="M838.21,322.29c1.14,1.97,2.31,3.9,3.52,5.78h0c.21,.32,.42,.65,.63,.97,3.16,4.82,6.54,9.3,10.13,13.44,.21,.24,.42,.48,.63,.72h0c1.63,1.85,3.3,3.63,5.02,5.33,.15,.15,.31,.31,.46,.46,1.09,1.08,2.21,2.13,3.34,3.15,2.3,2.08,4.68,4.03,7.13,5.86,.19,.14,.38,.28,.56,.41,2.4,1.77,4.87,3.41,7.39,4.92,.16,.1,.33,.2,.49,.3,3.81,2.26,7.72,4.21,11.71,5.83t0,0c2.49,1.02,5.01,1.9,7.54,2.65,.12,.04,.18,.16,.15,.28h0c-.04,.12-.16,.19-.28,.15-3.19-.95-6.37-2.11-9.5-3.48,0,0,0,0-.01,0-8.07-3.53-15.86-8.4-22.98-14.41-.22-.18-.44-.38-.66-.57-.62-.53-1.24-1.07-1.85-1.62-2.14-1.93-4.22-3.97-6.25-6.11-.13-.14-.27-.28-.4-.43-2.05-2.2-4.05-4.51-5.97-6.92-.15-.19-.29-.37-.43-.56-3.77-4.78-7.29-9.97-10.54-15.55,.04-.21,.09-.41,.16-.6Z"/></g><g><path class="uuid-cc77da88-9589-4f52-8294-a5c61d9c0feb" d="M785.15,366.17c.14,.03,.28,.05,.42,.08,1.27,.22,2.56,.35,3.83,.41,.79,.04,1.58,.05,2.37,.04h.5c1.52-.06,3.05-.22,4.54-.53,3.08-.64,5.98-1.94,8.83-3.28,.43-.21,.86-.41,1.29-.62,.23-.1,.45-.22,.68-.33h0c4.32-2.08,8.61-4.23,13.1-5.9,.14-.06,.29-.11,.43-.16,.09-.03,.18-.06,.28-.1,5.01-1.8,10.09-2.79,15.38-2.46t.01,0c.24,.01,.48,.03,.72,.05-.8-.29-1.61-.58-2.41-.86,0,0,0,0,0,0-5.22-1.83-10.52-3.41-15.89-4.73-5.72-1.41-11.65-2.52-17.5-2.22h0c-.21,0-.42,.02-.63,.03h0c-1.64,.11-3.26,.34-4.88,.7-.86,.2-1.7,.42-2.53,.7h0c-.14,.04-.28,.09-.43,.14-2.78,.93-5.42,2.27-7.88,3.88-.14,.09-.27,.18-.4,.27-3.18,2.14-6.08,4.76-8.66,7.63-.16,.18-.29,.37-.39,.57-.08,.17-.15,.34-.2,.51-.28,1.01,.05,2.12,.93,2.8,.04,.03,.08,.07,.13,.09,.06,.04,.13,.09,.19,.13,2.43,1.61,5.26,2.62,8.19,3.16Z"/><path class="uuid-8340fc7e-8cdc-440a-ab29-52a152dc4e9f" d="M775.71,359.98c1.85-.8,3.7-1.55,5.55-2.25h0c.32-.12,.63-.24,.95-.36,4.78-1.76,9.55-3.17,14.28-4.22,.28-.06,.55-.12,.83-.18h0c2.13-.46,4.26-.84,6.38-1.15,.19-.03,.38-.06,.57-.08,1.35-.19,2.69-.35,4.03-.48,2.73-.26,5.45-.4,8.15-.41,.21,0,.41,0,.62,0,2.64,0,5.26,.14,7.84,.39,.17,.01,.34,.03,.51,.05,3.89,.4,7.71,1.08,11.39,2.03t.01,0c2.31,.59,4.56,1.29,6.76,2.09,.11,.04,.22-.02,.25-.12h0c.03-.11-.02-.22-.12-.25-2.77-1.01-5.64-1.86-8.59-2.53,0,0,0,0,0,0-7.6-1.75-15.7-2.39-23.93-1.87-.25,.01-.51,.03-.77,.05-.72,.05-1.45,.11-2.17,.18-2.53,.24-5.09,.6-7.66,1.05-.17,.03-.34,.06-.51,.09-2.62,.48-5.25,1.07-7.89,1.77-.2,.06-.4,.11-.6,.17-5.2,1.41-10.44,3.25-15.68,5.51-.08,.17-.15,.34-.2,.51Z"/></g><g><path class="uuid-cc77da88-9589-4f52-8294-a5c61d9c0feb" d="M805.51,306.71c.12,.07,.24,.15,.36,.23,1.07,.71,2.1,1.5,3.07,2.33,.6,.51,1.19,1.05,1.76,1.6,.12,.12,.24,.23,.35,.35,1.08,1.08,2.08,2.24,2.95,3.49,1.8,2.58,3.02,5.51,4.18,8.44l.52,1.34c.09,.23,.18,.47,.27,.7h0c1.72,4.48,3.37,8.99,5.49,13.28,.06,.14,.13,.28,.2,.41,.04,.09,.09,.17,.13,.26,2.41,4.75,5.43,8.95,9.5,12.34t0,0c.18,.15,.37,.31,.56,.46-.78-.34-1.57-.68-2.35-1.03h0c-5.06-2.25-10-4.74-14.81-7.46-5.13-2.9-10.21-6.16-14.26-10.39h0c-.15-.15-.29-.3-.44-.46h0c-1.12-1.2-2.14-2.49-3.07-3.86-.49-.73-.94-1.47-1.37-2.24h0c-.07-.13-.15-.26-.22-.4-1.39-2.59-2.39-5.36-3.07-8.23-.04-.16-.08-.32-.11-.47-.85-3.74-1.16-7.64-1.07-11.49,0-.24,.04-.47,.1-.68,.05-.18,.12-.35,.21-.51,.49-.93,1.49-1.51,2.6-1.4,.05,0,.1,0,.16,.02,.07,.01,.16,.02,.23,.04,2.87,.49,5.62,1.7,8.13,3.31Z"/><path class="uuid-8340fc7e-8cdc-440a-ab29-52a152dc4e9f" d="M794.4,304.73c.8,1.85,1.63,3.67,2.49,5.44h0c.15,.31,.3,.61,.45,.91,2.28,4.56,4.78,8.85,7.5,12.86,.16,.24,.32,.47,.48,.7h0c1.24,1.8,2.53,3.53,3.86,5.21,.12,.15,.24,.3,.36,.45,.85,1.06,1.72,2.1,2.6,3.11,1.81,2.06,3.7,4.03,5.65,5.89,.15,.14,.3,.28,.45,.42,1.93,1.81,3.93,3.5,5.98,5.09,.13,.11,.27,.21,.4,.31,3.11,2.38,6.35,4.5,9.68,6.34t0,0c2.09,1.15,4.21,2.19,6.35,3.12,.1,.05,.14,.16,.11,.26h0c-.04,.1-.16,.15-.26,.11-2.71-1.17-5.37-2.51-7.98-4.05h0c-6.73-3.94-13.06-9.03-18.69-15.06-.18-.19-.35-.38-.52-.57-.49-.53-.98-1.07-1.46-1.62-1.68-1.92-3.3-3.93-4.85-6.02-.1-.14-.21-.28-.31-.42-1.57-2.15-3.08-4.38-4.52-6.7-.11-.18-.22-.36-.32-.54-2.82-4.59-5.37-9.52-7.64-14.76,.05-.18,.12-.35,.21-.51Z"/></g><path class="uuid-2c76b3f4-2670-495c-ace9-a48695a4d4b3" d="M785.25,339.27s174.36,43.04,191.23,76.64"/><g><path class="uuid-cc77da88-9589-4f52-8294-a5c61d9c0feb" d="M751.96,355.43c.12,.02,.24,.03,.36,.04,1.08,.11,2.16,.15,3.24,.13,.66-.01,1.33-.05,1.99-.1,.14-.01,.28-.02,.42-.04,1.27-.12,2.54-.34,3.78-.68,2.55-.71,4.91-1.96,7.22-3.24,.35-.2,.7-.4,1.05-.59,.18-.1,.37-.21,.55-.31h0c3.51-1.98,6.99-4.02,10.65-5.67,.12-.06,.23-.11,.35-.16,.08-.03,.15-.06,.23-.1,4.1-1.79,8.3-2.9,12.76-2.92t0,0c.2,0,.41,0,.61,0-.69-.2-1.38-.4-2.07-.59,0,0,0,0,0,0-4.48-1.24-9.01-2.27-13.58-3.08-4.88-.86-9.91-1.46-14.8-.89h0c-.17,.01-.35,.04-.53,.06h0c-1.37,.18-2.72,.47-4.05,.86-.71,.21-1.4,.45-2.09,.73h0c-.12,.04-.23,.09-.35,.14-2.28,.94-4.42,2.2-6.39,3.69-.11,.08-.22,.16-.32,.25-2.55,1.97-4.83,4.33-6.83,6.88-.12,.16-.22,.33-.3,.5-.06,.14-.11,.29-.14,.44-.18,.86,.16,1.78,.94,2.3,.03,.02,.07,.05,.11,.07,.06,.03,.11,.07,.17,.09,2.13,1.22,4.56,1.9,7.04,2.2Z"/><path class="uuid-8340fc7e-8cdc-440a-ab29-52a152dc4e9f" d="M743.7,350.77c1.51-.78,3.01-1.51,4.53-2.2h0c.26-.12,.52-.24,.78-.35,3.91-1.74,7.83-3.19,11.74-4.33,.23-.07,.45-.13,.68-.2h0c1.76-.5,3.52-.94,5.28-1.32,.16-.04,.31-.07,.47-.1,1.12-.24,2.24-.45,3.35-.63,2.27-.37,4.55-.64,6.81-.8,.18-.01,.35-.02,.52-.03,2.21-.14,4.42-.17,6.6-.11,.14,0,.29,0,.43,.01,3.29,.12,6.52,.47,9.66,1.06t0,0c1.97,.37,3.9,.83,5.78,1.37,.09,.02,.18-.03,.21-.11h0c.02-.09-.03-.18-.11-.21-2.38-.69-4.83-1.24-7.34-1.64,0,0,0,0,0,0-6.47-1.04-13.3-1.13-20.16-.23-.21,.03-.43,.06-.64,.09-.6,.08-1.21,.17-1.81,.27-2.11,.35-4.24,.78-6.36,1.31-.14,.04-.28,.07-.42,.1-2.17,.55-4.34,1.19-6.52,1.93-.17,.06-.33,.11-.5,.18-4.28,1.47-8.57,3.3-12.84,5.49-.06,.14-.11,.29-.14,.44Z"/></g><g><path class="uuid-cc77da88-9589-4f52-8294-a5c61d9c0feb" d="M765.72,304.44c.11,.05,.21,.12,.32,.17,.94,.54,1.84,1.14,2.7,1.78,.53,.4,1.05,.81,1.56,1.24,.11,.09,.21,.18,.32,.27,.96,.84,1.87,1.76,2.67,2.76,1.65,2.06,2.84,4.45,3.97,6.84,.17,.36,.34,.73,.51,1.09,.09,.19,.18,.38,.26,.57h0c1.69,3.66,3.33,7.35,5.34,10.83,.06,.11,.13,.22,.19,.34,.04,.07,.08,.14,.13,.21,2.29,3.85,5.05,7.2,8.65,9.82t0,0c.16,.12,.33,.24,.49,.36-.67-.24-1.35-.48-2.03-.73h0c-4.36-1.61-8.64-3.42-12.83-5.43-4.46-2.15-8.9-4.6-12.53-7.92h0c-.13-.11-.26-.24-.39-.36h0c-1-.95-1.93-1.97-2.79-3.06-.45-.58-.87-1.18-1.27-1.81h0c-.07-.1-.14-.21-.2-.32-1.31-2.09-2.3-4.36-3.03-6.73-.05-.13-.08-.26-.12-.39-.92-3.09-1.4-6.34-1.54-9.57,0-.2,0-.39,.05-.58,.04-.15,.08-.3,.15-.44,.36-.8,1.17-1.35,2.1-1.32,.04,0,.09,0,.13,0,.06,0,.13,.01,.19,.02,2.44,.25,4.81,1.12,7,2.32Z"/><path class="uuid-8340fc7e-8cdc-440a-ab29-52a152dc4e9f" d="M756.29,303.4c.77,1.51,1.57,2.98,2.39,4.42h0c.14,.25,.29,.5,.43,.74,2.16,3.7,4.5,7.16,7,10.37,.15,.19,.29,.37,.44,.56h0c1.14,1.44,2.31,2.82,3.52,4.15,.11,.12,.21,.24,.33,.36,.77,.85,1.56,1.67,2.36,2.47,1.63,1.63,3.32,3.17,5.07,4.62,.14,.11,.27,.22,.4,.33,1.72,1.41,3.49,2.72,5.3,3.94,.12,.08,.24,.16,.36,.24,2.74,1.82,5.57,3.42,8.47,4.78t0,0c1.81,.85,3.65,1.6,5.5,2.26,.09,.03,.13,.13,.1,.21h0c-.03,.09-.13,.13-.21,.1-2.33-.83-4.65-1.81-6.92-2.95h0c-5.86-2.93-11.46-6.85-16.51-11.58-.16-.15-.31-.3-.47-.45-.44-.42-.88-.84-1.31-1.28-1.51-1.51-2.98-3.11-4.4-4.78-.09-.11-.19-.22-.28-.33-1.44-1.71-2.83-3.5-4.17-5.37-.1-.15-.2-.29-.3-.43-2.62-3.69-5.03-7.68-7.23-11.95,.04-.15,.08-.3,.15-.44Z"/></g></g><g><g><path class="uuid-cc77da88-9589-4f52-8294-a5c61d9c0feb" d="M1400.56,407.26c-.16,.13-.33,.24-.49,.36-1.48,1.06-3.04,2.02-4.63,2.88-.98,.54-1.99,1.04-3,1.51-.21,.1-.43,.19-.64,.29-1.97,.88-4.01,1.61-6.11,2.14-4.32,1.07-8.82,1.21-13.27,1.26-.68,0-1.35,0-2.03,0-.35,0-.71,0-1.06,0h-.01c-6.79,.01-13.58-.08-20.33,.55-.22,.01-.43,.04-.65,.06-.14,.02-.27,.03-.41,.05-7.5,.79-14.58,2.65-21.13,6.33t-.02,0c-.3,.16-.6,.33-.89,.51,.84-.86,1.69-1.73,2.54-2.59,0,0,0,0,.01-.01,5.53-5.55,11.32-10.83,17.35-15.81,6.43-5.32,13.31-10.38,20.95-13.6h0c.27-.13,.55-.24,.82-.35h0c2.16-.88,4.37-1.58,6.65-2.12,1.21-.28,2.43-.5,3.66-.67h0c.21-.04,.42-.07,.63-.09,4.13-.52,8.3-.45,12.44,.1,.23,.02,.46,.06,.68,.09,5.37,.77,10.69,2.33,15.73,4.4,.31,.13,.6,.29,.85,.48,.21,.16,.4,.34,.57,.53,.98,1.11,1.24,2.74,.53,4.15-.03,.06-.06,.13-.1,.2-.06,.09-.11,.19-.17,.28-2.1,3.55-5.1,6.58-8.49,9.08Z"/><path class="uuid-8340fc7e-8cdc-440a-ab29-52a152dc4e9f" d="M1408.79,393.56c-2.85,.12-5.67,.29-8.46,.55h0c-.47,.04-.95,.08-1.43,.13-7.18,.7-14.12,1.84-20.81,3.41-.39,.09-.78,.18-1.17,.28h0c-3,.73-5.94,1.55-8.83,2.46-.26,.08-.52,.16-.77,.25-1.84,.58-3.65,1.21-5.44,1.87-3.64,1.34-7.2,2.85-10.65,4.5-.27,.13-.53,.26-.79,.38-3.36,1.64-6.62,3.42-9.76,5.33-.21,.12-.42,.25-.62,.38-4.72,2.91-9.17,6.12-13.28,9.59t-.02,0c-2.58,2.18-5.03,4.45-7.33,6.82-.11,.11-.29,.11-.4,0h0c-.1-.11-.11-.29,0-.4,2.91-2.99,6.04-5.84,9.39-8.51,0,0,0,0,.01-.01,8.61-6.9,18.55-12.71,29.36-17.11,.33-.14,.67-.27,1.01-.4,.95-.38,1.91-.75,2.88-1.11,3.38-1.25,6.86-2.38,10.42-3.37,.24-.07,.47-.13,.71-.2,3.63-.99,7.36-1.86,11.15-2.59,.29-.05,.58-.11,.87-.16,7.5-1.4,15.31-2.29,23.39-2.63,.21,.16,.4,.34,.57,.53Z"/></g><g><path class="uuid-cc77da88-9589-4f52-8294-a5c61d9c0feb" d="M1333.55,346.55c-.11,.17-.21,.35-.31,.52-.91,1.58-1.71,3.23-2.42,4.89-.44,1.03-.84,2.08-1.21,3.14-.08,.22-.15,.44-.23,.67-.68,2.05-1.21,4.15-1.53,6.29-.65,4.41-.34,8.89,.05,13.33,.06,.67,.13,1.35,.19,2.02,.03,.35,.07,.71,.11,1.06h0c.65,6.77,1.41,13.52,1.44,20.3,0,.22,0,.43,0,.65,0,.14,0,.28,0,.41-.05,7.54-1.21,14.77-4.23,21.65t0,.02c-.13,.31-.27,.63-.42,.94,.78-.92,1.56-1.86,2.33-2.78,0,0,0,0,0-.01,4.98-6.05,9.67-12.32,14.04-18.81,4.66-6.92,9.03-14.26,11.48-22.18h0c.09-.28,.18-.57,.26-.86h0c.66-2.24,1.14-4.51,1.45-6.83,.16-1.23,.26-2.47,.31-3.71h0c.01-.21,.02-.43,.02-.64,.12-4.16-.37-8.31-1.32-12.37-.05-.23-.1-.45-.16-.67-1.29-5.27-3.36-10.41-5.92-15.23-.16-.3-.35-.57-.56-.8-.18-.19-.37-.37-.58-.51-1.2-.87-2.84-.97-4.18-.13-.06,.04-.13,.08-.19,.12-.09,.06-.18,.13-.26,.2-3.33,2.44-6.05,5.72-8.2,9.34Z"/><path class="uuid-8340fc7e-8cdc-440a-ab29-52a152dc4e9f" d="M1346.38,337.01c.16,2.85,.26,5.67,.28,8.47h0c0,.48,0,.96,0,1.44,0,7.22-.45,14.24-1.36,21.04-.05,.4-.11,.79-.17,1.19h0c-.44,3.06-.97,6.07-1.59,9.04-.05,.26-.11,.53-.17,.8-.4,1.89-.84,3.75-1.33,5.59-.98,3.76-2.13,7.45-3.43,11.04-.1,.28-.2,.55-.3,.82-1.3,3.51-2.76,6.92-4.35,10.23-.1,.22-.2,.44-.31,.65-2.43,4.98-5.19,9.72-8.25,14.15t0,.02c-1.91,2.78-3.94,5.44-6.07,7.97-.1,.12-.08,.3,.03,.4h0c.12,.1,.3,.09,.39-.03,2.69-3.19,5.22-6.59,7.55-10.18,0,0,0,0,0-.01,6.03-9.25,10.83-19.71,14.15-30.9,.1-.35,.2-.7,.3-1.05,.29-.98,.56-1.98,.82-2.97,.91-3.49,1.69-7.06,2.34-10.7,.04-.24,.09-.48,.13-.72,.63-3.71,1.13-7.5,1.49-11.35,.02-.3,.05-.59,.07-.88,.66-7.6,.78-15.46,.33-23.53-.18-.19-.37-.37-.58-.51Z"/></g><g><path class="uuid-cc77da88-9589-4f52-8294-a5c61d9c0feb" d="M1423.68,376.99c-.14,.09-.28,.16-.42,.24-1.28,.7-2.6,1.31-3.94,1.85-.83,.33-1.67,.64-2.52,.92-.18,.06-.36,.11-.54,.17-1.64,.51-3.33,.9-5.04,1.12-3.53,.45-7.1,.13-10.64-.25-.54-.06-1.07-.13-1.61-.19-.28-.03-.56-.06-.84-.1h0c-5.39-.63-10.76-1.34-16.17-1.48-.17-.01-.35-.01-.52-.01-.11,0-.22,0-.33,0-6.02-.08-11.8,.73-17.34,3.03t-.01,0c-.25,.1-.5,.21-.76,.32,.75-.61,1.51-1.22,2.26-1.81,0,0,0,0,0,0,4.9-3.88,9.99-7.52,15.24-10.91,5.6-3.61,11.53-6.98,17.88-8.81h0c.22-.07,.46-.14,.69-.2h0c1.79-.49,3.61-.84,5.47-1.05,.99-.11,1.97-.17,2.96-.19h0c.17-.01,.34-.01,.51-.01,3.32-.03,6.62,.43,9.85,1.25,.18,.04,.36,.09,.53,.14,4.19,1.11,8.25,2.85,12.06,4.96,.23,.13,.45,.29,.63,.46,.15,.15,.29,.3,.4,.47,.67,.97,.73,2.29,.03,3.34-.03,.05-.06,.1-.1,.15-.05,.07-.11,.14-.16,.21-2,2.62-4.66,4.73-7.58,6.4Z"/><path class="uuid-8340fc7e-8cdc-440a-ab29-52a152dc4e9f" d="M1431.49,366.9c-2.27-.18-4.52-.3-6.76-.36h0c-.38-.01-.77-.02-1.15-.03-5.76-.12-11.37,.13-16.81,.75-.32,.04-.63,.07-.95,.11h0c-2.45,.3-4.86,.67-7.23,1.12-.21,.04-.43,.08-.64,.12-1.51,.29-3,.61-4.48,.97-3.01,.72-5.98,1.58-8.86,2.56-.22,.08-.44,.15-.66,.23-2.82,.98-5.57,2.09-8.24,3.31-.18,.08-.35,.16-.52,.24-4.01,1.86-7.84,3.99-11.43,6.36t-.01,0c-2.25,1.48-4.4,3.06-6.45,4.72-.1,.08-.24,.06-.32-.03h0c-.07-.1-.06-.24,.03-.32,2.59-2.1,5.34-4.06,8.24-5.87,0,0,0,0,0,0,7.47-4.66,15.9-8.33,24.88-10.8,.28-.08,.56-.15,.84-.23,.79-.21,1.59-.42,2.39-.61,2.8-.67,5.66-1.24,8.57-1.69,.19-.03,.39-.06,.58-.09,2.97-.45,6.01-.79,9.08-1.01,.24-.01,.47-.03,.71-.04,6.08-.41,12.35-.37,18.79,.11,.15,.15,.29,.3,.4,.47Z"/></g><g><path class="uuid-cc77da88-9589-4f52-8294-a5c61d9c0feb" d="M1376.65,322.64c-.11,.12-.2,.25-.3,.38-.89,1.15-1.69,2.37-2.42,3.62-.45,.77-.88,1.56-1.29,2.35-.08,.17-.17,.34-.25,.5-.75,1.55-1.4,3.16-1.87,4.82-.97,3.42-1.2,7-1.36,10.55-.02,.54-.04,1.08-.06,1.62-.01,.28-.02,.57-.03,.85h0c-.19,5.43-.3,10.85-.98,16.21-.02,.17-.04,.34-.06,.52-.02,.11-.03,.22-.05,.33-.83,5.96-2.51,11.56-5.61,16.69t0,.01c-.14,.23-.28,.47-.43,.7,.71-.65,1.43-1.3,2.13-1.96,0,0,0,0,0,0,4.57-4.26,8.94-8.74,13.08-13.42,4.42-4.99,8.64-10.34,11.41-16.35h0c.1-.21,.2-.43,.3-.65h0c.75-1.7,1.37-3.45,1.86-5.26,.25-.96,.47-1.92,.63-2.9h0c.03-.17,.06-.33,.08-.51,.53-3.28,.58-6.61,.25-9.93-.01-.19-.03-.37-.06-.55-.47-4.31-1.57-8.59-3.09-12.67-.09-.25-.22-.48-.36-.69-.12-.17-.26-.33-.41-.47-.86-.81-2.15-1.06-3.29-.54-.05,.02-.11,.05-.16,.08-.07,.04-.16,.08-.23,.13-2.89,1.58-5.38,3.89-7.47,6.53Z"/><path class="uuid-8340fc7e-8cdc-440a-ab29-52a152dc4e9f" d="M1387.8,316.44c-.17,2.27-.39,4.52-.66,6.73h0c-.05,.38-.1,.76-.15,1.14-.75,5.71-1.85,11.22-3.28,16.51-.08,.31-.17,.61-.26,.92h0c-.67,2.38-1.4,4.7-2.21,6.99-.07,.2-.14,.41-.22,.61-.52,1.45-1.06,2.88-1.64,4.29-1.17,2.87-2.46,5.67-3.87,8.38-.11,.21-.22,.41-.32,.62-1.39,2.64-2.91,5.19-4.51,7.64-.1,.16-.21,.32-.32,.48-2.45,3.69-5.13,7.15-8.01,10.34t0,.01c-1.8,2-3.69,3.89-5.64,5.67-.09,.09-.1,.23-.02,.32h0c.08,.09,.23,.1,.31,.02,2.46-2.24,4.82-4.67,7.04-7.26,0,0,0,0,0,0,5.74-6.69,10.64-14.46,14.43-22.97,.12-.26,.23-.53,.35-.8,.33-.75,.65-1.5,.96-2.27,1.09-2.66,2.08-5.41,2.97-8.22,.06-.19,.12-.37,.18-.56,.89-2.87,1.68-5.82,2.37-8.83,.05-.23,.1-.46,.15-.69,1.32-5.94,2.23-12.15,2.73-18.59-.12-.17-.26-.33-.41-.47Z"/></g><g><path class="uuid-cc77da88-9589-4f52-8294-a5c61d9c0feb" d="M1454.65,332.89c-.11,.09-.23,.17-.35,.25-1.05,.75-2.15,1.42-3.27,2.04-.69,.38-1.4,.73-2.12,1.07-.15,.07-.3,.14-.45,.21-1.39,.62-2.83,1.14-4.31,1.51-3.05,.76-6.23,.86-9.37,.89-.48,0-.96,0-1.43,0-.25,0-.5,0-.75,0h0c-4.8,.01-9.59-.06-14.36,.39-.15,0-.31,.03-.46,.04l-.29,.03c-5.3,.56-10.3,1.87-14.92,4.47t-.01,0c-.21,.12-.42,.23-.63,.36,.59-.61,1.2-1.22,1.8-1.83h0c3.91-3.93,7.99-7.65,12.25-11.18,4.54-3.76,9.4-7.33,14.8-9.6h0c.19-.09,.39-.17,.58-.25h0c1.52-.62,3.09-1.12,4.7-1.49,.86-.2,1.71-.36,2.58-.47h0c.14-.03,.29-.05,.45-.06,2.91-.37,5.86-.31,8.79,.07,.17,.02,.32,.04,.48,.07,3.8,.54,7.55,1.64,11.11,3.11,.22,.09,.42,.21,.6,.34,.15,.11,.28,.24,.4,.38,.69,.78,.88,1.93,.38,2.93-.02,.05-.05,.09-.07,.14-.04,.06-.08,.14-.12,.2-1.49,2.51-3.6,4.64-6,6.41Z"/><path class="uuid-8340fc7e-8cdc-440a-ab29-52a152dc4e9f" d="M1460.47,323.21c-2.02,.08-4.01,.21-5.97,.39h0c-.34,.03-.67,.06-1.01,.09-5.07,.5-9.97,1.3-14.69,2.41-.28,.07-.55,.13-.82,.2h0c-2.12,.52-4.2,1.1-6.24,1.74-.18,.05-.37,.11-.55,.18-1.3,.41-2.58,.85-3.84,1.32-2.57,.95-5.09,2.01-7.52,3.18-.19,.09-.37,.18-.56,.27-2.38,1.16-4.68,2.42-6.89,3.76-.15,.09-.29,.17-.44,.26-3.33,2.05-6.47,4.32-9.38,6.78t-.01,0c-1.82,1.54-3.55,3.14-5.18,4.82-.08,.08-.2,.08-.28,0h0c-.07-.08-.08-.21,0-.28,2.06-2.11,4.27-4.12,6.63-6.01h0c6.08-4.88,13.1-8.98,20.74-12.09,.24-.1,.48-.19,.72-.29,.67-.27,1.35-.53,2.03-.78,2.39-.88,4.85-1.68,7.36-2.38,.17-.05,.33-.09,.5-.14,2.57-.7,5.19-1.32,7.88-1.83,.21-.04,.41-.08,.62-.11,5.3-.99,10.81-1.61,16.52-1.86,.15,.11,.28,.24,.4,.38Z"/></g><g><path class="uuid-cc77da88-9589-4f52-8294-a5c61d9c0feb" d="M1410.47,288.19c-.08,.12-.15,.24-.22,.37-.66,1.11-1.24,2.26-1.75,3.43-.32,.72-.61,1.46-.89,2.2-.06,.16-.11,.31-.17,.47-.5,1.44-.9,2.92-1.14,4.43-.5,3.11-.33,6.28-.09,9.41,.04,.48,.08,.95,.12,1.43,.02,.25,.04,.5,.06,.75h0c.39,4.79,.87,9.56,.83,14.35,0,.15,0,.31,0,.46,0,.1,0,.19,0,.29-.11,5.32-1,10.42-3.19,15.25t0,.01c-.1,.22-.2,.44-.3,.66,.56-.64,1.12-1.3,1.67-1.94,0,0,0,0,0,0,3.58-4.22,6.94-8.61,10.1-13.15,3.36-4.84,6.51-9.99,8.32-15.55h0c.07-.2,.13-.4,.19-.6h0c.48-1.57,.85-3.17,1.09-4.81,.12-.87,.21-1.74,.25-2.62h0c.01-.15,.02-.3,.02-.45,.12-2.93-.18-5.87-.81-8.75-.03-.16-.07-.32-.11-.47-.86-3.74-2.27-7.38-4.03-10.81-.11-.21-.24-.4-.39-.57-.13-.14-.26-.26-.41-.37-.84-.62-2-.71-2.95-.13-.04,.02-.09,.05-.13,.09-.06,.04-.13,.09-.19,.14-2.37,1.69-4.32,3.98-5.88,6.52Z"/><path class="uuid-8340fc7e-8cdc-440a-ab29-52a152dc4e9f" d="M1419.62,281.58c.09,2.01,.13,4.01,.12,5.98h0c0,.34,0,.68-.01,1.02-.07,5.1-.45,10.05-1.16,14.85-.04,.28-.08,.56-.13,.84h0c-.34,2.16-.74,4.28-1.21,6.37-.04,.19-.08,.37-.13,.56-.3,1.33-.63,2.64-.99,3.94-.73,2.64-1.57,5.24-2.53,7.76-.08,.19-.15,.39-.22,.58-.95,2.46-2.01,4.86-3.17,7.19-.07,.15-.15,.31-.23,.46-1.77,3.49-3.76,6.82-5.96,9.92t0,.01c-1.38,1.94-2.83,3.8-4.36,5.57-.07,.09-.06,.21,.02,.28h0c.08,.07,.21,.06,.28-.02,1.93-2.23,3.75-4.6,5.43-7.11,0,0,0,0,0,0,4.35-6.47,7.84-13.81,10.29-21.68,.08-.24,.15-.49,.22-.74,.21-.69,.41-1.39,.61-2.09,.68-2.45,1.26-4.97,1.75-7.53,.03-.17,.06-.34,.1-.51,.48-2.62,.87-5.29,1.16-8,.02-.21,.04-.42,.06-.62,.54-5.36,.7-10.91,.46-16.62-.13-.14-.26-.26-.41-.37Z"/></g><path class="uuid-2c76b3f4-2670-495c-ace9-a48695a4d4b3" d="M1442.87,308.71s-138.31,114.56-138.9,152.15"/><g><path class="uuid-cc77da88-9589-4f52-8294-a5c61d9c0feb" d="M1479.87,308.79c-.1,.07-.2,.13-.3,.19-.92,.57-1.88,1.07-2.86,1.53-.6,.28-1.22,.54-1.84,.78-.13,.05-.26,.1-.39,.15-1.2,.44-2.44,.8-3.7,1.03-2.6,.47-5.27,.37-7.91,.22-.4-.03-.8-.05-1.2-.08-.21-.01-.42-.03-.63-.04h0c-4.02-.26-8.04-.58-12.06-.47-.13,0-.26,0-.39,0-.08,0-.16,0-.25,.01-4.47,.17-8.74,1-12.76,2.91t0,0c-.18,.08-.37,.17-.55,.26,.53-.48,1.07-.96,1.61-1.43,0,0,0,0,0,0,3.49-3.07,7.13-5.97,10.89-8.68,4.02-2.9,8.29-5.63,12.94-7.23h0c.16-.06,.33-.12,.5-.17h0c1.31-.43,2.65-.76,4.02-.99,.73-.12,1.46-.2,2.19-.25h0c.12-.01,.25-.02,.38-.03,2.46-.15,4.93,.06,7.36,.55,.14,.02,.27,.05,.4,.08,3.15,.67,6.24,1.8,9.14,3.22,.18,.09,.34,.2,.49,.32,.12,.1,.23,.21,.32,.34,.54,.7,.63,1.67,.15,2.48-.02,.04-.04,.08-.07,.11-.04,.05-.07,.11-.11,.16-1.39,2.02-3.28,3.69-5.39,5.04Z"/><path class="uuid-8340fc7e-8cdc-440a-ab29-52a152dc4e9f" d="M1485.29,301c-1.69-.04-3.37-.05-5.03,0h0c-.28,0-.57,.01-.85,.02-4.28,.13-8.44,.53-12.45,1.2-.24,.04-.47,.08-.7,.12h0c-1.81,.31-3.58,.69-5.33,1.11-.16,.04-.31,.07-.47,.12-1.11,.27-2.21,.57-3.29,.89-2.21,.65-4.38,1.4-6.48,2.24-.16,.07-.32,.13-.48,.19-2.06,.84-4.06,1.77-5.99,2.77-.13,.06-.26,.13-.38,.2-2.91,1.54-5.67,3.26-8.24,5.16t0,0c-1.61,1.19-3.15,2.44-4.61,3.75-.07,.06-.17,.05-.24-.01h0c-.06-.07-.05-.18,.01-.24,1.84-1.66,3.81-3.22,5.89-4.67,0,0,0,0,0,0,5.37-3.75,11.48-6.8,18.06-8.98,.2-.07,.41-.13,.62-.2,.58-.19,1.16-.37,1.75-.54,2.05-.61,4.16-1.14,6.3-1.59,.14-.03,.28-.06,.43-.09,2.19-.45,4.43-.81,6.71-1.1,.18-.02,.35-.04,.52-.06,4.5-.54,9.16-.75,13.95-.64,.12,.1,.23,.21,.32,.34Z"/></g><g><path class="uuid-cc77da88-9589-4f52-8294-a5c61d9c0feb" d="M1445.32,268.85c-.07,.1-.14,.2-.21,.29-.61,.89-1.16,1.83-1.66,2.78-.31,.59-.6,1.19-.86,1.8-.06,.13-.11,.26-.17,.38-.5,1.18-.91,2.4-1.2,3.65-.59,2.58-.63,5.24-.6,7.89,0,.4,.01,.8,.02,1.21,0,.21,0,.42,.01,.63h0c.06,4.04,.2,8.07-.11,12.07,0,.13-.02,.26-.03,.39,0,.08-.02,.16-.02,.24-.39,4.46-1.42,8.68-3.53,12.6t0,0c-.09,.18-.19,.36-.29,.54,.5-.51,1.01-1.02,1.51-1.54h0c3.23-3.35,6.3-6.84,9.2-10.47,3.09-3.87,6.02-8.01,7.84-12.58h0c.07-.16,.13-.33,.2-.5h0c.49-1.29,.89-2.61,1.18-3.97,.15-.72,.27-1.45,.36-2.18h0c.02-.13,.03-.25,.04-.38,.27-2.45,.17-4.93-.19-7.38-.02-.14-.04-.27-.06-.4-.51-3.18-1.5-6.32-2.78-9.29-.08-.18-.18-.35-.29-.5-.1-.12-.2-.24-.32-.33-.67-.57-1.64-.71-2.47-.27-.04,.02-.08,.04-.12,.06-.05,.03-.11,.07-.16,.1-2.08,1.29-3.85,3.1-5.29,5.14Z"/><path class="uuid-8340fc7e-8cdc-440a-ab29-52a152dc4e9f" d="M1453.36,263.82c-.04,1.69-.11,3.37-.23,5.02h0c-.02,.29-.04,.57-.07,.85-.34,4.27-.94,8.4-1.8,12.38-.05,.23-.1,.46-.15,.69h0c-.4,1.79-.86,3.55-1.37,5.27-.04,.15-.09,.31-.14,.46-.33,1.1-.68,2.18-1.05,3.25-.76,2.18-1.61,4.3-2.55,6.37-.07,.16-.15,.31-.22,.47-.93,2.01-1.96,3.97-3.06,5.85-.07,.12-.14,.25-.22,.37-1.67,2.83-3.53,5.51-5.55,7.98t0,0c-1.26,1.55-2.59,3.03-3.97,4.43-.06,.07-.06,.17,0,.24h0c.07,.06,.17,.07,.23,0,1.74-1.76,3.4-3.65,4.95-5.66h0c4-5.19,7.34-11.15,9.83-17.61,.08-.2,.15-.4,.23-.61,.22-.57,.43-1.14,.63-1.72,.71-2.02,1.34-4.1,1.89-6.22,.04-.14,.07-.28,.11-.42,.55-2.17,1.03-4.38,1.42-6.64,.03-.18,.06-.35,.08-.52,.75-4.46,1.19-9.11,1.31-13.91-.1-.12-.2-.24-.32-.33Z"/></g></g><g><path class="uuid-df475573-0959-4915-9827-c784083afe58" d="M1473.67,144.96c1.01-1.34,1.7-2.92,2.01-4.57,.09-.5,.15-1.04-.08-1.49-.48-.96-1.83-.98-2.88-.74-4.11,.93-7.6,3.59-10.78,6.35-6.85,5.96-12.96,12.78-18.12,20.26,6.84-1.77,13.37-3.51,20.17-5.46,5.41-1.56,10.93-3.24,15.49-6.54,1.44-1.04,2.88-2.5,2.77-4.26-.1-1.53-1.41-2.77-2.86-3.27-1.45-.5-4.19-.36-5.73-.27Z"/><path class="uuid-dead285d-7af1-435d-897a-49a537eb07e1" d="M1368.66,245.85c24.91-38.46,58.41-71.33,97.34-95.5"/><path class="uuid-df475573-0959-4915-9827-c784083afe58" d="M1436.2,144.31c.08-1.68-.23-3.37-.9-4.91-.2-.46-.46-.94-.9-1.19-.93-.53-2.07,.22-2.8,1.01-2.87,3.08-4.26,7.24-5.33,11.32-2.31,8.78-3.51,17.86-3.57,26.94,4.66-5.32,9.08-10.43,13.59-15.87,3.6-4.34,7.21-8.83,9.12-14.12,.6-1.67,.98-3.68-.11-5.08-.94-1.21-2.72-1.5-4.2-1.1-1.48,.4-3.67,2.06-4.89,3Z"/><path class="uuid-dead285d-7af1-435d-897a-49a537eb07e1" d="M1417.62,187.22c5.5-10.69,11.01-21.39,16.51-32.08"/><path class="uuid-df475573-0959-4915-9827-c784083afe58" d="M1464.8,179.69c1.38-.95,2.54-2.23,3.36-3.69,.25-.44,.47-.94,.4-1.44-.15-1.06-1.43-1.51-2.5-1.62-4.19-.42-8.34,.99-12.23,2.61-8.39,3.48-16.34,8.02-23.6,13.48,7.05,.49,13.79,.91,20.86,1.2,5.63,.23,11.39,.39,16.76-1.3,1.69-.53,3.52-1.46,3.98-3.17,.39-1.49-.46-3.07-1.67-4.01-1.22-.94-3.86-1.67-5.35-2.07Z"/><path class="uuid-dead285d-7af1-435d-897a-49a537eb07e1" d="M1405.06,199.98c14.67-6.82,30.07-12.04,45.87-15.55"/><path class="uuid-df475573-0959-4915-9827-c784083afe58" d="M1405.9,164.87c-.15-1.67-.63-2.32-1.51-3.75-.26-.43-.58-.87-1.06-1.05-1-.39-2.02,.5-2.64,1.38-2.42,3.45-3.23,7.75-3.74,11.94-1.09,9.02-1.04,18.17,.14,27.18,3.89-5.9,7.57-11.57,11.3-17.57,2.97-4.79,5.94-9.73,7.11-15.24,.37-1.73,.46-3.78-.8-5.02-1.1-1.07-2.9-1.11-4.32-.51-1.41,.6-3.41,1.56-4.49,2.65Z"/><path class="uuid-dead285d-7af1-435d-897a-49a537eb07e1" d="M1392.33,214.02c5.07-12.44,9.18-25.27,12.29-38.34"/><path class="uuid-df475573-0959-4915-9827-c784083afe58" d="M1445.68,216.57c1.56-.62,2.97-1.61,4.09-2.86,.34-.38,.66-.81,.71-1.31,.09-1.07-1.06-1.79-2.08-2.13-4-1.34-8.36-.88-12.51-.17-8.95,1.54-17.71,4.2-26,7.91,6.77,2.04,13.25,3.94,20.07,5.8,5.44,1.48,11.02,2.91,16.64,2.45,1.77-.14,3.76-.64,4.58-2.21,.71-1.36,.24-3.1-.74-4.28-.98-1.18-3.4-2.48-4.76-3.2Z"/><path class="uuid-dead285d-7af1-435d-897a-49a537eb07e1" d="M1387.01,221.4c16.8-2.46,33.7-4.27,50.65-5.44"/></g><g><path class="uuid-168895d5-891d-4c91-b5bf-0fcf642a14bd" d="M800.71,412.65l-4.22,1.43c-.34,.12-.34,.6,0,.71l4.21,1.44c.11,.04,.2,.12,.23,.24l1.43,4.22c.12,.34,.6,.34,.71,0l1.44-4.21c.04-.11,.12-.2,.24-.23l4.22-1.43c.34-.12,.34-.6,0-.71l-4.21-1.44c-.11-.04-.2-.12-.23-.24l-1.43-4.22c-.12-.34-.6-.34-.71,0l-1.44,4.21c-.04,.11-.12,.2-.24,.23Z"/><path class="uuid-168895d5-891d-4c91-b5bf-0fcf642a14bd" d="M670.12,111.22l-4.22,1.43c-.34,.12-.34,.6,0,.71l4.21,1.44c.11,.04,.2,.12,.23,.24l1.43,4.22c.12,.34,.6,.34,.71,0l1.44-4.21c.04-.11,.12-.2,.24-.23l4.22-1.43c.34-.11,.34-.6,0-.71l-4.21-1.44c-.11-.04-.2-.12-.23-.24l-1.43-4.22c-.12-.34-.6-.34-.71,0l-1.44,4.21c-.04,.11-.13,.2-.24,.23Z"/><path class="uuid-168895d5-891d-4c91-b5bf-0fcf642a14bd" d="M1411.25,46.09l-6.81,2.3c-.55,.19-.55,.96,0,1.15l6.79,2.33c.18,.06,.32,.2,.38,.38l2.3,6.81c.19,.55,.96,.55,1.15,0l2.33-6.79c.06-.18,.2-.32,.38-.38l6.81-2.3c.55-.19,.55-.96,0-1.15l-6.79-2.33c-.18-.06-.32-.2-.38-.38l-2.3-6.81c-.19-.55-.96-.55-1.15,0l-2.33,6.79c-.06,.18-.2,.32-.38,.38Z"/><path class="uuid-168895d5-891d-4c91-b5bf-0fcf642a14bd" d="M977.6,80.77l-6.81,2.3c-.55,.19-.55,.96,0,1.15l6.79,2.33c.18,.06,.32,.2,.38,.38l2.3,6.81c.19,.55,.96,.55,1.15,0l2.33-6.79c.06-.18,.2-.32,.38-.38l6.81-2.3c.55-.19,.55-.96,0-1.15l-6.79-2.33c-.18-.06-.32-.2-.38-.38l-2.3-6.81c-.19-.55-.96-.55-1.15,0l-2.33,6.79c-.06,.18-.2,.32-.38,.38Z"/><path class="uuid-168895d5-891d-4c91-b5bf-0fcf642a14bd" d="M662.47,445.05l-6.81,2.3c-.55,.19-.55,.96,0,1.15l6.79,2.33c.18,.06,.32,.2,.38,.38l2.3,6.81c.19,.55,.96,.55,1.15,0l2.33-6.79c.06-.18,.2-.32,.38-.38l6.81-2.3c.55-.19,.55-.96,0-1.15l-6.79-2.33c-.18-.06-.32-.2-.38-.38l-2.3-6.81c-.19-.55-.96-.55-1.15,0l-2.33,6.79c-.06,.18-.2,.32-.38,.38Z"/><path class="uuid-168895d5-891d-4c91-b5bf-0fcf642a14bd" d="M864.94,128.21l-4.02,1.36c-.32,.11-.32,.57,0,.68l4.01,1.37c.11,.04,.19,.12,.22,.22l1.36,4.02c.11,.32,.57,.33,.68,0l1.37-4.01c.04-.11,.12-.19,.22-.22l4.02-1.36c.32-.11,.33-.57,0-.68l-4.01-1.37c-.11-.04-.19-.12-.22-.22l-1.36-4.02c-.11-.32-.57-.33-.68,0l-1.37,4.01c-.04,.11-.12,.19-.22,.22Z"/><path class="uuid-168895d5-891d-4c91-b5bf-0fcf642a14bd" d="M1050.38,463.42l-4.02,1.36c-.32,.11-.32,.57,0,.68l4.01,1.37c.11,.04,.19,.12,.22,.22l1.36,4.02c.11,.32,.57,.32,.68,0l1.37-4.01c.04-.11,.12-.19,.22-.22l4.02-1.36c.32-.11,.33-.57,0-.68l-4.01-1.37c-.11-.04-.19-.12-.22-.22l-1.36-4.02c-.11-.32-.57-.33-.68,0l-1.37,4.01c-.04,.11-.12,.19-.22,.22Z"/><path class="uuid-168895d5-891d-4c91-b5bf-0fcf642a14bd" d="M769.33,66.47l-4.02,1.36c-.32,.11-.32,.57,0,.68l4.01,1.37c.11,.04,.19,.12,.22,.22l1.36,4.02c.11,.32,.57,.32,.68,0l1.37-4.01c.04-.11,.12-.19,.22-.22l4.02-1.36c.32-.11,.32-.57,0-.68l-4.01-1.37c-.11-.04-.19-.12-.22-.22l-1.36-4.02c-.11-.32-.57-.32-.68,0l-1.37,4.01c-.04,.11-.12,.19-.22,.22Z"/><path class="uuid-168895d5-891d-4c91-b5bf-0fcf642a14bd" d="M1213.12,47.96l-4.02,1.36c-.32,.11-.32,.57,0,.68l4.01,1.37c.11,.04,.19,.12,.22,.22l1.36,4.02c.11,.32,.57,.33,.68,0l1.37-4.01c.04-.11,.12-.19,.22-.22l4.02-1.36c.32-.11,.33-.57,0-.68l-4.01-1.37c-.11-.04-.19-.12-.22-.22l-1.36-4.02c-.11-.32-.57-.32-.68,0l-1.37,4.01c-.04,.11-.12,.19-.22,.22Z"/><path class="uuid-168895d5-891d-4c91-b5bf-0fcf642a14bd" d="M1119.14,156.65l-4.02,1.36c-.32,.11-.33,.57,0,.68l4.01,1.37c.11,.04,.19,.12,.22,.22l1.36,4.02c.11,.32,.57,.32,.68,0l1.37-4.01c.04-.11,.12-.19,.22-.22l4.02-1.36c.32-.11,.33-.57,0-.68l-4.01-1.37c-.1-.04-.19-.12-.22-.22l-1.36-4.02c-.11-.32-.57-.32-.68,0l-1.37,4.01c-.04,.11-.12,.19-.22,.22Z"/><path class="uuid-168895d5-891d-4c91-b5bf-0fcf642a14bd" d="M1357.48,80.7l-4.02,1.36c-.32,.11-.33,.57,0,.68l4.01,1.37c.11,.04,.19,.12,.22,.22l1.36,4.02c.11,.32,.57,.33,.68,0l1.37-4.01c.04-.11,.12-.19,.22-.22l4.02-1.36c.32-.11,.33-.57,0-.68l-4.01-1.37c-.11-.04-.19-.12-.22-.22l-1.36-4.02c-.11-.32-.57-.32-.68,0l-1.37,4.01c-.04,.11-.12,.19-.22,.22Z"/><path class="uuid-168895d5-891d-4c91-b5bf-0fcf642a14bd" d="M1429.97,438.16l-5.19,1.75c-.42,.14-.42,.73,0,.88l5.17,1.77c.14,.05,.24,.15,.29,.29l1.75,5.19c.14,.42,.73,.42,.88,0l1.77-5.17c.05-.14,.15-.24,.29-.29l5.19-1.75c.42-.14,.42-.73,0-.88l-5.17-1.77c-.14-.05-.24-.15-.29-.29l-1.75-5.19c-.14-.42-.73-.42-.88,0l-1.77,5.17c-.05,.14-.15,.24-.29,.29Z"/><path class="uuid-168895d5-891d-4c91-b5bf-0fcf642a14bd" d="M711.31,240.98l-5.19,1.75c-.42,.14-.42,.73,0,.88l5.17,1.77c.14,.05,.24,.15,.29,.29l1.75,5.19c.14,.42,.73,.42,.88,0l1.77-5.17c.05-.14,.15-.24,.29-.29l5.19-1.75c.42-.14,.42-.73,0-.88l-5.17-1.77c-.14-.05-.24-.15-.29-.29l-1.75-5.19c-.14-.42-.73-.42-.88,0l-1.77,5.17c-.05,.14-.15,.24-.29,.29Z"/></g></g></g></svg>