<?xml version="1.0" encoding="UTF-8"?><svg id="uuid-bf05ba51-70b6-436b-80a2-20958e7680d6" xmlns="http://www.w3.org/2000/svg" width="41.66" height="41.66" viewBox="0 0 41.66 41.66"><defs><style>.uuid-8f4c7135-857f-4d97-baac-1b339e03ddc2{fill:#456b5b;}.uuid-693c68ac-a550-435c-aa07-2413c43462ff{fill:#fff;}</style></defs><g id="uuid-280f6813-385e-4213-98ed-734eebc53841"><g id="uuid-d755169a-be08-4e2e-80ef-4ab3f856ee63"><g><circle class="uuid-8f4c7135-857f-4d97-baac-1b339e03ddc2" cx="20.83" cy="20.83" r="20.83" transform="translate(-2.98 3.49) rotate(-8.94)"/><path class="uuid-693c68ac-a550-435c-aa07-2413c43462ff" d="M27.46,15.16c0,.68-.53,1.23-1.19,1.23s-1.19-.55-1.19-1.23,.53-1.23,1.19-1.23,1.19,.55,1.19,1.23Zm-1.48,5.52c0,2.85-2.24,5.17-5.01,5.17s-5-2.32-5-5.17,2.25-5.17,5-5.17,5.01,2.32,5.01,5.17Zm-1.8,0c0-1.83-1.44-3.31-3.21-3.31s-3.21,1.49-3.21,3.31,1.44,3.31,3.21,3.31,3.21-1.49,3.21-3.31Zm6.92-4.16c0-3.48-2.73-6.31-6.11-6.31h-8.33c-3.37,0-6.1,2.83-6.1,6.31v8.61c0,3.48,2.73,6.31,6.1,6.31h8.33c3.37,0,6.11-2.83,6.11-6.31v-8.61Zm-2,8.52c0,2.39-1.88,4.33-4.19,4.33h-8.15c-2.32,0-4.19-1.94-4.19-4.33v-8.42c0-2.39,1.88-4.33,4.19-4.33h8.15c2.32,0,4.19,1.94,4.19,4.33v8.42Z"/></g></g></g></svg>