<?xml version="1.0" encoding="UTF-8"?><svg id="uuid-c2c96e3a-e518-4f04-98a4-9d123858b3e5" xmlns="http://www.w3.org/2000/svg" width="41.66" height="41.66" viewBox="0 0 41.66 41.66"><defs><style>.uuid-0d5a57d9-ff50-47ac-8abd-1b579bce0662{fill:#456b5b;}.uuid-d5c66647-ee73-431f-bd3c-bc392350873a{fill:#fff;}</style></defs><g id="uuid-77a918da-2403-4db7-9ebe-38d2aeab871b"><g id="uuid-12febee2-0f73-4a90-8a3d-3de584027e82"><g><circle class="uuid-0d5a57d9-ff50-47ac-8abd-1b579bce0662" cx="20.83" cy="20.83" r="20.83" transform="translate(-3.07 3.61) rotate(-9.22)"/><path class="uuid-d5c66647-ee73-431f-bd3c-bc392350873a" d="M35.08,13.62c-.34-1.29-1.35-2.3-2.63-2.65-2.32-.62-11.62-.62-11.62-.62,0,0-9.31,0-11.62,.62-1.28,.35-2.29,1.36-2.63,2.65-.62,2.33-.62,7.21-.62,7.21,0,0,0,4.87,.62,7.21,.34,1.29,1.35,2.31,2.63,2.65,2.32,.62,11.62,.62,11.62,.62,0,0,9.31,0,11.62-.62,1.28-.34,2.29-1.36,2.63-2.65,.62-2.33,.62-7.21,.62-7.21,0,0,0-4.87-.62-7.21Zm-17.3,11.63v-8.85l7.78,4.43-7.78,4.43Z"/></g></g></g></svg>