<?xml version="1.0" encoding="UTF-8"?><svg id="uuid-f7354897-86b0-4029-b93c-47a925198345" xmlns="http://www.w3.org/2000/svg" width="1248.31" height="628" xmlns:xlink="http://www.w3.org/1999/xlink" viewBox="0 0 1248.31 628"><defs><style>.uuid-65994c33-881f-4723-997c-abed7d91e443{fill:#2a4957;}.uuid-8cdb1440-5565-44d6-9548-182e7a4e3769{clip-path:url(#uuid-8abc7248-e7e9-44d0-be73-3370b47d1918);}.uuid-0f45e395-662e-47be-a189-011d74bb02e2{fill:none;}</style><clipPath id="uuid-8abc7248-e7e9-44d0-be73-3370b47d1918"><rect class="uuid-0f45e395-662e-47be-a189-011d74bb02e2" x="48.31" width="1200" height="628"/></clipPath></defs><g id="uuid-f6f536b6-3f3d-4afb-837c-d9e8bcdcc5a2"><g class="uuid-8cdb1440-5565-44d6-9548-182e7a4e3769"><path class="uuid-65994c33-881f-4723-997c-abed7d91e443" d="M10.01,568.51c-.92,0-1.7-.7-1.78-1.63-.22-2.58-.33-5.2-.33-7.77,0-.44,0-.88,0-1.31,.01-.98,.84-1.78,1.81-1.76,.99,.01,1.77,.82,1.76,1.81,0,.42,0,.84,0,1.26,0,2.48,.11,4.99,.32,7.47,.08,.98-.65,1.84-1.63,1.93-.05,0-.1,0-.15,0Zm.26-17.8c-.07,0-.13,0-.2-.01-.98-.11-1.68-.99-1.57-1.97,.33-2.96,.82-5.97,1.44-8.95,.2-.97,1.14-1.58,2.11-1.38,.96,.2,1.58,1.15,1.38,2.11-.6,2.87-1.07,5.77-1.39,8.62-.1,.91-.87,1.58-1.77,1.58Zm3.62-17.4c-.17,0-.34-.02-.51-.07-.94-.28-1.48-1.28-1.19-2.22,.85-2.81,1.84-5.69,2.95-8.56,.36-.92,1.38-1.38,2.31-1.02,.92,.36,1.37,1.39,1.02,2.31-1.08,2.78-2.04,5.57-2.86,8.3-.23,.77-.94,1.27-1.71,1.27Zm6.4-16.62c-.25,0-.51-.05-.75-.17-.89-.41-1.28-1.48-.86-2.37,1.22-2.62,2.58-5.33,4.04-8.06,.46-.87,1.55-1.19,2.41-.73,.87,.47,1.2,1.55,.73,2.42-1.43,2.67-2.76,5.32-3.95,7.88-.3,.65-.95,1.03-1.62,1.03Zm8.39-15.72c-.31,0-.63-.08-.91-.25-.85-.5-1.12-1.6-.62-2.45,1.47-2.46,3.07-5.03,4.75-7.63,.53-.83,1.64-1.06,2.47-.53,.83,.54,1.06,1.64,.53,2.47-1.66,2.56-3.24,5.09-4.68,7.51-.33,.56-.93,.87-1.53,.87Zm9.68-14.98c-.35,0-.7-.1-1.01-.32-.81-.56-1.01-1.67-.46-2.48,1.69-2.45,3.42-4.89,5.17-7.32,.58-.8,1.69-.98,2.49-.4,.8,.58,.98,1.69,.4,2.49-1.74,2.41-3.45,4.83-5.13,7.26-.35,.5-.9,.77-1.47,.77Zm10.42-14.49c-.37,0-.74-.11-1.06-.35-.79-.59-.96-1.7-.37-2.49,1.77-2.39,3.56-4.78,5.36-7.16,.59-.79,1.71-.95,2.5-.35,.79,.59,.94,1.71,.35,2.5-1.79,2.38-3.58,4.76-5.35,7.14-.35,.47-.89,.72-1.43,.72Zm10.73-14.28c-.37,0-.75-.12-1.07-.36-.79-.59-.94-1.71-.35-2.5,1.79-2.37,3.57-4.75,5.34-7.13,.59-.79,1.7-.95,2.5-.37,.79,.59,.95,1.71,.37,2.5-1.77,2.39-3.56,4.77-5.36,7.15-.35,.47-.88,.71-1.43,.71Zm10.62-14.32c-.36,0-.73-.11-1.04-.34-.8-.58-.98-1.69-.4-2.49,1.74-2.41,3.46-4.83,5.14-7.25,.56-.81,1.67-1.01,2.48-.45,.81,.56,1.01,1.67,.45,2.48-1.69,2.45-3.42,4.88-5.18,7.31-.35,.48-.89,.74-1.45,.74Zm10.14-14.68c-.33,0-.67-.09-.97-.29-.83-.54-1.06-1.64-.52-2.47,1.68-2.57,3.26-5.1,4.71-7.5,.51-.84,1.6-1.12,2.45-.61,.84,.51,1.12,1.6,.61,2.45-1.47,2.44-3.08,5-4.78,7.61-.34,.52-.91,.81-1.5,.81Zm9.17-15.3c-.29,0-.58-.07-.85-.22-.87-.47-1.19-1.55-.72-2.42,1.44-2.66,2.78-5.3,3.99-7.86,.42-.89,1.48-1.27,2.38-.85s1.27,1.49,.85,2.38c-1.24,2.62-2.61,5.32-4.08,8.04-.32,.6-.94,.93-1.57,.93Zm7.59-16.12c-.22,0-.44-.04-.66-.13-.92-.36-1.36-1.4-1-2.32,1.09-2.76,2.08-5.54,2.93-8.27,.29-.94,1.29-1.46,2.23-1.17,.94,.29,1.47,1.29,1.17,2.23-.88,2.81-1.89,5.68-3.02,8.52-.28,.7-.95,1.13-1.66,1.13Zm5.27-16.99c-.13,0-.26-.01-.39-.04-.96-.21-1.57-1.17-1.36-2.13,.64-2.88,1.14-5.78,1.5-8.62,.12-.98,1.04-1.65,1.99-1.55,.98,.12,1.67,1.02,1.55,1.99-.37,2.95-.9,5.96-1.56,8.95-.18,.83-.92,1.4-1.74,1.4Zm2.22-17.65h-.05c-.99-.03-1.76-.85-1.73-1.84,.03-.86,.04-1.73,.04-2.61,0-1.1-.02-2.21-.06-3.32-.04-.95-.09-1.89-.15-2.82-.07-.98,.68-1.83,1.66-1.9,1.02-.03,1.84,.68,1.9,1.66,.06,.96,.12,1.94,.16,2.92,.04,1.16,.06,2.31,.06,3.45,0,.91-.01,1.81-.04,2.71-.03,.97-.82,1.73-1.78,1.73Zm-1.24-17.74c-.85,0-1.6-.61-1.76-1.48-.5-2.87-1.17-5.72-1.97-8.47-.28-.95,.26-1.94,1.21-2.21,.95-.28,1.94,.27,2.21,1.21,.84,2.87,1.53,5.85,2.06,8.86,.17,.97-.48,1.9-1.45,2.07-.1,.02-.21,.03-.31,.03Zm-4.99-17.05c-.7,0-1.36-.41-1.64-1.09-1.1-2.63-2.38-5.27-3.8-7.84-.48-.86-.16-1.95,.7-2.42,.86-.48,1.94-.16,2.42,.7,1.48,2.68,2.82,5.44,3.97,8.18,.38,.91-.05,1.95-.95,2.33-.22,.1-.46,.14-.69,.14Zm-8.56-15.59c-.57,0-1.13-.27-1.47-.78-1.59-2.32-3.36-4.69-5.25-7.02-.62-.77-.5-1.89,.26-2.51,.76-.62,1.89-.5,2.51,.26,1.95,2.41,3.77,4.85,5.42,7.25,.56,.81,.35,1.92-.46,2.48-.31,.21-.66,.31-1.01,.31Zm-11.17-13.88c-.48,0-.96-.19-1.31-.58-1.89-2.06-3.9-4.14-6.14-6.35-.7-.69-.71-1.82-.01-2.52,.69-.7,1.82-.71,2.52-.01,2.28,2.26,4.33,4.38,6.26,6.47,.67,.73,.62,1.85-.1,2.52-.34,.32-.78,.47-1.21,.47Zm-12.65-12.58c-.44,0-.87-.16-1.22-.48-2.16-2.01-4.36-4.01-6.57-6-.73-.66-.79-1.79-.13-2.52s1.79-.79,2.52-.13c2.22,2,4.43,4.01,6.61,6.04,.72,.67,.76,1.8,.09,2.52-.35,.38-.83,.57-1.31,.57Zm-13.23-11.98c-.42,0-.85-.15-1.19-.46-2.21-1.99-4.43-3.99-6.62-6.01-.72-.67-.77-1.8-.1-2.52,.67-.72,1.79-.77,2.52-.1,2.19,2.01,4.39,4,6.59,5.98,.73,.66,.79,1.79,.14,2.52-.35,.39-.84,.59-1.33,.59Zm-13.1-12.11c-.45,0-.89-.17-1.24-.5-2.3-2.23-4.37-4.31-6.34-6.38-.68-.71-.65-1.84,.06-2.52,.71-.68,1.84-.65,2.52,.06,1.93,2.03,3.97,4.08,6.24,6.27,.71,.69,.73,1.82,.04,2.52-.35,.36-.82,.54-1.28,.54Zm-12.27-12.93c-.5,0-1-.21-1.36-.62-2.02-2.36-3.92-4.73-5.65-7.05-.59-.79-.43-1.91,.36-2.5,.79-.59,1.91-.43,2.5,.36,1.68,2.26,3.53,4.57,5.5,6.87,.64,.75,.55,1.87-.2,2.51-.34,.29-.75,.43-1.16,.43Zm-10.61-14.31c-.59,0-1.17-.3-1.51-.83l-.57-.91c-1.36-2.21-2.65-4.6-3.84-7.08-.43-.89-.05-1.95,.84-2.38,.88-.43,1.95-.05,2.38,.84,1.13,2.37,2.37,4.64,3.66,6.76l.54,.88c.53,.83,.27,1.94-.56,2.46-.3,.19-.62,.27-.95,.27Zm-7.74-16.04c-.73,0-1.42-.45-1.68-1.18-1-2.76-1.91-5.68-2.71-8.65-.26-.95,.31-1.93,1.26-2.19,.95-.26,1.93,.31,2.19,1.26,.78,2.88,1.66,5.69,2.62,8.37,.34,.93-.14,1.95-1.07,2.28-.2,.07-.41,.11-.61,.11Zm-4.66-17.2c-.84,0-1.59-.59-1.75-1.45-.55-2.89-1.03-5.89-1.4-8.93-.12-.98,.57-1.87,1.55-1.99,.97-.13,1.87,.57,1.99,1.55,.37,2.95,.83,5.88,1.37,8.69,.19,.97-.45,1.9-1.42,2.09-.11,.02-.23,.03-.34,.03Zm-2.21-17.69c-.93,0-1.72-.73-1.78-1.67C.12,178.4,.02,175.36,0,172.35c0-.99,.79-1.79,1.77-1.79h0c.98,0,1.78,.79,1.78,1.77,.02,2.95,.12,5.91,.3,8.81,.06,.98-.68,1.83-1.67,1.89-.04,0-.08,0-.11,0Zm-.1-17.83s-.06,0-.09,0c-.98-.05-1.74-.89-1.69-1.87,.15-2.98,.38-6.01,.69-8.99,.1-.98,.97-1.69,1.96-1.59,.98,.1,1.69,.98,1.59,1.96-.3,2.92-.53,5.88-.68,8.8-.05,.95-.84,1.7-1.78,1.7Zm1.85-17.74c-.09,0-.19,0-.28-.02-.97-.16-1.63-1.07-1.48-2.04,.48-2.98,1.04-5.96,1.67-8.86,.21-.96,1.16-1.57,2.12-1.36s1.57,1.16,1.36,2.12c-.62,2.84-1.17,5.76-1.64,8.67-.14,.88-.9,1.5-1.76,1.5Zm3.81-17.41c-.16,0-.32-.02-.48-.07-.95-.27-1.5-1.25-1.23-2.2,.82-2.92,1.74-5.82,2.72-8.61,.33-.93,1.34-1.42,2.27-1.09,.93,.33,1.42,1.34,1.09,2.27-.96,2.72-1.85,5.54-2.65,8.39-.22,.79-.94,1.3-1.72,1.3Zm77.04-6.63c-.8,0-1.53-.54-1.73-1.36-.24-.96,.35-1.92,1.31-2.16,2.65-.65,5.05-1.88,7.13-3.66,.75-.64,1.88-.55,2.51,.2,.64,.75,.55,1.87-.2,2.51-2.51,2.14-5.4,3.63-8.59,4.41-.14,.03-.29,.05-.43,.05ZM13.57,113.24c-.24,0-.48-.05-.71-.15-.9-.39-1.32-1.44-.93-2.34,1.22-2.82,2.53-5.57,3.9-8.17,.46-.87,1.54-1.21,2.41-.75,.87,.46,1.21,1.54,.75,2.41-1.33,2.53-2.6,5.19-3.78,7.92-.29,.67-.95,1.08-1.64,1.08Zm84.29-.92c-.25,0-.51-.05-.75-.17-.89-.42-1.28-1.48-.86-2.37,1.1-2.36,1.76-4.91,1.95-7.57l.02-.39c.06-.98,.92-1.74,1.9-1.66,.98,.06,1.73,.91,1.67,1.9l-.03,.4c-.22,3.11-.99,6.08-2.28,8.84-.3,.65-.95,1.03-1.62,1.03Zm-75.96-14.83c-.33,0-.66-.09-.96-.28-.83-.53-1.07-1.64-.53-2.46,1.67-2.59,3.45-5.08,5.29-7.4,.61-.77,1.74-.9,2.51-.29,.77,.61,.9,1.74,.29,2.51-1.77,2.22-3.47,4.61-5.08,7.11-.34,.53-.92,.82-1.5,.82Zm77.21-2.6c-.78,0-1.5-.52-1.72-1.31-.72-2.64-1.9-5.16-3.5-7.5-.56-.81-.35-1.92,.46-2.48,.81-.56,1.92-.35,2.48,.46,1.83,2.66,3.17,5.55,4,8.57,.26,.95-.3,1.93-1.25,2.19-.16,.04-.32,.06-.47,.06Zm-66.1-11.31c-.46,0-.91-.17-1.26-.52-.7-.7-.7-1.83,0-2.52,2.19-2.19,4.5-4.22,6.87-6.04,.78-.6,1.9-.45,2.5,.33,.6,.78,.45,1.9-.33,2.5-2.24,1.72-4.43,3.65-6.52,5.73-.35,.35-.8,.52-1.26,.52Zm56.31-3.25c-.4,0-.8-.13-1.13-.41-2.11-1.74-4.51-3.29-7.14-4.61-.88-.44-1.24-1.51-.8-2.39,.44-.88,1.51-1.24,2.39-.8,2.87,1.44,5.49,3.13,7.81,5.04,.76,.63,.87,1.75,.24,2.51-.35,.43-.86,.65-1.38,.65Zm-42.07-7.31c-.7,0-1.36-.41-1.64-1.09-.38-.91,.04-1.95,.95-2.34,2.73-1.15,5.79-1.94,9.09-2.34,.96-.11,1.87,.58,1.99,1.56,.12,.98-.58,1.87-1.56,1.99-2.97,.36-5.7,1.06-8.13,2.09-.23,.1-.46,.14-.69,.14Zm26.28-.71c-.16,0-.32-.02-.48-.07-2.77-.78-5.61-1.3-8.44-1.55-.98-.09-1.71-.95-1.62-1.93,.09-.98,.95-1.69,1.93-1.62,3.05,.27,6.1,.83,9.09,1.67,.95,.27,1.5,1.25,1.24,2.2-.22,.79-.94,1.3-1.72,1.3Z"/></g></g></svg>