<?xml version="1.0" encoding="UTF-8"?><svg xmlns="http://www.w3.org/2000/svg" width="616.11" height="482.72" viewBox="0 0 616.11 482.72"><defs><style>.uuid-fe48b3ae-d296-4488-aad6-3e0ef365cbe5{opacity:.68;}.uuid-f3c9aba1-d0c0-4afd-817f-05b76430212f,.uuid-f4675ff7-f217-4a79-b227-64be05ef91a5{fill:#6b340c;}.uuid-a8c0f56f-e625-41a5-ba4e-dae0ed7eac53,.uuid-f5f84bc7-15fd-453e-bbfc-6bce2f6a6e90,.uuid-c144d82f-c894-4a83-818f-ee00493220a9{fill:#fff;}.uuid-fae2de53-6fc7-46fc-994f-f5a4a7e8bd41{fill:#81410f;}.uuid-c2f84968-6943-49bf-880b-248c9d433b9b{fill:#e5ae4c;}.uuid-f5f84bc7-15fd-453e-bbfc-6bce2f6a6e90,.uuid-f4675ff7-f217-4a79-b227-64be05ef91a5,.uuid-63de8c8b-a79c-43a9-885d-692db304669e{opacity:.3;}.uuid-b4b72c09-2280-4c96-b12c-32b7e3a1d35d{fill:#416f54;}.uuid-955af55d-2503-4f8f-be4f-d05d1381ba48{letter-spacing:0em;}.uuid-cc52a97f-4a2c-45f5-98ab-3c71f5d7a935{isolation:isolate;}.uuid-adbd6db8-5a75-4802-8908-93775e43b80f,.uuid-7723b670-45a0-425b-acee-b8ab40d0358f{opacity:.2;}.uuid-7e1ccdb6-4300-434d-aeea-f6c7af1a8841{fill:#5a9877;}.uuid-57a586e4-b797-4e8e-80bf-a249a3a9b0b7{fill:#d9edf7;}.uuid-b817c273-4abf-4e25-97a0-4b60017b8b94{opacity:.4;}.uuid-b817c273-4abf-4e25-97a0-4b60017b8b94,.uuid-97654a53-cbe7-490b-b6a9-74ea639a39af,.uuid-49c9eefa-79d0-4443-95a1-f88d76613b1a{fill:#cc7f21;}.uuid-a4298185-dc40-4343-aeb2-e8d56120797a,.uuid-63de8c8b-a79c-43a9-885d-692db304669e,.uuid-7723b670-45a0-425b-acee-b8ab40d0358f{fill:#2a4957;}.uuid-f4675ff7-f217-4a79-b227-64be05ef91a5,.uuid-9c6f2591-2a9f-49e0-b1ae-4a460ac51a2a,.uuid-f16c1244-2352-4099-8bc4-20f48806bf1e,.uuid-63de8c8b-a79c-43a9-885d-692db304669e,.uuid-7723b670-45a0-425b-acee-b8ab40d0358f,.uuid-00b37a8f-16ac-4a54-9c56-f1dfb6009ed6{mix-blend-mode:multiply;}.uuid-fe654e2d-56d1-4c9d-9aea-738dd310b802,.uuid-00b37a8f-16ac-4a54-9c56-f1dfb6009ed6{fill:#c9cccd;}.uuid-9c6f2591-2a9f-49e0-b1ae-4a460ac51a2a{opacity:.44;}.uuid-c144d82f-c894-4a83-818f-ee00493220a9{font-family:Montserrat-Bold, Montserrat;font-size:15.09px;}.uuid-f16c1244-2352-4099-8bc4-20f48806bf1e{opacity:.29;}.uuid-4c79e4d9-8715-4c05-9419-b006e3800fd4{fill:#b6d3e1;}.uuid-97654a53-cbe7-490b-b6a9-74ea639a39af{opacity:.7;}.uuid-c1d3fb5b-d927-45c9-95b3-e43bc81f9329{letter-spacing:-.04em;}.uuid-ca426ca6-c774-4c16-aa0d-bab474068efe{letter-spacing:-.01em;}.uuid-c3e92c33-be61-45c4-b9d7-7f90bda3a938{fill:#1c3239;}</style></defs><g class="uuid-cc52a97f-4a2c-45f5-98ab-3c71f5d7a935"><g id="uuid-5d8b4240-1a24-4f1e-ac23-aeb00431b01e"><g id="uuid-b16263a5-3170-48a5-b4e2-8c2c13c1a446"><path class="uuid-a4298185-dc40-4343-aeb2-e8d56120797a" d="M558.97,419.52c-.07,0-.13,0-.2-.01-3.12-.35-6.17-1.08-9.08-2.15-.92-.34-1.4-1.37-1.05-2.29,.34-.92,1.36-1.4,2.29-1.05,2.63,.98,5.4,1.63,8.24,1.95,.98,.11,1.68,.99,1.57,1.97-.1,.91-.88,1.58-1.77,1.58Zm8.89-.03c-.89,0-1.66-.67-1.77-1.57-.11-.98,.58-1.87,1.56-1.98,2.8-.33,5.59-.98,8.29-1.92,.94-.32,1.95,.17,2.27,1.1,.32,.93-.17,1.95-1.1,2.27-2.94,1.03-5.99,1.73-9.05,2.09-.07,0-.14,.01-.21,.01Zm16.71-5.84c-.6,0-1.18-.3-1.52-.84-.52-.84-.26-1.94,.57-2.46,2.45-1.52,4.68-3.29,6.64-5.27,.69-.7,1.82-.71,2.52-.01,.7,.69,.71,1.82,.01,2.52-2.15,2.18-4.61,4.13-7.29,5.79-.29,.18-.62,.27-.94,.27Zm-42.16-.27c-.34,0-.7-.1-1-.31-2.52-1.71-4.88-3.76-7.03-6.08-.67-.72-.63-1.85,.1-2.52,.72-.67,1.85-.63,2.52,.1,1.97,2.12,4.13,3.99,6.42,5.56,.82,.55,1.03,1.66,.47,2.48-.34,.51-.91,.78-1.48,.78Zm54.5-12.34c-.3,0-.6-.07-.87-.23-.86-.48-1.16-1.57-.68-2.43,1.4-2.48,2.4-5.1,2.98-7.8,.21-.96,1.16-1.58,2.12-1.37,.96,.21,1.58,1.15,1.37,2.12-.65,3.05-1.78,6-3.36,8.8-.33,.58-.93,.91-1.56,.91Zm-66.59-.57c-.6,0-1.18-.3-1.52-.84-1.55-2.5-2.96-5.25-4.18-8.18-.38-.91,.05-1.95,.95-2.33,.9-.38,1.95,.05,2.33,.95,1.15,2.75,2.48,5.34,3.93,7.68,.52,.84,.26,1.94-.58,2.46-.29,.18-.62,.27-.94,.27Zm-6.95-16.36c-.79,0-1.51-.53-1.72-1.33-.79-2.99-1.31-6.06-1.52-9.12-.07-.98,.67-1.84,1.65-1.9,1.02-.09,1.84,.67,1.9,1.65,.2,2.84,.67,5.68,1.41,8.45,.25,.95-.31,1.93-1.27,2.18-.15,.04-.31,.06-.46,.06Zm77.21-.23c-.91,0-1.68-.69-1.77-1.61-.26-2.7-.93-5.45-1.98-8.17-.36-.92,.1-1.95,1.02-2.31,.92-.36,1.95,.1,2.31,1.02,1.17,3.02,1.91,6.09,2.21,9.11,.1,.98-.62,1.85-1.6,1.95-.06,0-.12,0-.17,0Zm-78.47-17.45c-.07,0-.13,0-.2-.01-.98-.11-1.68-.99-1.57-1.97,.33-2.93,.91-5.96,1.75-9.01,.26-.95,1.24-1.51,2.19-1.25,.95,.26,1.51,1.24,1.25,2.19-.78,2.86-1.33,5.71-1.64,8.46-.1,.91-.87,1.59-1.77,1.59Zm4.57-17.17c-.22,0-.45-.04-.67-.13-.91-.37-1.35-1.41-.98-2.32,1.08-2.65,2.36-5.42,3.81-8.24,.45-.88,1.53-1.22,2.4-.77,.88,.45,1.22,1.53,.77,2.4-1.4,2.72-2.64,5.4-3.68,7.95-.28,.69-.95,1.11-1.65,1.11Zm8.09-15.88c-.31,0-.63-.08-.91-.25-.85-.51-1.12-1.6-.62-2.45,1.43-2.4,3-4.89,4.78-7.62,.54-.82,1.65-1.05,2.47-.52,.82,.54,1.05,1.65,.52,2.47-1.76,2.69-3.3,5.14-4.71,7.49-.33,.56-.92,.87-1.53,.87Zm9.74-14.96c-.35,0-.7-.1-1.01-.32-.81-.56-1.01-1.67-.45-2.48,1.69-2.44,3.4-4.89,5.12-7.33,.57-.81,1.68-1,2.49-.43,.81,.57,1,1.68,.43,2.49-1.71,2.43-3.42,4.87-5.1,7.3-.35,.5-.9,.77-1.47,.77Zm10.23-14.63c-.35,0-.71-.1-1.02-.32-.81-.56-1.01-1.67-.45-2.48,1.7-2.45,3.37-4.9,5-7.35,.54-.82,1.65-1.05,2.47-.5,.82,.55,1.05,1.65,.5,2.47-1.64,2.47-3.33,4.94-5.04,7.41-.35,.5-.9,.77-1.47,.77Zm9.82-14.9c-.32,0-.64-.08-.92-.26-.84-.51-1.11-1.61-.6-2.45,1.65-2.71,3.08-5.21,4.37-7.65,.46-.87,1.54-1.2,2.41-.74,.87,.46,1.2,1.54,.74,2.41-1.33,2.5-2.79,5.06-4.48,7.83-.34,.55-.92,.86-1.53,.86Zm8.3-15.78c-.24,0-.47-.05-.7-.14-.91-.39-1.33-1.44-.94-2.34,1.2-2.79,2.2-5.54,2.98-8.18,.28-.94,1.27-1.48,2.22-1.2,.94,.28,1.48,1.27,1.2,2.22-.82,2.77-1.87,5.65-3.12,8.57-.29,.68-.95,1.08-1.64,1.08Zm4.99-17.06c-.08,0-.17,0-.25-.02-.98-.14-1.65-1.04-1.51-2.02,.33-2.33,.5-4.66,.5-6.92,0-.55-.01-1.1-.03-1.64-.03-.99,.74-1.81,1.72-1.84,1.02-.09,1.81,.74,1.84,1.72,.02,.59,.03,1.18,.03,1.76,0,2.44-.18,4.94-.54,7.43-.13,.89-.89,1.53-1.76,1.53Zm-343.83-1.48h0c-3.01,0-5.99-.03-8.93-.06-.98-.01-1.78-.82-1.76-1.8,.01-.98,.81-1.76,1.78-1.76h.02c2.93,.03,5.9,.05,8.9,.06,.99,0,1.78,.8,1.78,1.79s-.8,1.78-1.78,1.78Zm8.92-.02c-.98,0-1.78-.79-1.78-1.77,0-.98,.79-1.79,1.77-1.79,2.94-.02,5.91-.05,8.91-.09h.02c.98,0,1.77,.78,1.78,1.76,.01,.99-.78,1.79-1.76,1.81-3.01,.04-5.99,.07-8.93,.09h-.01Zm-26.76-.18h-.04c-3.02-.06-5.99-.14-8.94-.24-.98-.03-1.76-.86-1.72-1.84,.03-.98,.82-1.83,1.84-1.72,2.93,.09,5.89,.17,8.89,.23,.99,.02,1.77,.84,1.75,1.82-.02,.97-.82,1.75-1.78,1.75Zm44.6-.05c-.97,0-1.76-.78-1.78-1.75-.02-.98,.76-1.8,1.75-1.82,2.18-.04,4.38-.09,6.6-.15,.77-.02,1.53-.04,2.3-.06,.99-.07,1.81,.74,1.84,1.72,.03,.99-.74,1.81-1.73,1.84-.77,.03-1.55,.05-2.32,.06-2.22,.05-4.42,.1-6.61,.15h-.03Zm-62.42-.52s-.05,0-.08,0c-3.02-.13-5.99-.29-8.93-.46-.98-.06-1.74-.9-1.68-1.88,.06-.98,.9-1.74,1.88-1.68,2.92,.17,5.88,.32,8.88,.45,.98,.04,1.75,.88,1.7,1.86-.04,.96-.83,1.7-1.78,1.7Zm80.25-.07c-.94,0-1.73-.74-1.78-1.68-.06-.98,.7-1.83,1.68-1.88,2.98-.17,5.93-.37,8.85-.6,1.01-.06,1.84,.65,1.92,1.64,.08,.98-.65,1.84-1.64,1.92-2.95,.24-5.93,.44-8.94,.61-.03,0-.07,0-.1,0Zm-98.05-.97s-.09,0-.13,0c-3.02-.22-5.99-.47-8.92-.73-.98-.09-1.7-.96-1.61-1.94,.09-.98,.94-1.71,1.94-1.61,2.91,.26,5.86,.51,8.86,.73,.98,.07,1.72,.93,1.65,1.91-.07,.94-.85,1.65-1.78,1.65Zm115.83-.46c-.9,0-1.68-.68-1.77-1.6-.1-.98,.61-1.86,1.59-1.96,2.96-.31,5.9-.66,8.81-1.03,.98-.12,1.87,.56,2,1.54,.13,.98-.56,1.87-1.54,2-2.94,.38-5.91,.73-8.9,1.04-.06,0-.13,.01-.19,.01Zm-133.59-1.17c-.06,0-.13,0-.2-.01-3.02-.33-5.98-.7-8.89-1.08-.98-.13-1.66-1.03-1.53-2,.13-.98,1.04-1.66,2-1.53,2.88,.38,5.82,.74,8.81,1.07,.98,.11,1.68,.99,1.58,1.97-.1,.91-.87,1.59-1.77,1.59Zm151.27-1.12c-.87,0-1.63-.63-1.76-1.51-.15-.97,.52-1.88,1.49-2.03,2.95-.45,5.87-.94,8.76-1.45,.97-.18,1.89,.48,2.07,1.45,.17,.97-.48,1.9-1.45,2.07-2.92,.52-5.86,1.01-8.84,1.46-.09,.01-.18,.02-.27,.02Zm-168.94-1.25c-.09,0-.19,0-.28-.02-3.03-.48-6-1-8.84-1.53-.97-.18-1.6-1.11-1.42-2.08,.18-.97,1.12-1.6,2.08-1.42,2.8,.53,5.74,1.04,8.73,1.52,.97,.16,1.64,1.07,1.48,2.04-.14,.88-.9,1.5-1.76,1.5Zm186.5-1.86c-.83,0-1.58-.59-1.75-1.43-.19-.97,.43-1.91,1.4-2.1,2.93-.59,5.82-1.2,8.69-1.84,.96-.21,1.91,.39,2.13,1.35,.21,.96-.39,1.92-1.35,2.13-2.89,.64-5.81,1.26-8.76,1.85-.12,.02-.24,.03-.35,.03Zm-204.02-1.46c-.13,0-.26-.01-.39-.04-2.96-.66-5.89-1.37-8.73-2.12-.95-.25-1.52-1.22-1.27-2.18,.25-.95,1.24-1.52,2.18-1.27,2.79,.73,5.69,1.43,8.6,2.08,.96,.21,1.57,1.17,1.35,2.13-.19,.83-.92,1.4-1.74,1.4Zm221.43-2.41c-.8,0-1.53-.55-1.73-1.36-.23-.96,.35-1.92,1.31-2.16,2.9-.71,5.77-1.44,8.61-2.19,.95-.25,1.93,.31,2.18,1.27,.25,.95-.32,1.93-1.27,2.18-2.86,.76-5.75,1.5-8.68,2.21-.14,.03-.28,.05-.43,.05Zm-238.67-2.14c-.17,0-.35-.03-.53-.08-2.93-.91-5.8-1.88-8.53-2.88-.92-.34-1.4-1.36-1.06-2.29,.34-.92,1.36-1.4,2.29-1.06,2.68,.98,5.49,1.93,8.36,2.82,.94,.29,1.47,1.29,1.18,2.23-.24,.77-.94,1.26-1.7,1.26Zm255.91-2.43c-.78,0-1.49-.51-1.71-1.3-.27-.95,.28-1.93,1.23-2.2,2.87-.82,5.72-1.66,8.53-2.51,.94-.29,1.94,.25,2.23,1.19,.29,.94-.25,1.94-1.19,2.23-2.83,.86-5.69,1.7-8.58,2.53-.16,.05-.33,.07-.49,.07Zm210.91-.13c-.81,0-1.55-.56-1.74-1.39-.62-2.73-1.52-5.47-2.66-8.17-.39-.91,.04-1.95,.94-2.34,.91-.38,1.95,.04,2.34,.94,1.23,2.88,2.19,5.83,2.86,8.77,.22,.96-.38,1.92-1.34,2.14-.13,.03-.27,.04-.4,.04Zm-483.53-3.6c-.24,0-.48-.05-.71-.15-2.82-1.23-5.56-2.53-8.16-3.87-.87-.45-1.22-1.53-.76-2.4,.45-.87,1.53-1.22,2.4-.76,2.52,1.31,5.19,2.58,7.94,3.77,.9,.39,1.32,1.44,.92,2.35-.29,.67-.95,1.07-1.64,1.07Zm289.7-1.45c-.75,0-1.45-.48-1.7-1.24-.3-.94,.21-1.94,1.15-2.24,2.85-.92,5.66-1.84,8.45-2.78,.94-.31,1.95,.19,2.26,1.12,.32,.93-.19,1.94-1.12,2.26-2.8,.94-5.63,1.88-8.5,2.8-.18,.06-.36,.09-.55,.09Zm16.91-5.69c-.74,0-1.42-.46-1.68-1.19-.33-.93,.16-1.95,1.09-2.27,2.83-.99,5.62-1.99,8.38-2.99,.92-.34,1.95,.14,2.29,1.07,.34,.93-.14,1.95-1.07,2.29-2.77,1.01-5.58,2.01-8.42,3.01-.2,.07-.4,.1-.59,.1Zm-322.4-1.07c-.32,0-.65-.09-.94-.27-2.61-1.62-5.12-3.34-7.48-5.11-.79-.59-.95-1.71-.36-2.5s1.71-.95,2.5-.36c2.28,1.71,4.71,3.37,7.22,4.93,.84,.52,1.09,1.62,.57,2.46-.34,.54-.92,.84-1.52,.84Zm492.46-4.55c-.6,0-1.18-.3-1.52-.85-1.46-2.36-3.15-4.75-5.02-7.1-.61-.77-.49-1.89,.28-2.51,.77-.62,1.89-.49,2.51,.28,1.97,2.46,3.74,4.97,5.27,7.45,.52,.84,.26,1.94-.58,2.46-.29,.18-.62,.27-.94,.27Zm-153.29-.46c-.72,0-1.4-.44-1.67-1.16-.34-.92,.12-1.95,1.05-2.3,2.81-1.05,5.6-2.1,8.34-3.14,.92-.35,1.95,.11,2.3,1.04,.35,.92-.11,1.95-1.03,2.3-2.75,1.04-5.54,2.09-8.36,3.15-.21,.08-.42,.11-.62,.11Zm-353.37-5.68c-.43,0-.86-.16-1.2-.47-2.25-2.06-4.39-4.23-6.37-6.47-.65-.74-.58-1.87,.15-2.52s1.86-.59,2.52,.15c1.9,2.15,3.96,4.24,6.11,6.21,.73,.67,.78,1.79,.11,2.52-.35,.38-.83,.58-1.32,.58Zm370.06-.64c-.72,0-1.39-.44-1.67-1.15-.35-.92,.11-1.95,1.03-2.3l8.33-3.19c.92-.35,1.95,.11,2.3,1.03,.35,.92-.11,1.95-1.03,2.3l-8.33,3.19c-.21,.08-.43,.12-.64,.12Zm16.67-6.36c-.72,0-1.4-.44-1.67-1.16-.35-.92,.12-1.95,1.04-2.3,2.84-1.07,5.62-2.11,8.37-3.12,.93-.34,1.95,.14,2.29,1.06,.34,.92-.13,1.95-1.06,2.29-2.74,1.01-5.52,2.04-8.35,3.11-.21,.08-.42,.12-.63,.12Zm108.85-.78c-.45,0-.91-.17-1.26-.52-2.1-2.1-4.3-4-6.54-5.67-.79-.59-.95-1.71-.36-2.5,.59-.79,1.71-.95,2.5-.36,2.37,1.77,4.7,3.79,6.92,6,.7,.7,.7,1.82,0,2.52-.35,.35-.8,.52-1.26,.52Zm-92.1-5.34c-.74,0-1.43-.46-1.68-1.2-.32-.93,.17-1.95,1.1-2.27,2.88-1.01,5.71-1.96,8.49-2.87,.93-.3,1.94,.21,2.25,1.15,.3,.94-.21,1.94-1.15,2.25-2.76,.89-5.56,1.85-8.41,2.84-.2,.07-.39,.1-.59,.1Zm-415.25-.18c-.56,0-1.11-.26-1.46-.75-1.74-2.46-3.37-5.04-4.84-7.69-.48-.86-.17-1.95,.69-2.43,.86-.48,1.95-.17,2.43,.69,1.41,2.54,2.97,5.01,4.64,7.37,.57,.8,.38,1.92-.43,2.49-.31,.22-.67,.33-1.03,.33Zm493.07-5.05c-.28,0-.56-.06-.82-.2-2.54-1.31-5.21-2.41-7.95-3.28-.94-.3-1.46-1.3-1.17-2.24,.3-.94,1.3-1.46,2.24-1.16,2.93,.92,5.8,2.11,8.51,3.51,.88,.45,1.22,1.53,.77,2.4-.32,.61-.94,.97-1.59,.97Zm-60.85-.25c-.78,0-1.49-.51-1.71-1.29-.27-.95,.27-1.94,1.22-2.21,3.02-.87,5.94-1.65,8.69-2.32,.96-.23,1.92,.36,2.15,1.31,.23,.96-.36,1.92-1.31,2.15-2.7,.65-5.57,1.42-8.54,2.28-.17,.05-.33,.07-.5,.07Zm17.33-4.15c-.85,0-1.6-.61-1.75-1.47-.17-.97,.47-1.9,1.44-2.07,3.1-.56,6.12-.98,8.97-1.25,.98-.11,1.85,.62,1.95,1.6,.1,.98-.62,1.85-1.6,1.95-2.75,.27-5.67,.68-8.68,1.21-.11,.02-.21,.03-.32,.03Zm26.61-.97c-.09,0-.17,0-.26-.02-2.75-.4-5.66-.62-8.64-.65-.99,0-1.78-.82-1.77-1.8,0-.98,.8-1.78,1.8-1.77,3.15,.03,6.22,.26,9.12,.69,.98,.14,1.65,1.05,1.51,2.02-.13,.89-.89,1.53-1.76,1.53Zm-484.82-5.09c-.69,0-1.35-.41-1.64-1.08-1.17-2.72-2.23-5.57-3.17-8.49-.3-.94,.21-1.94,1.15-2.24,.94-.3,1.94,.21,2.24,1.15,.9,2.81,1.93,5.57,3.05,8.18,.39,.91-.03,1.95-.94,2.34-.23,.1-.47,.15-.7,.15Zm-5.46-16.93c-.81,0-1.55-.56-1.74-1.38-.63-2.73-1.17-5.57-1.61-8.43l-.07-.47c-.14-.97,.53-1.88,1.5-2.03,.98-.14,1.88,.53,2.03,1.5l.07,.44c.43,2.78,.95,5.53,1.56,8.18,.22,.96-.38,1.92-1.34,2.14-.13,.03-.27,.05-.4,.05Zm-2.58-17.63c-.94,0-1.72-.73-1.78-1.68-.1-1.8-.16-3.62-.16-5.43,0-1.23,.02-2.45,.07-3.66,.04-.99,.93-1.74,1.86-1.71,.98,.04,1.75,.87,1.71,1.86-.05,1.16-.07,2.33-.07,3.51,0,1.74,.05,3.5,.15,5.23,.06,.98-.69,1.83-1.68,1.88-.03,0-.07,0-.1,0Zm.73-17.78c-.09,0-.17,0-.26-.02-.97-.14-1.65-1.05-1.51-2.02,.43-3,1.03-6.01,1.78-8.92,.25-.96,1.23-1.53,2.17-1.28,.95,.24,1.53,1.22,1.29,2.17-.72,2.79-1.29,5.67-1.71,8.55-.13,.89-.89,1.53-1.76,1.53Zm4.43-17.23c-.21,0-.42-.04-.63-.12-.92-.35-1.39-1.38-1.04-2.3,1.06-2.82,2.3-5.62,3.67-8.33,.44-.88,1.52-1.23,2.4-.78,.88,.45,1.23,1.52,.78,2.4-1.32,2.59-2.5,5.27-3.52,7.98-.27,.71-.95,1.15-1.67,1.15Zm60.57-8.26c-1.11,0-2.25-.03-3.43-.1-.98-.06-1.74-.9-1.68-1.88,.06-.98,.91-1.72,1.88-1.68,3.09,.18,5.93,.11,8.59-.2,.99-.11,1.87,.59,1.98,1.57,.11,.98-.59,1.86-1.57,1.98-1.85,.21-3.79,.32-5.79,.32Zm-12.11-1.45c-.16,0-.31-.02-.47-.06-3.06-.83-5.96-2.04-8.63-3.59-.85-.49-1.14-1.59-.65-2.44s1.59-1.14,2.44-.65c2.4,1.39,5.01,2.48,7.77,3.23,.95,.26,1.51,1.24,1.25,2.19-.22,.79-.94,1.32-1.72,1.32Zm26.34-.9c-.72,0-1.4-.44-1.67-1.15-.35-.92,.11-1.95,1.03-2.3,2.72-1.03,5.13-2.42,7.17-4.13,.76-.63,1.88-.53,2.51,.22,.63,.75,.53,1.88-.22,2.51-2.34,1.97-5.1,3.56-8.19,4.73-.21,.08-.42,.12-.63,.12Zm-66.74-5.25c-.33,0-.67-.09-.97-.29-.83-.54-1.06-1.64-.52-2.47,1.65-2.52,3.46-4.99,5.38-7.34,.63-.76,1.75-.88,2.51-.25,.76,.62,.88,1.75,.25,2.51-1.84,2.25-3.58,4.62-5.16,7.04-.34,.52-.91,.81-1.49,.81Zm25.17-2.69c-.46,0-.92-.18-1.26-.53-2.12-2.13-4.05-4.59-5.74-7.31-.52-.84-.26-1.94,.57-2.46s1.94-.26,2.46,.57c1.55,2.49,3.31,4.74,5.24,6.68,.7,.7,.69,1.83,0,2.52-.35,.35-.8,.52-1.26,.52Zm54.81-3.38c-.28,0-.56-.06-.82-.2-.87-.46-1.21-1.53-.76-2.41,1.28-2.46,2.04-5.16,2.19-7.8,.05-.98,.89-1.74,1.88-1.68,.98,.06,1.74,.9,1.68,1.88-.18,3.14-1.07,6.34-2.58,9.25-.32,.61-.94,.96-1.58,.96Zm-68.71-7.71c-.46,0-.92-.18-1.27-.53-.69-.7-.69-1.83,.01-2.52,1.14-1.13,2.32-2.23,3.53-3.3-.86-2.35-1.6-4.84-2.21-7.42-.22-.96,.37-1.92,1.33-2.15,.94-.22,1.92,.37,2.14,1.33,.47,1.99,1.02,3.92,1.65,5.77,.12-.1,.24-.19,.36-.29,.77-.62,1.89-.49,2.51,.28,.61,.77,.49,1.89-.28,2.51-.58,.46-1.15,.93-1.72,1.41-.19,.4-.52,.73-.96,.9-.05,.02-.1,.04-.15,.05-1.27,1.11-2.5,2.26-3.7,3.44-.35,.34-.8,.52-1.25,.52Zm69.42-9.48c-.67,0-1.32-.38-1.62-1.03-1.11-2.39-2.77-4.55-4.94-6.43-.74-.65-.82-1.77-.18-2.52,.64-.74,1.77-.82,2.52-.18,2.55,2.21,4.51,4.78,5.83,7.63,.41,.89,.03,1.95-.87,2.37-.24,.11-.5,.17-.75,.17Zm-55.5-1.63c-.59,0-1.17-.29-1.51-.83-.53-.83-.28-1.93,.55-2.46,2.59-1.65,5.26-3.15,7.95-4.46,.89-.43,1.96-.06,2.38,.82,.43,.89,.06,1.95-.82,2.38-2.57,1.25-5.13,2.69-7.6,4.26-.3,.19-.63,.28-.96,.28Zm16.02-7.77c-.74,0-1.44-.47-1.69-1.21-.32-.93,.18-1.95,1.11-2.26,2.98-1.01,5.97-1.8,8.88-2.32,.98-.19,1.9,.47,2.07,1.44,.17,.97-.47,1.9-1.44,2.07-2.73,.49-5.55,1.23-8.37,2.19-.19,.06-.38,.1-.57,.1Zm26.31-1.81c-.16,0-.33-.02-.49-.07-2.54-.73-5.34-1.11-8.34-1.15-.98-.01-1.77-.82-1.76-1.81,.01-.98,.81-1.76,1.78-1.76h.02c3.32,.04,6.44,.48,9.28,1.29,.95,.27,1.49,1.26,1.22,2.21-.22,.78-.94,1.29-1.71,1.29Zm-55.95-.49c-.9,0-1.67-.67-1.77-1.58-.34-2.95-.53-6-.57-9.08-.01-.99,.78-1.79,1.76-1.81,.93-.06,1.79,.78,1.81,1.76,.04,2.95,.22,5.89,.54,8.72,.11,.98-.59,1.86-1.57,1.97-.07,0-.14,.01-.2,.01Zm-.25-17.81s-.1,0-.14,0c-.98-.08-1.71-.94-1.64-1.92,.24-3.02,.62-6.05,1.13-9.01,.17-.97,1.08-1.63,2.06-1.46,.97,.17,1.62,1.09,1.45,2.06-.49,2.85-.86,5.78-1.09,8.69-.07,.93-.86,1.64-1.78,1.64Zm3.03-17.56c-.16,0-.31-.02-.47-.06-.95-.26-1.51-1.24-1.25-2.19,.82-3.01,1.78-5.93,2.86-8.65,.36-.92,1.4-1.36,2.32-1,.92,.36,1.37,1.4,1,2.31-1.03,2.61-1.95,5.39-2.73,8.28-.22,.79-.94,1.32-1.72,1.32Zm6.61-16.52c-.3,0-.6-.07-.88-.23-.86-.49-1.16-1.58-.67-2.43,1.64-2.88,3.43-5.44,5.33-7.59,.65-.74,1.78-.81,2.52-.16,.74,.65,.81,1.78,.16,2.52-1.74,1.97-3.38,4.32-4.9,6.99-.33,.58-.93,.9-1.55,.9Z"/><ellipse class="uuid-4c79e4d9-8715-4c05-9419-b006e3800fd4" cx="308.05" cy="467.43" rx="308.05" ry="15.3"/><path class="uuid-7e1ccdb6-4300-434d-aeea-f6c7af1a8841" d="M436.78,148.03c-.56-.6-11.09,4.11-19.24,4.67-8.14,.56-12.59-.84-12.37-2.02s13.83-.53,21.21-3.12c7.38-2.6,11.31-5.29,11.84-11.64,.53-6.34-1.03-11.19-1.03-11.19,0,0-20.12,10.66-24.56,11.61-4.44,.96-6.44,.88-6.83-.96-.39-1.84,6.83-3.9,12.87-6.41,6.03-2.5,13.82-7.63,14.18-11.53,.36-3.9-2.46-10.17-8.48-19.36-6.01-9.19-11-15.61-11-15.61,0,0-3.68,6.05-6.77,11.72-3.09,5.67-8.02,10.73-10.07,9.94-2.05-.79,.26-3.42,2.45-5.95,2.19-2.53,10.57-11.76,11.07-15.92,.5-4.16-4.51-7.3-8.21-10.21-3.69-2.91-8.14-6.69-8.14-6.69,0,0-5.07,2.9-9.23,5.09-4.16,2.18-9.66,4.35-9.94,8.54-.27,4.18,6.28,14.79,7.96,17.68,1.69,2.89,3.47,5.89,1.32,6.3-2.16,.4-6.08-5.48-8.08-11.62-2-6.14-4.51-12.77-4.51-12.77,0,0-6.08,5.39-13.67,13.33-7.6,7.93-11.52,13.58-11.88,17.48-.36,3.9,6.35,10.37,11.83,13.93s12.19,6.92,11.48,8.66c-.72,1.74-2.7,1.44-6.89-.31-4.19-1.75-22.02-15.91-22.02-15.91,0,0-2.42,4.48-3.06,10.81-.64,6.33,2.73,9.71,9.51,13.61,6.78,3.91,20.28,5.75,20.28,6.96,0,1.2-4.63,1.76-12.53-.28-7.9-2.04-17.4-8.6-18.05-8.12s-2.61,5.28,.64,13.56c3.25,8.28,10.98,8.56,20.01,9.33,9.02,.78,12.31,.81,12.06,2.32-.25,1.51-3.92,2.59-9.23,2.7-5.31,.11-17.66-2.07-17.7-1.64s1.28,5.42,7.58,11.52c6.3,6.1,13.76,9.91,20.98,7.89,4.93-1.37,9.87-8.51,12.5-12.89-3.11,25.35-8.87,60.25-19.25,93.38l1.91,.6c10.35-33.03,16.12-67.8,19.26-93.2,1.85,4.83,5.29,12.18,9.69,14.34,6.73,3.3,14.76,.93,22.07-3.92,7.31-4.84,9.53-9.5,9.57-9.94s-12.5-.55-17.7-1.64c-5.2-1.08-8.61-2.82-8.58-4.34,.03-1.53,3.27-.95,12.28-.07,9.01,.89,16.66,2.03,21.38-5.51,4.71-7.54,3.68-12.61,3.12-13.21Zm-68.41-25.14c-3.14-4.04-7.7-10.6-8.14-15.94,0,0,0-.02,0-.02-.25-3.11,3.68-4.3,6.11-3.49,5.97,1.99,12.57,10.51,12.54,16.82-.04,8.45-4.53,10.33-10.51,2.63Zm27.75,39.48c-5.27,2.64-7.66-1.04-6.89-3.98,.77-2.94,6.34-3.99,6.34-3.99,1-.24,3.88-.98,4.65,.43,.76,1.41,1.17,4.91-4.1,7.54Z"/><path class="uuid-b4b72c09-2280-4c96-b12c-32b7e3a1d35d" d="M487.16,273.1c-.34-.89-13.74-.46-22.75-3.44-9-2.98-13.17-6.44-12.42-7.61,.76-1.17,15.11,5.52,24.19,5.98,9.08,.46,14.5-.72,17.86-7.31,3.36-6.59,3.81-12.49,3.81-12.49,0,0-26.33,2.61-31.53,1.68-5.2-.93-7.32-1.89-6.92-4.04,.39-2.15,9.07-1.19,16.66-1.23,7.59-.04,18.22-2.13,20.32-6.16s1.83-12.03-.6-24.56c-2.42-12.53-4.97-21.63-4.97-21.63,0,0-6.63,4.89-12.45,9.63-5.82,4.74-13.35,8.02-15.21,6.26-1.85-1.75,1.78-3.56,5.25-5.32,3.47-1.76,16.54-7.99,18.91-12.25,2.37-4.26-1.64-9.84-4.33-14.6-2.69-4.75-5.81-10.78-5.81-10.78,0,0-6.73,.89-12.17,1.41-5.44,.52-12.31,.43-14.45,4.81-2.14,4.38,.25,18.67,.79,22.52,.54,3.85,1.14,7.87-1.36,7.35-2.5-.52-4.13-8.57-3.57-16.05,.55-7.49,.77-15.72,.77-15.72,0,0-8.91,3.13-20.57,8.32-11.66,5.19-18.37,9.54-20.47,13.57s2.27,13.95,6.59,20.19c4.32,6.24,10.07,12.81,8.53,14.36-1.54,1.55-3.54,.37-7.28-3.36-3.74-3.73-16.68-26.81-16.68-26.81,0,0-4.57,3.75-8.05,10.28-3.48,6.53-1.33,11.64,4.24,18.83,5.58,7.18,19.28,15.11,18.75,16.41-.53,1.29-5.75-.14-13.35-5.82-7.6-5.67-14.93-16.91-15.85-16.67-.92,.23-5.13,4.53-5.27,14.87-.14,10.34,8.05,14.04,17.41,18.84,9.36,4.81,12.89,6.29,11.95,7.8-.93,1.51-5.36,1.06-11.12-1.16-5.76-2.22-18.09-10-18.32-9.55s-1,6.39,3.09,15.73c4.09,9.33,10.44,16.71,19.09,17.72,5.91,.69,14.36-4.81,19.12-8.36-14.5,25.89-36.05,60.9-61.8,91.97l1.79,1.49c25.67-30.97,47.18-65.83,61.73-91.77-.13,6.01,.34,15.43,4.12,19.69,5.78,6.51,15.47,7.49,25.46,5.5,10-1.99,14.43-6.03,14.66-6.48s-13.21-6.1-18.32-9.55c-5.12-3.45-8.02-6.82-7.32-8.45,.7-1.63,3.94,.41,13.24,5.33,9.3,4.92,17.03,9.52,25.42,3.48,8.39-6.04,9.5-11.95,9.17-12.84Zm-62.52-57.15c-1.6-5.73-3.62-14.79-1.74-20.73,0,0,0-.02,0-.03,1.1-3.45,5.85-3,8.1-1.07,5.54,4.77,8.89,16.84,6.09,23.61-3.76,9.07-9.41,9.12-12.46-1.79Zm12.47,54.68c-6.82,.52-7.78-4.49-5.65-7.32,2.13-2.82,8.57-1.5,8.57-1.5,1.18,.18,4.61,.66,4.81,2.51,.2,1.85-.91,5.79-7.73,6.31Z"/><g><path class="uuid-c3e92c33-be61-45c4-b9d7-7f90bda3a938" d="M462.32,296.78h-4.52v-14.15c0-4.22-3.44-7.66-7.66-7.66h-60.15c-4.22,0-7.66,3.44-7.66,7.66v14.15h-4.52v-14.15c0-6.72,5.47-12.18,12.18-12.18h60.15c6.72,0,12.18,5.47,12.18,12.18v14.15Z"/><rect class="uuid-c2f84968-6943-49bf-880b-248c9d433b9b" x="287" y="296.78" width="266.13" height="170.77" rx="6.6" ry="6.6"/><g><rect class="uuid-a4298185-dc40-4343-aeb2-e8d56120797a" x="486.85" y="296.78" width="17.95" height="170.77"/><rect class="uuid-a4298185-dc40-4343-aeb2-e8d56120797a" x="335.32" y="296.78" width="17.95" height="170.77"/></g><g><path class="uuid-f3c9aba1-d0c0-4afd-817f-05b76430212f" d="M287,311.71v13.41h12.72c8.24,0,14.93-6.68,14.93-14.93v-13.41h-12.72c-8.25,0-14.93,6.68-14.93,14.93Z"/><path class="uuid-f3c9aba1-d0c0-4afd-817f-05b76430212f" d="M538.19,296.78h-12.72v13.41c0,8.24,6.68,14.93,14.93,14.93h12.72v-13.41c0-8.25-6.68-14.93-14.93-14.93Z"/></g><g><path class="uuid-f3c9aba1-d0c0-4afd-817f-05b76430212f" d="M287,452.62v-13.41h12.72c8.24,0,14.93,6.68,14.93,14.93v13.41h-12.72c-8.25,0-14.93-6.68-14.93-14.93Z"/><path class="uuid-f3c9aba1-d0c0-4afd-817f-05b76430212f" d="M538.19,467.55h-12.72v-13.41c0-8.24,6.68-14.93,14.93-14.93h12.72v13.41c0,8.25-6.68,14.93-14.93,14.93Z"/></g><g class="uuid-9c6f2591-2a9f-49e0-b1ae-4a460ac51a2a"><path class="uuid-49c9eefa-79d0-4443-95a1-f88d76613b1a" d="M538.19,453.38h-236.27c-8.25,0-14.93-6.68-14.93-14.93v14.17c0,8.24,6.68,14.93,14.93,14.93h236.27c8.25,0,14.93-6.68,14.93-14.93v-14.17c0,8.25-6.68,14.93-14.93,14.93Z"/></g><rect class="uuid-49c9eefa-79d0-4443-95a1-f88d76613b1a" x="385.37" y="264.07" width="69.38" height="17.26" rx="3.3" ry="3.3"/><rect class="uuid-49c9eefa-79d0-4443-95a1-f88d76613b1a" x="371.6" y="290.76" width="16.93" height="6.02"/><rect class="uuid-49c9eefa-79d0-4443-95a1-f88d76613b1a" x="451.59" y="290.76" width="16.93" height="6.02"/><g><path class="uuid-a4298185-dc40-4343-aeb2-e8d56120797a" d="M416.12,335.72c-.34,1.02-1.29,1.66-2.31,1.66-.26,0-.52-.04-.77-.13-1.28-.43-1.96-1.81-1.54-3.09l-2.16-.72c-.34,1.02-1.29,1.66-2.31,1.66-.26,0-.52-.04-.77-.13-1.28-.43-1.96-1.81-1.54-3.09l-2.16-.72c-.34,1.02-1.29,1.66-2.31,1.66-.26,0-.52-.04-.78-.13-1.28-.43-1.96-1.81-1.54-3.09l-2.16-.72c-.34,1.02-1.29,1.66-2.31,1.66-.26,0-.52-.04-.77-.13-1.28-.43-1.96-1.81-1.54-3.09l-2.07-.69-11.95,35.67,2.07,.69c.34-1.02,1.29-1.66,2.31-1.66,.26,0,.52,.04,.78,.13,1.28,.43,1.96,1.81,1.54,3.09l2.16,.72c.34-1.02,1.29-1.66,2.31-1.66,.26,0,.52,.04,.77,.13,1.28,.43,1.96,1.81,1.54,3.09l2.16,.72c.34-1.02,1.29-1.66,2.31-1.66,.26,0,.52,.04,.77,.13,1.28,.43,1.96,1.81,1.54,3.09l2.16,.72c.34-1.02,1.29-1.66,2.31-1.66,.26,0,.52,.04,.77,.13,1.28,.43,1.96,1.81,1.54,3.09l2.07,.69,11.95-35.67-2.07-.69Z"/><path class="uuid-a8c0f56f-e625-41a5-ba4e-dae0ed7eac53" d="M418.91,334.27l-2.07-.69-2.14-.72-.72,2.14c-.03,.1-.12,.12-.17,.12-.15-.04-.2-.14-.17-.23l.72-2.15-2.15-.72-2.16-.72-2.15-.72-.72,2.15c-.03,.09-.12,.12-.17,.12-.15-.04-.2-.14-.17-.23l.72-2.15-2.15-.72-2.16-.72-2.15-.72-.72,2.15c-.03,.1-.12,.12-.17,.12-.13-.04-.19-.15-.17-.23l.72-2.15-2.15-.72-2.16-.72-2.15-.72-.72,2.14c-.03,.1-.12,.12-.17,.12-.15-.04-.2-.14-.17-.23l.72-2.14-2.14-.72-2.07-.69-2.15-.72-.72,2.15-11.95,35.67-.72,2.15,2.15,.72,2.07,.69,2.15,.72,.72-2.15c.03-.1,.12-.12,.17-.12,.13,.04,.19,.15,.17,.23l-.72,2.15,2.15,.72,2.16,.72,2.15,.72,.72-2.15c.03-.09,.12-.12,.17-.12,.13,.04,.19,.15,.17,.23l-.72,2.15,2.15,.72,2.16,.72,2.14,.72,.72-2.14c.03-.1,.12-.12,.17-.12,.13,.04,.19,.15,.17,.23l-.72,2.15,2.15,.72,2.16,.72,2.14,.72,.72-2.14c.03-.1,.12-.12,.17-.12,.13,.04,.19,.15,.17,.23l-.72,2.15,2.15,.72,2.07,.69,2.15,.72,.72-2.15,11.95-35.67,.72-2.15-2.15-.72Zm-14.74,37.12c.43-1.28-.26-2.66-1.54-3.09-.26-.09-.52-.13-.77-.13-1.02,0-1.97,.64-2.31,1.66l-2.16-.72c.43-1.28-.26-2.66-1.54-3.09-.26-.09-.52-.13-.77-.13-1.02,0-1.97,.64-2.31,1.66l-2.16-.72c.43-1.28-.26-2.66-1.54-3.09-.26-.09-.52-.13-.77-.13-1.02,0-1.97,.64-2.31,1.66l-2.16-.72c.43-1.28-.26-2.66-1.54-3.09-.26-.09-.52-.13-.78-.13-1.02,0-1.97,.64-2.31,1.66l-2.07-.69,11.95-35.67,2.07,.69c-.43,1.28,.26,2.66,1.54,3.09,.26,.09,.52,.13,.77,.13,1.02,0,1.97-.64,2.31-1.66l2.16,.72c-.43,1.28,.26,2.66,1.54,3.09,.26,.09,.52,.13,.78,.13,1.02,0,1.97-.64,2.31-1.66l2.16,.72c-.43,1.28,.26,2.66,1.54,3.09,.26,.09,.52,.13,.77,.13,1.02,0,1.97-.64,2.31-1.66l2.16,.72c-.43,1.28,.26,2.66,1.54,3.09,.26,.09,.52,.13,.77,.13,1.02,0,1.97-.64,2.31-1.66l2.07,.69-11.95,35.67-2.07-.69Z"/></g><g><circle class="uuid-7e1ccdb6-4300-434d-aeea-f6c7af1a8841" cx="454.75" cy="382.16" r="13.54"/><path class="uuid-a8c0f56f-e625-41a5-ba4e-dae0ed7eac53" d="M454.75,366.36c-8.71,0-15.8,7.09-15.8,15.8s7.09,15.8,15.8,15.8,15.8-7.09,15.8-15.8-7.09-15.8-15.8-15.8Zm0,29.34c-7.48,0-13.54-6.06-13.54-13.54s6.06-13.54,13.54-13.54,13.54,6.06,13.54,13.54-6.06,13.54-13.54,13.54Z"/></g><g><rect class="uuid-57a586e4-b797-4e8e-80bf-a249a3a9b0b7" x="387.63" y="399.7" width="31.09" height="31.09" rx="8.13" ry="8.13" transform="translate(-22.41 23) rotate(-3.18)"/><path class="uuid-a8c0f56f-e625-41a5-ba4e-dae0ed7eac53" d="M409.6,397.05l-14.82,.82c-5.72,.32-10.12,5.23-9.8,10.95l.82,14.82c.32,5.72,5.23,10.12,10.95,9.8l14.82-.82c5.72-.32,10.12-5.23,9.8-10.95l-.82-14.82c-.32-5.72-5.23-10.12-10.95-9.8Zm9.51,24.74c.25,4.48-3.18,8.32-7.66,8.57l-14.82,.82c-4.48,.25-8.32-3.18-8.57-7.66l-.82-14.82c-.25-4.48,3.18-8.32,7.66-8.57l14.82-.82c4.48-.25,8.32,3.18,8.57,7.66l.82,14.82Z"/></g></g><path class="uuid-7e1ccdb6-4300-434d-aeea-f6c7af1a8841" d="M233.24,140.49c4.55-8.88,27.01-43.29,30.55-50.14,3.54-6.85,7.91-23.44,7.22-26.5s-18.93,20.73-26.63,32.02c-7.7,11.29-25.56,48.11-27.35,49.3s.22-3.87,4.62-13.1c4.4-9.23,12.53-23.42,19.49-36.9,6.97-13.48,14.57-23.05,16.74-27.75,2.16-4.7,7.48-30.26,5.22-28.23-2.27,2.03-17.57,27.27-22.81,36.03-5.23,8.75-20.03,35.67-21.99,41.33-1.96,5.66-10.42,18.11-9.04,13.54,1.38-4.58,6.2-19.64,10.32-25.62,4.13-5.97,10.85-27.31,16.94-38.94,6.09-11.64,8.95-31.73,7.62-35.77-1.32-4.04-12.68,10.92-17.18,20.4-4.5,9.48-12.78,34.01-14.78,42-2,7.99-9.57,25.92-9.57,25.92,0,0,1.57-9.48,2.97-14.48,1.4-5.01,7.35-21.82,9.26-28.09,1.91-6.27,5.15-24.01,8.21-33.92,3.06-9.91,1.71-27.14-.06-26.38-1.77,.76-7.66,8.96-14.79,26.91-7.13,17.95-7.36,20.35-8.19,29.1-.84,8.74-5.71,32.43-5.92,30-.21-2.42,2.27-23.4,2.61-27.95,.34-4.55,.87-16.93,1.56-26.02,.69-9.1-.18-47.07-5.6-39.7-5.41,7.36-6.3,38.34-6.2,50.24,.1,11.9-1.43,25.34-1.43,25.34,0,0-4.56-36.8-4.65-44.3-.09-7.5-6.76-37.53-9.18-38.78-2.43-1.26-5.85,27.25-4.24,36.82,1.61,9.57,7.53,29.86,7.53,29.86,0,0-3.08-4.96-8.01-18.34-4.93-13.38-22.76-44.03-24.26-45.07-1.49-1.03-2.38,7.1,1.82,21.22,1.42,4.79,4.11,11.27,7.04,17.75-6.95-8.13-28.11-23.65-28.83-21.14-.75,2.63,16.51,28.08,21.9,33.3,5.39,5.22,29.03,33.79,29.03,33.79,0,0-10.83-8.11-19.41-16.35-8.58-8.24-31.72-28.85-40.79-29.97-9.07-1.12,17.95,25.58,25.03,31.32,7.09,5.74,16.45,13.86,20,16.73,3.54,2.87,20.5,15.46,22.12,17.28,1.62,1.82-18.95-10.9-25.88-16.29-6.93-5.39-8.83-6.88-26.79-14.01-17.95-7.13-27.96-8.47-29.73-7.71s9.83,13.57,19.14,18.15c9.31,4.58,24.44,14.39,30.31,17.31,5.87,2.92,22.18,10.13,26.78,12.55,4.6,2.41,12.57,7.78,12.57,7.78,0,0-18.23-6.8-25.41-10.83-7.18-4.03-30.7-14.84-40.69-18.07-9.99-3.24-28.66-5.24-26.63-1.51,2.03,3.73,18.6,15.44,31.24,19,12.64,3.56,32.77,13.31,39.95,14.41,7.18,1.1,21.44,7.93,25.72,10.07,4.27,2.14-10.59-.25-16.05-2.72-5.46-2.46-35.19-10.18-45.15-12.38-9.96-2.2-38.82-8.4-41.86-8.14-3.03,.26,19.21,13.93,24.11,15.58,4.9,1.66,17.08,2.69,31.67,6.87,14.59,4.19,30.49,8.01,40.22,11.15,9.73,3.14,14.79,5.15,12.7,5.63s-41.13-11.8-54.63-13.95c-13.5-2.14-43.31-5.21-41.56-2.61s16.82,10.81,24.23,12.94c7.41,2.12,47.85,9.41,57.43,12.19,9.58,2.78,18.12,4.13,16.38,4.46-1.74,.33-67.76-13.31-69.81-13.68-2.05-.37-12.37,3.87-9.79,5.48,2.58,1.61,18.01,7.74,27.43,10.17,9.43,2.43,51.05,8.57,54.52,9.8,3.46,1.23,6.82,1.25,6.3,2.94s-33.96-4.42-45.18-5.66c-11.22-1.24-25.39-.57-27.08,1.83-1.69,2.4,15.68,7.69,18.99,8.57,3.31,.88,55.79,5.48,57.36,6.69,1.57,1.21-37.24-1.33-42.88-2.25-5.64-.92-12.2-.6-14.93,.36-2.73,.97,.36,2.78,6.96,6.43,6.6,3.65,26.77,6.68,36.4,8.61,9.63,1.92,23.62,1.34,27.29,2.06,3.66,.72,8.19,.03,8.19,.03,0,0,.03-.03,.07-.09,.07,0,.11,0,.11,0,0,0,3.61-2.81,5.59-5.97,1.99-3.16,12.02-12.94,17.23-21.26,5.21-8.32,16.84-25.07,18.72-32.38,1.88-7.31,2.68-10.79,.1-9.47-2.57,1.32-7.31,5.88-10.51,10.61-3.2,4.73-27.99,34.7-27.79,32.73,.2-1.97,32.87-43.3,34.5-46.31,1.64-3.01,9.71-19.27,6.8-19.7-2.91-.42-13.12,9.43-19.92,18.44-6.8,9.01-25.3,37.52-26.9,36.74-1.59-.78,.7-3.24,2.18-6.6,1.48-3.36,25.58-37.85,30.29-46.38,4.7-8.52,10.83-23.95,11.43-26.93,.6-2.98-9.57,1.61-10.7,3.36-1.13,1.75-36.52,59.12-37.96,60.16-1.44,1.04,3.45-6.1,8-14.97Z"/><g><g><rect class="uuid-fe654e2d-56d1-4c9d-9aea-738dd310b802" x="248.69" y="64.23" width="9.45" height="103.47"/><rect class="uuid-fe654e2d-56d1-4c9d-9aea-738dd310b802" x="321.58" y="64.23" width="9.45" height="103.47"/><rect class="uuid-00b37a8f-16ac-4a54-9c56-f1dfb6009ed6" x="248.69" y="64.23" width="9.45" height="19.49"/><rect class="uuid-00b37a8f-16ac-4a54-9c56-f1dfb6009ed6" x="321.58" y="64.23" width="9.45" height="19.49"/><rect class="uuid-a4298185-dc40-4343-aeb2-e8d56120797a" x="179.26" y="151.11" width="221.2" height="298.14" rx="30.43" ry="30.43"/><g><path class="uuid-c3e92c33-be61-45c4-b9d7-7f90bda3a938" d="M219.87,449.26h25.15v14.76c0,1.95-1.58,3.53-3.53,3.53h-18.09c-1.95,0-3.53-1.58-3.53-3.53v-14.76h0Z"/><path class="uuid-c3e92c33-be61-45c4-b9d7-7f90bda3a938" d="M334.7,449.26h25.15v14.76c0,1.95-1.58,3.53-3.53,3.53h-18.09c-1.95,0-3.53-1.58-3.53-3.53v-14.76h0Z"/></g><g><rect class="uuid-7723b670-45a0-425b-acee-b8ab40d0358f" x="209.02" y="187.44" width="17.13" height="225.48" rx="4.33" ry="4.33"/><rect class="uuid-7723b670-45a0-425b-acee-b8ab40d0358f" x="256.74" y="187.44" width="17.13" height="225.48" rx="4.33" ry="4.33"/><rect class="uuid-7723b670-45a0-425b-acee-b8ab40d0358f" x="304.46" y="187.44" width="17.13" height="225.48" rx="4.33" ry="4.33"/><rect class="uuid-7723b670-45a0-425b-acee-b8ab40d0358f" x="352.18" y="187.44" width="17.13" height="225.48" rx="4.33" ry="4.33"/></g><path class="uuid-b4b72c09-2280-4c96-b12c-32b7e3a1d35d" d="M252.71,49c-3.25,0-5.88,2.63-5.88,5.88v21.78c0,.66,.54,1.2,1.2,1.2h10.78c.66,0,1.2-.54,1.2-1.2v-13.93h59.72v13.93c0,.66,.54,1.2,1.2,1.2h10.78c.66,0,1.2-.54,1.2-1.2v-21.78c0-3.25-2.63-5.88-5.88-5.88h-74.31Z"/><path class="uuid-63de8c8b-a79c-43a9-885d-692db304669e" d="M212.48,449.26h154.77c18.35,0,33.22-14.87,33.22-33.22V184.33c0-2.38-.26-4.7-.74-6.94-42.82,139.63-162.13,176.64-220.47,186.42v52.23c0,18.35,14.87,33.22,33.22,33.22Z"/><path class="uuid-c3e92c33-be61-45c4-b9d7-7f90bda3a938" d="M258.17,135.77h63.38c1.7,0,3.08,1.38,3.08,3.08v12.26h-69.55v-12.26c0-1.7,1.38-3.08,3.08-3.08Z"/><path class="uuid-f5f84bc7-15fd-453e-bbfc-6bce2f6a6e90" d="M212.43,162.59h154.86c2.53,0,3.08,3.55,.67,4.31-12.32,3.91-36.45,9.06-78.1,9.06s-65.78-5.15-78.1-9.06c-2.41-.76-1.86-4.31,.67-4.31Z"/><path class="uuid-63de8c8b-a79c-43a9-885d-692db304669e" d="M179.26,272.7s41.19-13.61,64.97-47.56c23.78-33.95,10.86-63.66,10.86-63.66l-75.83,55.08v56.14Z"/></g><g><path class="uuid-c2f84968-6943-49bf-880b-248c9d433b9b" d="M166.53,167.95s-20.49,15.85-31.58,37.31c-11.09,21.46-6.53,47.02,18.76,53.6,25.29,6.58,68.41-9.27,100.42-43.39,32.01-34.12,42.34-54.59,28.9-68.75-13.44-14.16-74.68-4.36-116.49,21.24Z"/><path class="uuid-b817c273-4abf-4e25-97a0-4b60017b8b94" d="M249.06,160.55c-1.44-.63-3.44-2.15-5.18-3.77-.38-.9-.69-2-.87-3.46-.61-5.04-.26-7.51-3.65-11.53-23.06,3.48-50.67,12.61-72.83,26.17,0,0-17.47,13.52-28.87,32.48,1.31-.32,3.58-.75,5.96-.64,3.68,.17,7.91,2.51,8.78,5.31,.75,2.4,4.08,6.06,6.67,9.25-.24,.19-.38,.3-.38,.3,0,0,.9,1.71,.84,6.21-.06,4.5,1.44,3.3,5.9,5.53,4.46,2.23,11.16,9.34,36.99-3.96,25.83-13.3,33.57-18.19,44.29-37.44,10.72-19.25,5.55-23.04,2.36-24.44Z"/><path class="uuid-a4298185-dc40-4343-aeb2-e8d56120797a" d="M155.84,206.32s4.47,8.49,32.14-4.33c27.67-12.82,50.92-36.04,51.65-44.78,.51-6.11-3.38-9.42-3.38-9.42,0,0,3.78,3.37,6.26,8.59,2.48,5.21,6.55,5,5.47,14.24-1.08,9.24-8.9,24.55-29.95,38.7-20.14,13.54-41.92,20.68-53.94,12.09,0,0-1.41-4.69-3.96-8.01-2.55-3.32-4.24-4.31-4.28-7.08Z"/><path class="uuid-c2f84968-6943-49bf-880b-248c9d433b9b" d="M162.55,210.97l-6.71-4.64s-10.45-21.55-12.41-31.16,11.04-30.88,18.8-37.47c7.76-6.59,45.61-17.13,50.51-17.01,4.9,.12,23.51,27.12,23.51,27.12,0,0,3.34,2.34,4.18,7.05,.84,4.71,3.33,10.02-7.18,22.53-10.52,12.51-31.71,38.21-70.69,33.59Z"/><path class="uuid-49c9eefa-79d0-4443-95a1-f88d76613b1a" d="M195.81,127.12s-21.14,13.5-26.05,17.82-12.21,15.62-16.9,19.08c-4.69,3.46,4.96-16.31,9.36-21.89,4.41-5.58,28.37-16.63,33.59-15.01Z"/><path class="uuid-97654a53-cbe7-490b-b6a9-74ea639a39af" d="M155.54,166.65s39.28-29.58,43.01-32.75c3.73-3.17,8.44,14.5-2,28.39-10.44,13.89-39.73,11.35-42.84,9.27s1.83-4.91,1.83-4.91Z"/></g></g><g><g><path class="uuid-fae2de53-6fc7-46fc-994f-f5a4a7e8bd41" d="M130.11,468.32s1.69-32.25,1.69-39.44,3.38-48.25,3.38-54.5-1.01-27.04,0-30.75c1.01-3.72-6.59-16.01-7.1-20.45s-3.29-14.7-6.21-22.3c-2.91-7.6-18.12-19.77-19.39-21.16s-3.17-5.32-3.17-5.32l1.27-.63,2.15-.76h2.66l3.68,1.01s1.14-2.91,1.01-4.82c-.13-1.9-1.39-19.77-1.39-19.77l.76-1.27,4.44-2.28,13.18,1.27s.89,4.69,1.77,11.79c.89,7.1,8.62,23.19,11.41,26.87s6.85,3.22,8.56,3.26,5.76-2.24,7.54-6.05c1.77-3.8,8.36-32.44,8.36-32.44v-2.15s5.45-.63,5.96-.25c.51,.38-.38-.38,2.03,.89,2.41,1.27,3.29,1.39,3.29,1.39,0,0-3.55,25.85-4.56,29.15-1.01,3.29-.25,3.8-1.14,7.1s-2.53,6.84-3.29,8.62c-.76,1.77-5.32,29.02-7.48,32.19-2.15,3.17-.25,21.42-.51,27.75-.25,6.34,.25,6.11,.25,12.88s-1.77,18.93-.38,33.25c1.39,14.32,5.36,42.66,5.36,51.94s1.35,15.01,1.35,15.01h-35.48Z"/><path class="uuid-f3c9aba1-d0c0-4afd-817f-05b76430212f" d="M136.18,468.32s-1.12-16.47-.98-25.89c.14-9.42,.42-15.04,.98-24.88,.56-9.84,1.1-16.3,1.46-27.13,.36-10.82,1.63-15.88,1.77-26.85,.14-10.96,.98-20.94,0-25.58-.98-4.64-2.9-9.33-1.77-10.96s3.03,6.47,3.45,9.7c.42,3.23,1.83,17.71,.84,25.72-.98,8.01-2.48,32.05-3.21,50.04-.73,17.99-1.03,18.94-1.09,28.31-.06,9.36-1.7,15.55,1.09,15.26,2.79-.28,1.94-.83,1.66-13-.28-12.16-.98-14.27,0-24.11,.98-9.84,1.67-13.07,1.89-25.72,.22-12.65,1.82-26.48,2.5-24.03,1.1,3.94,.96,13.91,.96,18.41s-1.83,21.22-2.11,24.18c-.28,2.95-1.12,17.01-.98,27.69,.14,10.68,0,13.77-.84,17.43-.84,3.65-3.09,3.51-2.95,6.67,.14,3.17,.7,4.74,.7,4.74h-3.37Z"/><path class="uuid-f3c9aba1-d0c0-4afd-817f-05b76430212f" d="M146.44,366.91s-.18-12.65-.7-17.62c-.52-4.97-3.33-17.15-3.24-23.14,.09-6,.09-11.62,0-12.09s3.24-1.59,3.24-1.59c0,0,.32,21.93,.7,25.96,.37,4.03,1.69,18.74,1.78,23.14,.09,4.4,.47,13.49,.66,18.83,.19,5.34,2.62,8.06,3.37,6.09,.75-1.97,1.41-9.09,.56-17.71-.84-8.62-1.12-12.46-1.31-18.08-.19-5.62-1.78-17.43-1.78-18.08s.37-1.87,.37-1.87h1.69s.7,12.44,1.43,16.43c.73,3.99,2.79,20.3,2.23,24.89-.56,4.59,.94,15.65-1.78,18.93-2.72,3.28-5.34,.28-5.53-1.78s-1.97-13.68-1.69-22.3Z"/><path class="uuid-f3c9aba1-d0c0-4afd-817f-05b76430212f" d="M150.19,389.3s1.22,.37,.94,7.12c-.28,6.75-2.06,11.15-3.75,22.11s-1.41,12.84-.84,24.08,.84,9.93,.75,16.21c-.09,6.28,1.73,9.49,1.73,9.49h3.14s-1.87-1.43-1.97-6.49c-.09-5.06,.94-9.09-.37-17.62-1.31-8.53-.94-10.12-.19-18.55s3.75-21.65,3.84-25.67c.09-4.03-.94-10.21-.94-10.21l-2.34-.47Z"/><path class="uuid-f3c9aba1-d0c0-4afd-817f-05b76430212f" d="M154.88,407.85s-1.22,19.02-1.78,22.11-.19,2.81,0,15.55c.19,12.74,.74,22.79,.74,22.79h1.7s-.56-17.26-.38-19.88c.19-2.63,.94-9.75,2.81-9.84,1.87-.09,2.25,5.43,2.53,11.15,.28,5.72,1.03,18.58,1.03,18.58h1.97s-.75-11.46-1.5-16.7c-.75-5.25-.94-11.9-1.41-14.15s-3.94-.94-4.59-3.47c-.66-2.53-1.03-9.37-.47-13.21,.56-3.84,.56-9.84,.65-15.09,.09-5.25,.09-14.99,.19-16.4s-.37,.84-.84,3.94c-.47,3.09-.85,8.34-.66,14.62Z"/><path class="uuid-f3c9aba1-d0c0-4afd-817f-05b76430212f" d="M109.07,274s2.38,.89,5.05,3.42c2.67,2.53,5.62,5.06,5.62,5.06,0,0-6.32-8.01-6.89-11.24-.56-3.23-1.62-11.81-1.87-14.2-.24-2.39-1.53-8.89-1.53-8.89l-3.35,3.41,2.97,22.44Z"/><path class="uuid-f3c9aba1-d0c0-4afd-817f-05b76430212f" d="M121.89,292.69c2.16,4.69,4.65,9.78,4.92,14.14,.27,4.36,5.29,9.57,5.29,9.57,0,0-2.06-8.17-2.53-11.24-.47-3.07-3.75-9.09-4.59-11.34-.84-2.25-7.22-8.81-8.15-9.46s2.9,3.65,5.06,8.34Z"/><path class="uuid-f3c9aba1-d0c0-4afd-817f-05b76430212f" d="M139.21,306.84s-7.66-17.14-10.94-21.17c-3.28-4.03-5.43-10.78-6.47-13.02s-2.72-11.34-2.72-13.21,.28-4.4,0-6c-.28-1.59,0-4.31,0-4.31l1.22-2.64,2.73,.26s-1.89,2.47-1.98,3.22-.75,3.19-.47,4.78c.28,1.59,1.97,5.81,1.97,5.81,0,0-.28,7.85,4.12,16.11,4.4,8.26,12.6,21.15,13.79,25.29,1.2,4.14,1.57,5.53,3.54,4.88,1.97-.65,3.75-4.77,5.62-8.24,1.87-3.47,3.47-4.31,5.91-6.28,2.43-1.97,5.81-5.75,6.93-8.03,1.12-2.28,5.15-10.9,6.84-17.55,1.69-6.65,3.65-11.62,3.65-11.62l1.84-5.08,1.18,.39s-1.92,17.17-2.75,18.99-2.71,6.13-4.58,10.81-2.16,6.35-5.25,9.83c-3.09,3.48-3.46,.67-7.87,7.51-4.41,6.84-7.14,14.93-8.06,15.18s-8.26-5.91-8.26-5.91Z"/><path class="uuid-f3c9aba1-d0c0-4afd-817f-05b76430212f" d="M160.87,305.53s5.81-12.21,7.22-15.47c1.41-3.27,2.73-7.13,2.73-7.13,0,0-1.13,3.49-1.88,7.75-.75,4.26-1.59,9.32-1.87,11.57s-1.59,4.4-1.59,4.4l-4.59-1.12Z"/><path class="uuid-f3c9aba1-d0c0-4afd-817f-05b76430212f" d="M127.8,267.3c1.22,3.56,5.34,10.31,6.93,13.21,1.59,2.9,2.44,2.72,4.03,4.97,.26,.36,.2-.48-.07-2.13-3.4-5.88-9.1-18.39-9.85-24.43-.89-7.1-1.77-11.79-1.77-11.79l-1.16-.11c.1,1.51,.29,4.32,.48,7.44,.28,4.59,.19,9.28,1.41,12.84Z"/><path class="uuid-f3c9aba1-d0c0-4afd-817f-05b76430212f" d="M113.89,245.87s.16,2.35,.16,2.98-.05-.6-.08,2.25c-.03,2.85-.52,6.32,.08,7.38s1.76,3.73,1.79,4.78c.04,1.05,.6,4.04,.6,4.04,0,0,.42-4.11,0-6.25-.42-2.14-1.27-3.72-1.25-5.45s.3-6.57,.3-6.57c0,0-.04-1.05,.07-1.76s.11-1.23,.11-1.23l-1.78-.17Z"/><path class="uuid-f3c9aba1-d0c0-4afd-817f-05b76430212f" d="M162.61,267.35s1.83-7.31,2.11-8.9c.28-1.59,.95-5.9,1.13-7.5s.15-2.68,.21-2.69,1-.09,1-.09c0,0-.24,1.89-.47,3.34-.23,1.45-1.26,7.87-1.26,7.87l-2.72,7.96Z"/></g><path class="uuid-f4675ff7-f217-4a79-b227-64be05ef91a5" d="M159.51,327.48c1.35-1.98,3.64-13.41,5.36-22.11l-41.54-.46c2.34,6.87,4.33,14.58,4.76,18.26,.51,4.44,8.11,16.73,7.1,20.45-.06,.22-.11,.5-.15,.82l23.69,.26c-.31-7.23-.56-15.23,.79-17.22Z"/><g><polygon class="uuid-c2f84968-6943-49bf-880b-248c9d433b9b" points="217.58 294.79 206.94 293.1 199.85 302.56 93.39 301.38 104.88 290.06 91.7 290.06 62.99 318.94 87.31 353.1 100.66 353.78 91.87 340.76 197.98 341.95 207.45 352.76 217.58 352.76 217.58 294.79"/><text class="uuid-c144d82f-c894-4a83-818f-ee00493220a9" transform="translate(110.97 319.76)"><tspan x="0" y="0">TIME </tspan><tspan class="uuid-955af55d-2503-4f8f-be4f-d05d1381ba48" x="43.09" y="0">T</tspan><tspan x="52.27" y="0">O</tspan><tspan x="1.66" y="13.53">TR</tspan><tspan class="uuid-c1d3fb5b-d927-45c9-95b3-e43bc81f9329" x="22.08" y="13.53">A</tspan><tspan class="uuid-ca426ca6-c774-4c16-aa0d-bab474068efe" x="33.07" y="13.53">V</tspan><tspan x="44.1" y="13.53">EL</tspan></text></g></g><g><path class="uuid-a4298185-dc40-4343-aeb2-e8d56120797a" d="M94.39,412.57h0c0,.33-.27,.6-.6,.6h-16.69c-3.07,0-5.55,2.49-5.55,5.55v44.64c0,3.07,2.49,5.55,5.55,5.55h85.27c3.07,0,5.55-2.49,5.55-5.55v-46.97c0-3.07-2.49-5.55-5.55-5.55H96.13c-.96,0-1.74,.78-1.74,1.74Z"/><circle class="uuid-c3e92c33-be61-45c4-b9d7-7f90bda3a938" cx="119.74" cy="439.87" r="23.74"/><circle class="uuid-a4298185-dc40-4343-aeb2-e8d56120797a" cx="119.74" cy="439.87" r="20.77"/><g class="uuid-f16c1244-2352-4099-8bc4-20f48806bf1e"><circle class="uuid-a4298185-dc40-4343-aeb2-e8d56120797a" cx="119.74" cy="439.87" r="19.56"/></g><g class="uuid-adbd6db8-5a75-4802-8908-93775e43b80f"><circle class="uuid-a8c0f56f-e625-41a5-ba4e-dae0ed7eac53" cx="119.74" cy="439.87" r="14.29"/></g><g class="uuid-fe48b3ae-d296-4488-aad6-3e0ef365cbe5"><circle class="uuid-a8c0f56f-e625-41a5-ba4e-dae0ed7eac53" cx="125.73" cy="435.1" r="3.98"/></g><path class="uuid-c3e92c33-be61-45c4-b9d7-7f90bda3a938" d="M119.74,458.62c-10.34,0-18.75-8.41-18.75-18.75s8.41-18.75,18.75-18.75,18.75,8.41,18.75,18.75-8.41,18.75-18.75,18.75Zm0-36.68c-9.89,0-17.94,8.05-17.94,17.94s8.05,17.94,17.94,17.94,17.94-8.05,17.94-17.94-8.05-17.94-17.94-17.94Z"/><path class="uuid-c3e92c33-be61-45c4-b9d7-7f90bda3a938" d="M79.81,407.37h10.86c.8,0,1.45,.65,1.45,1.45v4.35h-13.76v-4.35c0-.8,.65-1.45,1.45-1.45Z"/><g><g class="uuid-f16c1244-2352-4099-8bc4-20f48806bf1e"><rect class="uuid-a4298185-dc40-4343-aeb2-e8d56120797a" x="79.94" y="407.98" width=".81" height="5.19"/></g><g class="uuid-f16c1244-2352-4099-8bc4-20f48806bf1e"><rect class="uuid-a4298185-dc40-4343-aeb2-e8d56120797a" x="81.9" y="407.98" width=".81" height="5.19"/></g><g class="uuid-f16c1244-2352-4099-8bc4-20f48806bf1e"><rect class="uuid-a4298185-dc40-4343-aeb2-e8d56120797a" x="83.86" y="407.98" width=".81" height="5.19"/></g><g class="uuid-f16c1244-2352-4099-8bc4-20f48806bf1e"><rect class="uuid-a4298185-dc40-4343-aeb2-e8d56120797a" x="85.81" y="407.98" width=".81" height="5.19"/></g><g class="uuid-f16c1244-2352-4099-8bc4-20f48806bf1e"><rect class="uuid-a4298185-dc40-4343-aeb2-e8d56120797a" x="87.77" y="407.98" width=".81" height="5.19"/></g><g class="uuid-f16c1244-2352-4099-8bc4-20f48806bf1e"><rect class="uuid-a4298185-dc40-4343-aeb2-e8d56120797a" x="89.72" y="407.98" width=".81" height="5.19"/></g></g><path class="uuid-a4298185-dc40-4343-aeb2-e8d56120797a" d="M135.5,397.26h-27.47c-1.48,0-2.74,1.08-2.95,2.55l-1.63,11.03h36.59l-1.59-11.02c-.21-1.47-1.47-2.56-2.95-2.56Z"/><g class="uuid-f16c1244-2352-4099-8bc4-20f48806bf1e"><polygon class="uuid-a4298185-dc40-4343-aeb2-e8d56120797a" points="104.01 407.06 103.45 410.83 140.04 410.83 139.5 407.06 104.01 407.06"/></g><path class="uuid-c3e92c33-be61-45c4-b9d7-7f90bda3a938" d="M114.08,393.48h15.33c.61,0,1.1,.49,1.1,1.1v2.68h-17.53v-2.68c0-.61,.49-1.1,1.1-1.1Z"/><path class="uuid-c2f84968-6943-49bf-880b-248c9d433b9b" d="M93.22,439.87c0-5.73,2.16-11.23,3.84-14.63,.78-1.59-.36-3.45-2.14-3.45h-23.37v39.57h25.46c1.94,0,3.09-2.19,1.95-3.76-3.31-4.57-5.74-10.55-5.74-17.73Z"/><path class="uuid-c2f84968-6943-49bf-880b-248c9d433b9b" d="M146.26,439.87c0-5.73-2.16-11.23-3.84-14.63-.78-1.59,.36-3.45,2.14-3.45h23.37s0,39.57,0,39.57h-25.46c-1.94,0-3.09-2.19-1.95-3.76,3.31-4.57,5.74-10.55,5.74-17.73Z"/><circle class="uuid-a4298185-dc40-4343-aeb2-e8d56120797a" cx="154" cy="451.2" r="4.05"/><circle class="uuid-a4298185-dc40-4343-aeb2-e8d56120797a" cx="154" cy="425.39" r="1.56"/></g></g></g></g></svg>